<svg width="28" height="28" viewBox="0 0 28 28" fill="none" xmlns="http://www.w3.org/2000/svg">
<path fill-rule="evenodd" clip-rule="evenodd" d="M12.2353 4.41933C13.3839 3.27063 14.9416 2.62519 16.566 2.625H19.716C19.9481 2.625 20.1706 2.71719 20.3347 2.88128C20.4988 3.04538 20.591 3.26794 20.591 3.5V7.7C20.591 7.93206 20.4988 8.15462 20.3347 8.31872C20.1706 8.48281 19.9481 8.575 19.716 8.575H16.566C16.543 8.575 16.5203 8.57953 16.499 8.58832C16.4778 8.59712 16.4585 8.61001 16.4423 8.62626C16.426 8.64251 16.4131 8.6618 16.4043 8.68303C16.3955 8.70426 16.391 8.72702 16.391 8.75V11.025H19.716C19.849 11.0249 19.9803 11.0552 20.0999 11.1135C20.2195 11.1718 20.3242 11.2565 20.4061 11.3614C20.488 11.4662 20.5449 11.5883 20.5725 11.7185C20.6001 11.8486 20.5976 11.9833 20.5654 12.1123L19.5154 16.3123C19.468 16.5017 19.3587 16.6698 19.2048 16.7899C19.0509 16.9099 18.8612 16.9751 18.666 16.975H16.391V24.5C16.391 24.7321 16.2988 24.9546 16.1347 25.1187C15.9706 25.2828 15.7481 25.375 15.516 25.375H11.316C11.084 25.375 10.8614 25.2828 10.6973 25.1187C10.5332 24.9546 10.441 24.7321 10.441 24.5V16.975H8.16602C7.93395 16.975 7.71139 16.8828 7.5473 16.7187C7.3832 16.5546 7.29102 16.3321 7.29102 16.1V11.9C7.29102 11.7851 7.31365 11.6713 7.35762 11.5652C7.40159 11.459 7.46605 11.3625 7.5473 11.2813C7.62855 11.2 7.72501 11.1356 7.83117 11.0916C7.93733 11.0476 8.05111 11.025 8.16602 11.025H10.441V8.75C10.4412 7.12562 11.0866 5.56785 12.2353 4.41933ZM16.566 4.375C15.4057 4.375 14.2929 4.83594 13.4724 5.65641C12.652 6.47688 12.191 7.58968 12.191 8.75V11.9C12.191 12.1321 12.0988 12.3546 11.9347 12.5187C11.7706 12.6828 11.5481 12.775 11.316 12.775H9.04102V15.225H11.316C11.5481 15.225 11.7706 15.3172 11.9347 15.4813C12.0988 15.6454 12.191 15.8679 12.191 16.1V23.625H14.641V16.1C14.641 15.8679 14.7332 15.6454 14.8973 15.4813C15.0614 15.3172 15.284 15.225 15.516 15.225H17.9823L18.5948 12.775H15.516C15.284 12.775 15.0614 12.6828 14.8973 12.5187C14.7332 12.3546 14.641 12.1321 14.641 11.9V8.75C14.641 8.23946 14.8438 7.74983 15.2048 7.38882C15.5658 7.02781 16.0555 6.825 16.566 6.825H18.841V4.375H16.566Z" fill="#D9D9D9"/>
</svg>
