<svg width="349" height="349" viewBox="0 0 349 349" fill="none" xmlns="http://www.w3.org/2000/svg">
<path d="M167.569 319.768L308.963 238.137C310.631 237.173 310.631 235.61 308.963 234.647L193.095 167.743C192.159 167.268 191.123 167.021 190.073 167.021C189.023 167.021 187.987 167.268 187.051 167.743L45.6636 249.409C43.9884 250.373 43.9884 251.936 45.6636 252.899L161.532 319.803C162.47 320.271 163.506 320.512 164.555 320.506C165.604 320.5 166.636 320.247 167.569 319.768Z" fill="#E0E0E0"/>
<path d="M55.6724 225.307C55.2048 219.493 52.5454 209.951 45.7818 200.877C38.5505 191.154 29.7278 185.068 23.1805 187.916C17.08 190.568 19.3904 198.986 29.8953 207.292C37.2592 213.127 44.9023 220.708 49.0065 229.872L55.6724 241.508V225.307Z" fill="#BA68C8"/>
<g opacity="0.2">
<path d="M55.6724 225.307C55.2048 219.493 52.5454 209.951 45.7818 200.877C38.5505 191.154 29.7278 185.068 23.1805 187.916C17.08 190.568 19.3904 198.986 29.8953 207.292C37.2592 213.127 44.9023 220.708 49.0065 229.872L55.6724 241.508V225.307Z" fill="black"/>
</g>
<path d="M55.0857 229.74C55.0004 229.741 54.9169 229.715 54.8469 229.666C54.7769 229.617 54.7237 229.548 54.6948 229.468C48.8595 213.351 36.6515 197.038 26.3421 191.531C26.2458 191.479 26.1737 191.392 26.1411 191.288C26.1085 191.183 26.118 191.07 26.1676 190.973C26.2208 190.876 26.3095 190.804 26.415 190.771C26.5205 190.739 26.6345 190.749 26.7329 190.798C37.2029 196.382 49.5575 212.897 55.4696 229.188C55.4885 229.239 55.4972 229.293 55.4952 229.348C55.4932 229.402 55.4804 229.455 55.4577 229.504C55.435 229.554 55.4028 229.598 55.3629 229.635C55.323 229.672 55.2763 229.7 55.2253 229.719C55.1806 229.735 55.1332 229.742 55.0857 229.74Z" fill="white"/>
<path d="M58.2201 253.018C54.8368 255.676 50.8149 257.399 46.5566 258.016C39.2066 259.174 35.9609 255.663 35.9609 255.663C35.9609 255.663 38.8576 248.767 43.0317 246.834C43.0317 246.834 35.9539 248.279 30.2792 252.069C30.2792 252.069 25.7911 252.139 23.9972 245.284C23.9972 245.284 26.6566 241.166 35.577 238.939C35.577 238.939 30.1466 237.543 22.315 239.568C21.7287 239.798 19.2299 230.947 18.469 226.864C17.7082 222.781 19.3555 222.816 22.5384 221.978C25.7213 221.14 36.5682 220.582 38.5924 222.341C40.6166 224.1 41.6008 230.082 41.6008 230.082C41.966 227.694 42.034 225.269 41.8032 222.864C44.5118 222.729 47.2236 223.055 49.8232 223.828C53.4039 225.077 53.1736 226.822 53.1736 229.412C53.1879 232.034 52.8283 234.645 52.1057 237.166C52.1057 237.166 54.5766 235.024 54.6603 227.143C54.6603 227.143 59.4975 231.282 61.4379 234.821C63.3783 238.36 62.8828 247.713 58.2201 253.018Z" fill="#BA68C8"/>
<path d="M58.2201 253.43C58.1435 253.424 58.0693 253.401 58.0037 253.361C57.9381 253.321 57.8831 253.265 57.8432 253.2C49.3835 241.027 29.8674 226.564 21.973 225.028C21.8659 225.005 21.7721 224.941 21.711 224.85C21.6499 224.759 21.6262 224.648 21.6449 224.54C21.6669 224.433 21.7294 224.339 21.8193 224.278C21.9092 224.217 22.0194 224.193 22.1266 224.212C30.1536 225.775 50.249 239.959 58.5901 252.83C58.6168 252.878 58.633 252.932 58.6375 252.987C58.6421 253.042 58.6349 253.097 58.6164 253.149C58.5979 253.201 58.5686 253.249 58.5304 253.289C58.4922 253.329 58.4459 253.36 58.3946 253.381C58.341 253.411 58.2813 253.427 58.2201 253.43Z" fill="white"/>
<path d="M288.421 219.605L282.341 216.115C282.341 216.115 279.424 200.061 281.609 186.226C284.673 166.808 297.893 160.107 302.695 162.041C307.497 163.974 308.628 169.719 299.952 180.942C294.836 187.587 288.274 201.582 288.421 219.605Z" fill="#BA68C8"/>
<g opacity="0.2">
<path d="M288.421 219.605L282.341 216.115C282.341 216.115 279.424 200.061 281.609 186.226C284.673 166.808 297.893 160.107 302.695 162.041C307.497 163.974 308.628 169.719 299.952 180.942C294.836 187.587 288.274 201.582 288.421 219.605Z" fill="black"/>
</g>
<path d="M286.216 211.892H286.278C286.391 211.874 286.493 211.814 286.562 211.722C286.632 211.631 286.662 211.517 286.648 211.403C284.136 193.22 291.444 173.299 299.659 165.272C299.741 165.192 299.788 165.082 299.79 164.967C299.791 164.851 299.747 164.74 299.666 164.658C299.585 164.576 299.476 164.529 299.36 164.527C299.245 164.526 299.134 164.571 299.052 164.651C290.676 172.825 283.235 193.067 285.79 211.522C285.803 211.625 285.854 211.719 285.933 211.787C286.011 211.856 286.112 211.893 286.216 211.892Z" fill="white"/>
<path d="M305.292 229.349C306.248 229.9 308.231 228.7 308.985 228.19C310.283 227.307 311.333 226.105 312.035 224.7C312.82 223.102 313.088 221.299 312.803 219.542C312.646 218.614 312.427 217.697 312.146 216.799C311.895 215.912 311.637 215.026 311.379 214.132C311.069 213.275 310.938 212.362 310.995 211.452C311.225 209.63 312.844 208.353 314.31 207.264C315.937 206.05 317.626 204.472 317.619 202.245C317.501 200.545 316.821 198.931 315.685 197.66C314.638 196.326 313.396 195.154 312.447 193.758C311.7 192.779 311.311 191.575 311.344 190.345C311.447 189.593 311.699 188.869 312.084 188.216C312.858 186.82 313.884 185.479 314.415 183.951C314.945 182.422 314.876 180.51 313.675 179.407C312.691 178.506 311.232 178.381 309.906 178.472C308.667 178.626 307.476 179.048 306.416 179.707C302.926 181.64 300.951 185.766 297.251 187.252C295.855 187.832 294.264 187.95 292.784 188.348C291.304 188.746 289.783 189.5 289.092 190.875C287.737 193.583 290.257 196.92 289.301 199.795C288.456 202.336 285.985 203.285 284.596 205.603C284.031 206.615 283.804 207.782 283.947 208.932C284.065 210.879 284.538 212.788 285.343 214.565C286.249 216.327 287.282 218.021 288.435 219.633C288.477 219.661 305.139 229.265 305.292 229.349Z" fill="#BA68C8"/>
<path d="M295.422 224.093C295.48 224.091 295.536 224.078 295.589 224.054C295.642 224.03 295.689 223.996 295.729 223.954C295.768 223.912 295.799 223.863 295.82 223.809C295.84 223.755 295.849 223.697 295.848 223.639C295.15 206.434 303.239 187.434 309.11 181.913C309.194 181.834 309.243 181.725 309.247 181.61C309.251 181.495 309.209 181.383 309.131 181.299C309.052 181.214 308.943 181.165 308.828 181.161C308.713 181.157 308.601 181.199 308.516 181.278C302.5 186.91 294.228 206.224 294.947 223.674C294.95 223.733 294.964 223.791 294.99 223.844C295.015 223.898 295.051 223.945 295.096 223.984C295.14 224.023 295.192 224.053 295.248 224.072C295.304 224.091 295.363 224.098 295.422 224.093Z" fill="white"/>
<path d="M297.998 203.76C298.039 203.767 298.082 203.767 298.123 203.76C302.199 202.626 306.386 201.943 310.61 201.722C310.725 201.715 310.831 201.663 310.908 201.579C310.985 201.494 311.026 201.383 311.022 201.268C311.023 201.21 311.011 201.153 310.987 201.1C310.964 201.047 310.93 201 310.887 200.961C310.844 200.922 310.794 200.893 310.739 200.875C310.684 200.857 310.626 200.851 310.569 200.856C306.272 201.073 302.012 201.762 297.865 202.909C297.756 202.942 297.665 203.018 297.611 203.118C297.558 203.219 297.546 203.337 297.579 203.446C297.604 203.537 297.658 203.618 297.734 203.675C297.81 203.732 297.903 203.762 297.998 203.76Z" fill="white"/>
<path d="M57.4453 250.715C57.5329 251.91 57.9008 253.069 58.5192 254.096C59.1377 255.123 59.9893 255.99 61.0051 256.627L160.819 314.24C161.923 314.8 163.144 315.093 164.382 315.093C165.621 315.093 166.842 314.8 167.946 314.24L304.461 235.407C305.536 234.839 306.436 233.988 307.064 232.947C307.691 231.905 308.023 230.712 308.023 229.495C308.023 228.279 307.691 227.086 307.064 226.044C306.436 225.002 305.536 224.152 304.461 223.583L204.647 165.963C203.543 165.406 202.323 165.115 201.087 165.115C199.85 165.115 198.631 165.406 197.527 165.963L61.0051 244.796C59.9884 245.433 59.1362 246.301 58.5177 247.33C57.8992 248.358 57.5318 249.518 57.4453 250.715Z" fill="#37474F"/>
<path d="M164.359 307.385V315.063C163.118 315.09 161.892 314.797 160.799 314.211L60.9848 256.599C59.9405 256.048 59.0611 255.23 58.4365 254.229C57.8119 253.227 57.4644 252.078 57.4297 250.898C57.3949 249.718 57.674 248.55 58.2385 247.513C58.8031 246.477 59.6327 245.609 60.6427 244.998C59.0443 246.143 59.17 247.79 61.0057 248.886L160.82 306.499C161.905 307.09 163.123 307.395 164.359 307.385Z" fill="#263238"/>
<path d="M54.1022 244.928C53.1115 244.252 52.293 243.353 51.7123 242.303C51.1317 241.253 50.8051 240.082 50.7588 238.883V119.798C50.827 118.562 51.1848 117.36 51.8031 116.288C52.4215 115.216 53.2832 114.305 54.3186 113.627L190.861 34.7952C191.922 34.2367 193.099 33.9345 194.298 33.9126C195.497 33.8908 196.684 34.1501 197.765 34.6695C198.755 35.3459 199.574 36.2449 200.154 37.2947C200.735 38.3444 201.062 39.5155 201.108 40.7142V159.8C201.04 161.035 200.683 162.236 200.064 163.307C199.446 164.378 198.584 165.288 197.548 165.963L61.0054 244.795C59.945 245.355 58.7683 245.658 57.5696 245.682C56.3708 245.705 55.1833 245.447 54.1022 244.928Z" fill="#455A64"/>
<path d="M60.5865 244.998C59.5645 245.457 58.4544 245.686 57.3342 245.671C56.214 245.655 55.1108 245.394 54.1021 244.907C53.1108 244.234 52.2921 243.336 51.7125 242.287C51.1328 241.238 50.8084 240.067 50.7656 238.869V119.798C50.8064 118.564 51.1646 117.362 51.8056 116.308L58.4855 120.154C57.8483 121.21 57.4881 122.411 57.4385 123.644V242.743C57.4385 244.851 58.8136 245.794 60.5865 244.998Z" fill="#263238"/>
<path d="M57.4453 123.658V242.743C57.4453 245.012 59.0368 245.933 61.0051 244.795L197.534 165.963C198.57 165.288 199.432 164.378 200.05 163.307C200.668 162.236 201.026 161.035 201.094 159.8V40.7142C201.094 38.4387 199.495 37.5244 197.534 38.6551L61.0051 117.487C59.9681 118.163 59.1053 119.074 58.4867 120.146C57.8682 121.219 57.5114 122.422 57.4453 123.658Z" fill="#37474F"/>
<path d="M61.0056 248.914L160.82 306.527C161.925 307.084 163.145 307.375 164.383 307.375C165.621 307.375 166.841 307.084 167.946 306.527L304.461 227.695C306.422 226.557 306.422 224.714 304.461 223.583L204.647 165.963C203.543 165.406 202.324 165.115 201.087 165.115C199.851 165.115 198.631 165.406 197.527 165.963L61.0056 244.796C59.0372 245.933 59.0372 247.79 61.0056 248.914Z" fill="#455A64"/>
<path d="M62.9181 124.097L194.561 48.113C195.741 47.415 196.697 47.9804 196.697 49.3484V152.436C196.656 153.177 196.442 153.898 196.071 154.541C195.7 155.184 195.182 155.73 194.561 156.135L62.9181 232.12C61.7385 232.818 60.7822 232.245 60.7822 230.884V127.797C60.8227 127.056 61.0372 126.335 61.4083 125.692C61.7794 125.049 62.2966 124.503 62.9181 124.097Z" fill="#BA68C8"/>
<path opacity="0.9" d="M62.9181 124.097L194.561 48.113C195.741 47.415 196.697 47.9804 196.697 49.3484V152.436C196.656 153.177 196.442 153.898 196.071 154.541C195.7 155.184 195.182 155.73 194.561 156.135L62.9181 232.12C61.7385 232.818 60.7822 232.245 60.7822 230.884V127.797C60.8227 127.056 61.0372 126.335 61.4083 125.692C61.7794 125.049 62.2966 124.503 62.9181 124.097Z" fill="white"/>
<path d="M72.592 245.829L199.328 172.657C199.879 172.375 200.489 172.228 201.108 172.228C201.727 172.228 202.337 172.375 202.888 172.657L209.372 176.398C210.356 176.964 210.356 177.885 209.372 178.451L82.6153 251.615C82.0621 251.894 81.4513 252.039 80.8319 252.039C80.2125 252.039 79.6017 251.894 79.0485 251.615L72.592 247.881C71.6008 247.315 71.6008 246.394 72.592 245.829Z" fill="#37474F"/>
<path d="M89.2959 255.468L215.089 182.876C215.641 182.597 216.251 182.452 216.869 182.452C217.488 182.452 218.097 182.597 218.649 182.876L258.519 205.91C259.503 206.482 259.503 207.404 258.519 208.004L132.879 280.512C132.326 280.791 131.715 280.936 131.096 280.936C130.476 280.936 129.865 280.791 129.312 280.512L89.3028 257.583C88.3117 256.955 88.3117 256.04 89.2959 255.468Z" fill="#263238"/>
<path d="M202.902 215.221L206.873 212.932C207.041 212.834 207.027 212.667 206.873 212.562L202.288 209.916C202.189 209.866 202.08 209.84 201.97 209.84C201.86 209.84 201.751 209.866 201.652 209.916L197.66 212.192C197.492 212.29 197.499 212.45 197.66 212.555L202.246 215.207C202.346 215.263 202.458 215.294 202.572 215.296C202.686 215.299 202.8 215.273 202.902 215.221ZM195.07 206.147L191.106 208.437C190.938 208.534 190.945 208.695 191.106 208.8L195.692 211.452C195.79 211.502 195.899 211.529 196.009 211.529C196.12 211.529 196.228 211.502 196.327 211.452L200.298 209.156C200.466 209.058 200.452 208.897 200.298 208.793L195.712 206.14C195.615 206.086 195.506 206.055 195.394 206.052C195.282 206.048 195.171 206.071 195.07 206.119V206.147ZM182.255 213.546L175.533 217.42C175.366 217.518 175.38 217.685 175.533 217.79L180.119 220.435C180.217 220.486 180.326 220.512 180.437 220.512C180.547 220.512 180.656 220.486 180.754 220.435L187.469 216.561C187.637 216.464 187.63 216.296 187.469 216.192L182.876 213.532C182.781 213.482 182.675 213.455 182.567 213.452C182.459 213.45 182.353 213.472 182.255 213.518V213.546ZM189.27 209.491L185.305 211.787C185.138 211.878 185.145 212.045 185.305 212.15L189.891 214.796C189.989 214.846 190.098 214.872 190.209 214.872C190.319 214.872 190.428 214.846 190.526 214.796L194.498 212.506C194.665 212.408 194.652 212.248 194.498 212.143L189.912 209.491C189.815 209.435 189.706 209.403 189.594 209.398C189.483 209.394 189.371 209.416 189.27 209.463V209.491ZM173.705 218.474L169.74 220.763C169.565 220.861 169.579 221.029 169.74 221.133L174.326 223.779C174.424 223.829 174.533 223.855 174.643 223.855C174.754 223.855 174.863 223.829 174.961 223.779L178.926 221.489C179.093 221.392 179.086 221.224 178.926 221.119L174.34 218.474C174.241 218.424 174.133 218.398 174.022 218.398C173.912 218.398 173.803 218.424 173.705 218.474ZM167.904 221.824L163.94 224.114C163.772 224.212 163.779 224.372 163.94 224.477L168.525 227.129C168.624 227.179 168.733 227.206 168.843 227.206C168.953 227.206 169.062 227.179 169.161 227.129L173.125 224.833C173.3 224.735 173.286 224.574 173.125 224.47L168.539 221.824C168.443 221.771 168.335 221.741 168.224 221.737C168.114 221.734 168.004 221.756 167.904 221.803V221.824ZM185.954 232.595L189.919 230.305C190.094 230.207 190.08 230.04 189.919 229.935L185.333 227.29C185.235 227.239 185.126 227.213 185.016 227.213C184.905 227.213 184.796 227.239 184.698 227.29L180.733 229.579C180.566 229.677 180.573 229.844 180.733 229.949L185.319 232.595C185.419 232.642 185.529 232.664 185.639 232.661C185.75 232.657 185.858 232.627 185.954 232.574V232.595ZM180.154 235.924L184.126 233.635C184.293 233.537 184.279 233.369 184.126 233.265L179.54 230.619C179.441 230.569 179.333 230.543 179.222 230.543C179.112 230.543 179.003 230.569 178.905 230.619L174.94 232.909C174.772 233.006 174.779 233.167 174.94 233.272L179.526 235.924C179.623 235.973 179.731 235.999 179.84 235.999C179.949 235.999 180.057 235.973 180.154 235.924ZM174.354 239.274L178.325 236.978C178.493 236.88 178.479 236.72 178.325 236.615L173.739 233.963C173.641 233.912 173.532 233.886 173.422 233.886C173.311 233.886 173.203 233.912 173.104 233.963L169.14 236.252C168.972 236.35 168.979 236.51 169.14 236.615L173.725 239.267C173.822 239.318 173.93 239.344 174.039 239.346C174.148 239.347 174.256 239.322 174.354 239.274ZM168.553 242.618L172.525 240.328C172.692 240.231 172.678 240.07 172.525 239.965L167.932 237.313C167.834 237.263 167.725 237.237 167.614 237.237C167.504 237.237 167.395 237.263 167.297 237.313L163.332 239.588C163.165 239.686 163.172 239.854 163.332 239.958L167.925 242.604C168.021 242.655 168.128 242.683 168.238 242.686C168.347 242.688 168.455 242.665 168.553 242.618ZM197.101 218.565L201.073 216.275C201.241 216.178 201.227 216.017 201.073 215.912L196.48 213.26C196.383 213.211 196.275 213.185 196.166 213.185C196.057 213.185 195.949 213.211 195.852 213.26L191.88 215.556C191.713 215.654 191.72 215.815 191.88 215.919L196.473 218.572C196.571 218.62 196.679 218.644 196.788 218.643C196.897 218.642 197.005 218.615 197.101 218.565ZM191.755 229.223L200.605 224.114C200.773 224.016 200.766 223.856 200.605 223.751L189.437 217.315C189.34 217.266 189.232 217.241 189.123 217.241C189.014 217.241 188.907 217.266 188.809 217.315L184.23 219.961C184.063 220.058 184.07 220.219 184.23 220.324L190.128 223.73C190.31 223.835 190.317 224.002 190.128 224.1L186.471 226.194C186.296 226.292 186.31 226.452 186.471 226.557L191.057 229.202C191.161 229.267 191.28 229.303 191.403 229.306C191.526 229.31 191.647 229.281 191.755 229.223ZM162.104 225.147L158.139 227.443C157.972 227.541 157.979 227.702 158.139 227.806L162.725 230.459C162.823 230.509 162.932 230.535 163.043 230.535C163.153 230.535 163.262 230.509 163.36 230.459L167.332 228.169C167.499 228.071 167.485 227.911 167.332 227.806L162.746 225.154C162.647 225.101 162.537 225.073 162.426 225.072C162.314 225.071 162.204 225.097 162.104 225.147ZM156.303 228.497L152.339 230.787C152.171 230.884 152.178 231.052 152.339 231.157L156.925 233.802C157.023 233.852 157.132 233.878 157.242 233.878C157.353 233.878 157.461 233.852 157.56 233.802L161.531 231.513C161.699 231.415 161.685 231.247 161.531 231.15L156.946 228.497C156.846 228.446 156.736 228.419 156.624 228.419C156.513 228.419 156.403 228.446 156.303 228.497ZM127.322 266.043C127.421 266.093 127.53 266.119 127.64 266.119C127.75 266.119 127.859 266.093 127.958 266.043L131.929 263.753C132.097 263.656 132.083 263.495 131.929 263.39L127.343 260.738C127.245 260.688 127.136 260.661 127.026 260.661C126.915 260.661 126.807 260.688 126.708 260.738L122.744 263.027C122.576 263.125 122.583 263.293 122.744 263.397L127.322 266.043ZM109.907 255.286L105.943 257.562C105.775 257.66 105.782 257.82 105.943 257.925L110.529 260.577C110.627 260.628 110.736 260.654 110.846 260.654C110.957 260.654 111.065 260.628 111.164 260.577L115.128 258.288C115.303 258.19 115.289 258.023 115.128 257.918L110.542 255.273C110.443 255.224 110.334 255.201 110.223 255.203C110.113 255.205 110.005 255.234 109.907 255.286ZM119.247 263.146C119.344 263.195 119.452 263.221 119.561 263.221C119.67 263.221 119.777 263.195 119.875 263.146L123.846 260.857C124.014 260.759 124 260.598 123.846 260.494L119.261 257.841C119.162 257.791 119.053 257.765 118.943 257.765C118.833 257.765 118.724 257.791 118.625 257.841L114.661 260.138C114.493 260.235 114.5 260.396 114.661 260.501L119.247 263.146ZM137.562 268.088L141.534 265.798C141.701 265.701 141.694 265.533 141.534 265.428L136.941 262.783C136.843 262.734 136.736 262.708 136.627 262.708C136.518 262.708 136.41 262.734 136.313 262.783L132.341 265.072C132.174 265.17 132.181 265.338 132.341 265.442L136.934 268.088C137.032 268.136 137.14 268.16 137.249 268.159C137.358 268.158 137.465 268.131 137.562 268.081V268.088ZM131.134 271.424C131.231 271.473 131.339 271.499 131.448 271.499C131.557 271.499 131.664 271.473 131.762 271.424L135.733 269.128C135.901 269.03 135.894 268.87 135.733 268.765L131.14 266.119C131.043 266.07 130.935 266.045 130.826 266.045C130.717 266.045 130.61 266.07 130.512 266.119L126.541 268.409C126.373 268.507 126.38 268.667 126.541 268.772L131.134 271.424ZM115.708 251.943L111.743 254.233C111.569 254.33 111.583 254.498 111.743 254.602L116.329 257.248C116.427 257.298 116.536 257.324 116.647 257.324C116.757 257.324 116.866 257.298 116.964 257.248L120.929 254.958C121.103 254.861 121.089 254.7 120.929 254.595L116.343 251.943C116.245 251.892 116.137 251.864 116.026 251.863C115.916 251.862 115.807 251.887 115.708 251.936V251.943ZM144.71 235.191L140.738 237.481C140.57 237.578 140.577 237.739 140.738 237.843L145.331 240.496C145.428 240.545 145.536 240.571 145.645 240.571C145.754 240.571 145.862 240.545 145.959 240.496L149.931 238.199C150.098 238.102 150.091 237.941 149.931 237.836L145.338 235.184C145.237 235.141 145.128 235.123 145.019 235.13C144.91 235.137 144.804 235.17 144.71 235.226V235.191ZM121.508 248.579L117.536 250.875C117.369 250.973 117.383 251.133 117.536 251.238L122.122 253.89C122.221 253.941 122.329 253.967 122.44 253.967C122.55 253.967 122.659 253.941 122.757 253.89L126.722 251.601C126.89 251.503 126.883 251.343 126.722 251.238L122.136 248.586C122.039 248.537 121.931 248.511 121.822 248.511C121.713 248.511 121.606 248.537 121.508 248.586V248.579ZM150.503 231.827L146.538 234.116C146.371 234.214 146.378 234.374 146.538 234.479L151.131 237.132C151.229 237.181 151.336 237.206 151.445 237.206C151.554 237.206 151.662 237.181 151.759 237.132L155.731 234.842C155.899 234.744 155.885 234.577 155.731 234.472L151.138 231.827C151.038 231.78 150.928 231.757 150.818 231.761C150.708 231.764 150.6 231.794 150.503 231.848V231.827ZM138.902 238.541L134.938 240.81C134.77 240.908 134.777 241.075 134.938 241.18L139.53 243.825C139.629 243.876 139.738 243.902 139.848 243.902C139.958 243.902 140.067 243.876 140.166 243.825L144.13 241.536C144.298 241.438 144.291 241.278 144.13 241.173L139.537 238.521C139.437 238.473 139.328 238.451 139.217 238.455C139.107 238.458 138.999 238.488 138.902 238.541ZM133.102 241.892L129.13 244.181C128.963 244.279 128.977 244.447 129.13 244.551L133.716 247.197C133.814 247.247 133.923 247.273 134.034 247.273C134.144 247.273 134.253 247.247 134.351 247.197L138.316 244.907C138.483 244.81 138.476 244.642 138.316 244.537L133.73 241.892C133.634 241.844 133.527 241.819 133.419 241.819C133.312 241.819 133.205 241.844 133.109 241.892H133.102ZM127.301 245.242L123.33 247.532C123.162 247.629 123.176 247.79 123.33 247.895L127.916 250.547C128.014 250.597 128.123 250.624 128.233 250.624C128.344 250.624 128.453 250.597 128.551 250.547L132.516 248.251C132.683 248.16 132.676 247.992 132.516 247.888L127.93 245.242C127.833 245.194 127.727 245.169 127.619 245.169C127.511 245.169 127.405 245.194 127.308 245.242H127.301ZM156.946 249.319L160.917 247.022C161.085 246.931 161.078 246.764 160.917 246.659L156.324 244.014C156.227 243.965 156.119 243.939 156.01 243.939C155.901 243.939 155.794 243.965 155.696 244.014L151.725 246.303C151.557 246.401 151.564 246.561 151.725 246.666L156.317 249.319C156.416 249.369 156.525 249.395 156.635 249.395C156.745 249.395 156.854 249.369 156.953 249.319H156.946ZM207.9 198.714L203.928 201.024C203.753 201.122 203.767 201.289 203.928 201.394L208.514 204.039C208.612 204.09 208.721 204.116 208.831 204.116C208.942 204.116 209.051 204.09 209.149 204.039L213.114 201.75C213.281 201.652 213.274 201.492 213.114 201.387L208.528 198.735C208.431 198.681 208.323 198.651 208.213 198.648C208.102 198.644 207.993 198.667 207.893 198.714H207.9ZM200.878 202.769L196.913 205.058C196.739 205.156 196.752 205.317 196.913 205.421L201.499 208.074C201.597 208.124 201.706 208.15 201.816 208.15C201.927 208.15 202.036 208.124 202.134 208.074L206.099 205.784C206.273 205.687 206.259 205.519 206.099 205.414L201.513 202.769C201.414 202.718 201.304 202.691 201.192 202.691C201.08 202.691 200.97 202.718 200.871 202.769H200.878ZM213.7 195.363L209.728 197.66C209.561 197.757 209.575 197.918 209.728 198.023L214.314 200.675C214.413 200.725 214.521 200.751 214.632 200.751C214.742 200.751 214.851 200.725 214.949 200.675L218.914 198.386C219.082 198.288 219.075 198.127 218.914 198.023L214.328 195.37C214.23 195.319 214.122 195.291 214.011 195.29C213.901 195.289 213.792 195.314 213.693 195.363H213.7ZM183.686 226.319L187.658 224.03C187.825 223.932 187.811 223.772 187.658 223.667L183.072 221.015C182.973 220.964 182.865 220.938 182.754 220.938C182.644 220.938 182.535 220.964 182.437 221.015L178.472 223.311C178.304 223.409 178.311 223.569 178.472 223.674L183.058 226.326C183.154 226.372 183.259 226.395 183.366 226.394C183.472 226.393 183.577 226.367 183.672 226.319H183.686ZM220.135 192.034C220.038 191.985 219.93 191.959 219.821 191.959C219.712 191.959 219.605 191.985 219.507 192.034L215.536 194.323C215.368 194.421 215.382 194.581 215.536 194.686L220.122 197.339C220.22 197.389 220.329 197.415 220.439 197.415C220.55 197.415 220.658 197.389 220.757 197.339L224.721 195.042C224.889 194.944 224.882 194.784 224.721 194.679L220.135 192.034ZM162.767 245.968L166.738 243.679C166.906 243.581 166.899 243.413 166.738 243.309L162.146 240.663C162.048 240.614 161.941 240.589 161.832 240.589C161.722 240.589 161.615 240.614 161.517 240.663L157.546 242.953C157.378 243.051 157.385 243.218 157.546 243.316L162.139 245.968C162.234 246.015 162.339 246.039 162.446 246.039C162.552 246.039 162.657 246.015 162.753 245.968H162.767ZM233.893 204.905L237.858 202.615C238.025 202.518 238.018 202.35 237.858 202.245L233.237 199.628C233.139 199.578 233.03 199.552 232.919 199.552C232.809 199.552 232.7 199.578 232.602 199.628L228.63 201.917C228.463 202.015 228.477 202.183 228.63 202.287L233.216 204.933C233.32 204.984 233.435 205.008 233.551 205.003C233.667 204.998 233.78 204.964 233.879 204.905H233.893ZM221.538 204.472L225.503 202.176C225.671 202.078 225.664 201.917 225.503 201.813L220.917 199.16C220.819 199.11 220.71 199.084 220.6 199.084C220.489 199.084 220.38 199.11 220.282 199.16L216.317 201.45C216.143 201.547 216.157 201.708 216.317 201.813L220.903 204.465C220.999 204.514 221.105 204.54 221.213 204.542C221.321 204.543 221.427 204.519 221.525 204.472H221.538ZM226.697 195.817C226.598 195.767 226.49 195.74 226.379 195.74C226.269 195.74 226.16 195.767 226.062 195.817L222.09 198.106C221.922 198.204 221.936 198.372 222.09 198.469L226.676 201.122C226.774 201.172 226.883 201.198 226.993 201.198C227.104 201.198 227.213 201.172 227.311 201.122L231.276 198.832C231.443 198.735 231.436 198.567 231.276 198.462L226.697 195.817ZM227.918 195.119L239.086 201.547C239.185 201.598 239.293 201.624 239.404 201.624C239.514 201.624 239.623 201.598 239.721 201.547L243.686 199.258C243.854 199.16 243.847 199 243.686 198.895L232.518 192.46C232.421 192.41 232.313 192.385 232.204 192.385C232.095 192.385 231.987 192.41 231.89 192.46L227.876 194.742C227.709 194.84 227.723 195.007 227.904 195.112L227.918 195.119ZM214.461 202.504L210.496 204.8C210.322 204.891 210.336 205.058 210.496 205.163L215.082 207.809C215.18 207.859 215.289 207.885 215.4 207.885C215.51 207.885 215.619 207.859 215.717 207.809L219.682 205.519C219.856 205.421 219.842 205.261 219.682 205.156L215.096 202.504C214.996 202.45 214.885 202.421 214.772 202.42C214.659 202.419 214.547 202.445 214.447 202.497L214.461 202.504ZM170.801 227.702L166.822 229.991C166.655 230.089 166.662 230.249 166.822 230.354L171.415 233.006C171.513 233.055 171.62 233.081 171.729 233.081C171.838 233.081 171.946 233.055 172.043 233.006L176.015 230.717C176.182 230.619 176.168 230.452 176.015 230.347L171.422 227.702C171.326 227.654 171.219 227.629 171.111 227.629C171.004 227.629 170.897 227.654 170.801 227.702ZM227.444 208.241C227.542 208.292 227.651 208.318 227.761 208.318C227.872 208.318 227.98 208.292 228.079 208.241L232.043 205.952C232.218 205.854 232.204 205.687 232.043 205.582L227.458 202.936C227.359 202.886 227.25 202.86 227.14 202.86C227.03 202.86 226.921 202.886 226.822 202.936L222.837 205.212C222.662 205.31 222.676 205.47 222.837 205.575L227.444 208.241ZM176.594 224.351L172.63 226.641C172.462 226.738 172.469 226.906 172.63 227.011L177.222 229.656C177.32 229.705 177.427 229.731 177.537 229.731C177.646 229.731 177.753 229.705 177.851 229.656L181.822 227.366C181.99 227.269 181.976 227.101 181.822 227.004L177.236 224.351C177.137 224.3 177.027 224.273 176.915 224.273C176.804 224.273 176.693 224.3 176.594 224.351ZM133.123 262.699C133.221 262.749 133.33 262.776 133.44 262.776C133.551 262.776 133.66 262.749 133.758 262.699L137.723 260.403C137.897 260.305 137.883 260.145 137.723 260.04L133.137 257.387C133.038 257.337 132.93 257.311 132.819 257.311C132.709 257.311 132.6 257.337 132.502 257.387L128.516 259.656C128.342 259.754 128.355 259.914 128.516 260.019L133.123 262.699ZM124.398 254.491L120.433 256.78C120.266 256.878 120.273 257.038 120.433 257.143L125.019 259.796C125.117 259.846 125.226 259.872 125.337 259.872C125.447 259.872 125.556 259.846 125.654 259.796L129.626 257.499C129.793 257.401 129.779 257.241 129.626 257.136L125.04 254.484C124.94 254.433 124.83 254.408 124.718 254.409C124.606 254.41 124.496 254.438 124.398 254.491ZM139.558 259.377L143.523 257.087C143.691 256.99 143.684 256.822 143.523 256.717L138.902 254.072C138.804 254.022 138.695 253.996 138.585 253.996C138.474 253.996 138.365 254.022 138.267 254.072L134.295 256.361C134.128 256.459 134.142 256.62 134.295 256.724L138.881 259.377C138.986 259.432 139.103 259.46 139.222 259.457C139.34 259.455 139.456 259.422 139.558 259.363V259.377ZM145.359 256.026L149.323 253.737C149.491 253.639 149.484 253.472 149.323 253.374L144.738 250.722C144.639 250.671 144.53 250.645 144.42 250.645C144.31 250.645 144.201 250.671 144.102 250.722L140.131 253.011C139.963 253.109 139.977 253.276 140.131 253.381L144.717 256.026C144.817 256.076 144.928 256.1 145.039 256.098C145.151 256.095 145.261 256.066 145.359 256.012V256.026ZM151.159 252.676L155.124 250.387C155.291 250.289 155.284 250.128 155.124 250.024L150.531 247.371C150.434 247.322 150.326 247.297 150.217 247.297C150.108 247.297 150 247.322 149.903 247.371L145.882 249.64C145.715 249.737 145.729 249.898 145.882 250.003L150.468 252.648C150.571 252.712 150.689 252.749 150.81 252.754C150.931 252.759 151.051 252.732 151.159 252.676ZM130.219 251.154L126.254 253.444C126.087 253.541 126.094 253.702 126.254 253.807L130.84 256.459C130.939 256.509 131.048 256.536 131.158 256.536C131.268 256.536 131.377 256.509 131.476 256.459L135.447 254.17C135.615 254.072 135.601 253.904 135.447 253.8L130.861 251.154C130.761 251.097 130.647 251.066 130.531 251.064C130.416 251.061 130.301 251.088 130.198 251.14L130.219 251.154ZM136.02 247.804L132.055 250.093C131.88 250.191 131.894 250.359 132.055 250.463L136.641 253.109C136.739 253.159 136.848 253.185 136.958 253.185C137.069 253.185 137.178 253.159 137.276 253.109L141.241 250.819C141.415 250.722 141.401 250.561 141.241 250.456L136.655 247.804C136.555 247.748 136.443 247.717 136.328 247.715C136.214 247.713 136.101 247.738 135.999 247.79L136.02 247.804ZM159.221 234.409L155.249 236.699C155.082 236.796 155.089 236.964 155.249 237.069L159.842 239.714C159.94 239.763 160.047 239.789 160.156 239.789C160.265 239.789 160.373 239.763 160.47 239.714L164.442 237.425C164.61 237.327 164.603 237.166 164.442 237.062L159.849 234.409C159.75 234.355 159.639 234.325 159.526 234.322C159.413 234.32 159.301 234.345 159.2 234.395L159.221 234.409ZM153.421 237.76L149.449 240.049C149.282 240.147 149.295 240.314 149.449 240.419L154.035 243.065C154.133 243.115 154.242 243.141 154.352 243.141C154.463 243.141 154.572 243.115 154.67 243.065L158.635 240.775C158.802 240.677 158.795 240.51 158.635 240.405L154.042 237.76C153.944 237.706 153.834 237.677 153.722 237.674C153.611 237.672 153.5 237.696 153.4 237.746L153.421 237.76ZM165 231.038L161.029 233.327C160.861 233.425 160.868 233.586 161.029 233.69L165.622 236.343C165.719 236.392 165.827 236.417 165.936 236.417C166.045 236.417 166.152 236.392 166.25 236.343L170.222 234.046C170.389 233.949 170.382 233.788 170.222 233.683L165.629 231.031C165.531 230.983 165.423 230.959 165.314 230.96C165.205 230.961 165.097 230.988 165 231.038ZM141.799 244.44L137.834 246.736C137.66 246.834 137.674 246.994 137.834 247.099L142.42 249.751C142.518 249.802 142.627 249.828 142.738 249.828C142.848 249.828 142.957 249.802 143.055 249.751L147.02 247.462C147.188 247.364 147.181 247.204 147.02 247.099L142.434 244.447C142.336 244.395 142.228 244.368 142.117 244.367C142.007 244.365 141.898 244.39 141.799 244.44ZM147.599 241.096L143.628 243.386C143.46 243.483 143.474 243.644 143.628 243.749L148.214 246.401C148.312 246.451 148.421 246.477 148.531 246.477C148.642 246.477 148.75 246.451 148.849 246.401L152.813 244.105C152.981 244.014 152.974 243.846 152.813 243.742L148.228 241.096C148.13 241.047 148.023 241.021 147.913 241.021C147.804 241.021 147.697 241.047 147.599 241.096ZM143.362 264.73L147.334 262.441C147.502 262.343 147.488 262.183 147.334 262.078L142.741 259.426C142.644 259.377 142.536 259.351 142.427 259.351C142.318 259.351 142.21 259.377 142.113 259.426L138.141 261.715C137.974 261.813 137.981 261.98 138.141 262.085L142.734 264.73C142.832 264.78 142.939 264.805 143.048 264.805C143.157 264.805 143.265 264.78 143.362 264.73ZM109.328 261.296L104.742 258.644C104.644 258.594 104.535 258.567 104.425 258.567C104.314 258.567 104.205 258.594 104.107 258.644L100.142 260.933C99.9748 261.031 99.9818 261.192 100.142 261.296L104.728 263.949C104.826 263.999 104.935 264.025 105.046 264.025C105.156 264.025 105.265 263.999 105.363 263.949L109.335 261.652C109.523 261.561 109.509 261.401 109.328 261.296ZM118.025 263.844L113.432 261.199C113.335 261.149 113.227 261.124 113.118 261.124C113.009 261.124 112.901 261.149 112.804 261.199L106.697 264.723C106.529 264.821 106.536 264.982 106.697 265.086L111.289 267.739C111.387 267.788 111.494 267.813 111.603 267.813C111.713 267.813 111.82 267.788 111.918 267.739L118.025 264.214C118.214 264.116 118.207 263.949 118.025 263.844ZM102.292 256.166L97.7202 253.528C97.6228 253.478 97.5152 253.453 97.4061 253.453C97.297 253.453 97.1895 253.478 97.092 253.528L92.206 256.32C92.0385 256.417 92.0455 256.578 92.206 256.682L96.7989 259.335C96.8963 259.384 97.0039 259.41 97.113 259.41C97.2221 259.41 97.3297 259.384 97.4271 259.335L102.313 256.543C102.481 256.445 102.474 256.278 102.292 256.166ZM106.033 254.002C106.132 254.052 106.241 254.079 106.351 254.079C106.461 254.079 106.57 254.052 106.669 254.002L110.633 251.713C110.808 251.615 110.794 251.454 110.633 251.35L106.047 248.697C105.949 248.647 105.84 248.621 105.73 248.621C105.619 248.621 105.511 248.647 105.412 248.697L101.448 250.994C101.273 251.092 101.287 251.252 101.448 251.357L106.033 254.002ZM126.101 266.741L121.515 264.095C121.417 264.045 121.308 264.019 121.197 264.019C121.087 264.019 120.978 264.045 120.88 264.095L113.251 268.5C113.083 268.597 113.09 268.765 113.251 268.87L117.844 271.515C117.941 271.564 118.049 271.59 118.158 271.59C118.267 271.59 118.374 271.564 118.472 271.515L126.108 267.111C126.296 267.02 126.282 266.852 126.101 266.748V266.741ZM129.912 272.115L125.319 269.463C125.222 269.414 125.114 269.388 125.005 269.388C124.896 269.388 124.788 269.414 124.691 269.463L119.805 272.255C119.637 272.353 119.644 272.52 119.805 272.625L124.398 275.27C124.495 275.319 124.603 275.345 124.712 275.345C124.821 275.345 124.929 275.319 125.026 275.27L129.912 272.478C130.1 272.387 130.093 272.22 129.912 272.122V272.115ZM149.156 229.111C149.254 229.162 149.363 229.188 149.473 229.188C149.584 229.188 149.693 229.162 149.791 229.111L153.756 226.815C153.923 226.717 153.916 226.557 153.756 226.452L149.17 223.8C149.072 223.749 148.963 223.723 148.852 223.723C148.742 223.723 148.633 223.749 148.535 223.8L144.563 226.089C144.396 226.187 144.409 226.347 144.563 226.452L149.156 229.111ZM137.555 235.805C137.653 235.856 137.762 235.882 137.873 235.882C137.983 235.882 138.092 235.856 138.19 235.805L142.155 233.516C142.329 233.418 142.315 233.251 142.155 233.146L137.569 230.501C137.471 230.45 137.362 230.424 137.251 230.424C137.141 230.424 137.032 230.45 136.934 230.501L132.969 232.79C132.795 232.888 132.809 233.055 132.969 233.16L137.555 235.805ZM111.834 250.659C111.932 250.709 112.041 250.735 112.151 250.735C112.262 250.735 112.371 250.709 112.469 250.659L116.434 248.362C116.601 248.265 116.594 248.104 116.434 247.999L111.848 245.347C111.749 245.297 111.641 245.271 111.53 245.271C111.42 245.271 111.311 245.297 111.213 245.347L107.241 247.636C107.073 247.734 107.087 247.895 107.241 247.999L111.834 250.659ZM143.355 232.434C143.454 232.484 143.563 232.51 143.673 232.51C143.783 232.51 143.892 232.484 143.991 232.434L147.955 230.145C148.123 230.047 148.116 229.886 147.955 229.782L143.369 227.129C143.271 227.079 143.162 227.053 143.052 227.053C142.941 227.053 142.833 227.079 142.734 227.129L138.77 229.426C138.595 229.516 138.609 229.684 138.77 229.789L143.355 232.434ZM131.755 239.135C131.853 239.185 131.962 239.211 132.072 239.211C132.183 239.211 132.292 239.185 132.39 239.135L136.362 236.845C136.529 236.748 136.515 236.58 136.362 236.475L131.776 233.83C131.677 233.78 131.568 233.754 131.458 233.754C131.348 233.754 131.239 233.78 131.14 233.83L127.176 236.119C127.008 236.217 127.015 236.378 127.176 236.482L131.755 239.135ZM133.102 272.527C133.004 272.477 132.895 272.451 132.784 272.451C132.674 272.451 132.565 272.477 132.467 272.527L126.338 276.066C126.171 276.164 126.185 276.324 126.338 276.429L130.931 279.074C131.029 279.125 131.138 279.151 131.249 279.151C131.359 279.151 131.468 279.125 131.566 279.074L137.667 275.584C137.834 275.487 137.827 275.326 137.667 275.221L133.102 272.527ZM123.435 243.909C123.533 243.959 123.642 243.986 123.752 243.986C123.863 243.986 123.971 243.959 124.07 243.909L128.034 241.62C128.202 241.522 128.195 241.361 128.034 241.257L123.449 238.604C123.35 238.554 123.241 238.528 123.131 238.528C123.021 238.528 122.912 238.554 122.813 238.604L118.842 240.894C118.674 240.991 118.688 241.159 118.842 241.264L123.435 243.909ZM117.634 247.259C117.733 247.31 117.841 247.336 117.952 247.336C118.062 247.336 118.171 247.31 118.269 247.259L122.234 244.97C122.402 244.872 122.395 244.705 122.234 244.6L117.648 241.955C117.55 241.904 117.441 241.878 117.331 241.878C117.22 241.878 117.111 241.904 117.013 241.955L113.02 244.3C112.853 244.398 112.867 244.565 113.02 244.663L117.634 247.259ZM240.545 210.517C240.447 210.467 240.338 210.44 240.227 210.44C240.117 210.44 240.008 210.467 239.91 210.517L230.138 216.157C229.97 216.254 229.977 216.422 230.138 216.527L234.731 219.172C234.828 219.221 234.936 219.247 235.045 219.247C235.154 219.247 235.261 219.221 235.359 219.172L245.131 213.532C245.298 213.434 245.284 213.274 245.131 213.169L240.545 210.517ZM227.723 217.916C227.625 217.866 227.518 217.841 227.409 217.841C227.3 217.841 227.192 217.866 227.095 217.916L223.123 220.205C222.955 220.303 222.962 220.463 223.123 220.568L227.716 223.22C227.813 223.269 227.921 223.295 228.03 223.295C228.139 223.295 228.247 223.269 228.344 223.22L232.316 220.924C232.483 220.826 232.476 220.666 232.316 220.561L227.723 217.916ZM149.163 261.387L153.134 259.091C153.302 258.993 153.288 258.832 153.134 258.728L148.549 256.075C148.45 256.025 148.341 255.999 148.231 255.999C148.121 255.999 148.012 256.025 147.913 256.075L143.949 258.365C143.781 258.462 143.788 258.623 143.949 258.728L148.542 261.38C148.638 261.429 148.744 261.455 148.851 261.456C148.959 261.458 149.066 261.434 149.163 261.387ZM216.129 224.616C216.031 224.566 215.922 224.54 215.811 224.54C215.701 224.54 215.592 224.566 215.494 224.616L211.494 226.892C211.327 226.99 211.341 227.157 211.494 227.262L216.08 229.907C216.178 229.957 216.287 229.984 216.398 229.984C216.508 229.984 216.617 229.957 216.715 229.907L220.68 227.618C220.847 227.52 220.84 227.353 220.68 227.248L216.129 224.616ZM246.345 207.166C246.247 207.116 246.138 207.09 246.028 207.09C245.917 207.09 245.809 207.116 245.71 207.166L241.746 209.463C241.578 209.561 241.585 209.721 241.746 209.826L246.331 212.478C246.43 212.528 246.539 212.555 246.649 212.555C246.759 212.555 246.868 212.528 246.967 212.478L250.938 210.189C251.106 210.091 251.092 209.93 250.938 209.826L246.345 207.166ZM256.732 206.468L245.564 200.033C245.465 199.983 245.356 199.956 245.246 199.956C245.136 199.956 245.027 199.983 244.928 200.033L240.964 202.322C240.789 202.42 240.803 202.581 240.964 202.685L252.132 209.121C252.23 209.171 252.339 209.197 252.449 209.197C252.56 209.197 252.669 209.171 252.767 209.121L256.732 206.824C256.927 206.741 256.913 206.608 256.732 206.468ZM194.456 237.132C194.358 237.081 194.249 237.055 194.138 237.055C194.028 237.055 193.919 237.081 193.821 237.132L188.935 239.924C188.767 240.021 188.774 240.182 188.935 240.286L193.528 242.939C193.625 242.988 193.733 243.014 193.842 243.014C193.951 243.014 194.059 242.988 194.156 242.939L199.042 240.147C199.209 240.056 199.202 239.889 199.042 239.784L194.456 237.132ZM209.114 228.672C209.016 228.621 208.907 228.595 208.796 228.595C208.686 228.595 208.577 228.621 208.479 228.672L202.371 232.197C202.204 232.294 202.218 232.455 202.371 232.56L206.957 235.212C207.056 235.262 207.164 235.288 207.275 235.288C207.385 235.288 207.494 235.262 207.592 235.212L213.693 231.722C213.86 231.624 213.853 231.457 213.693 231.352L209.114 228.672ZM181.027 244.879C180.929 244.83 180.822 244.805 180.712 244.805C180.603 244.805 180.496 244.83 180.398 244.879L147.732 263.725C147.564 263.823 147.578 263.991 147.732 264.095L152.318 266.741C152.416 266.791 152.525 266.817 152.635 266.817C152.746 266.817 152.855 266.791 152.953 266.741L185.612 247.895C185.78 247.797 185.773 247.636 185.612 247.532L181.027 244.879ZM146.538 264.8C146.44 264.75 146.331 264.724 146.221 264.724C146.11 264.724 146.002 264.75 145.903 264.8L141.017 267.592C140.85 267.69 140.864 267.85 141.017 267.955L145.603 270.608C145.701 270.658 145.81 270.684 145.921 270.684C146.031 270.684 146.14 270.658 146.238 270.608L151.124 267.816C151.292 267.718 151.285 267.557 151.124 267.453L146.538 264.8ZM187.72 241.005C187.623 240.956 187.515 240.931 187.406 240.931C187.297 240.931 187.19 240.956 187.092 241.005L182.206 243.797C182.039 243.895 182.046 244.063 182.206 244.16L186.799 246.813C186.896 246.862 187.004 246.887 187.113 246.887C187.222 246.887 187.33 246.862 187.427 246.813L192.313 244.021C192.481 243.923 192.474 243.762 192.313 243.658L187.72 241.005ZM139.803 268.674C139.704 268.624 139.595 268.598 139.485 268.598C139.375 268.598 139.266 268.624 139.167 268.674L134.281 271.466C134.114 271.564 134.128 271.731 134.281 271.829L138.874 274.481C138.973 274.532 139.081 274.558 139.192 274.558C139.302 274.558 139.411 274.532 139.51 274.481L144.396 271.689C144.563 271.592 144.556 271.431 144.396 271.327L139.803 268.674ZM201.157 233.251C201.059 233.2 200.95 233.174 200.839 233.174C200.729 233.174 200.62 233.2 200.522 233.251L195.636 236.043C195.468 236.14 195.482 236.308 195.636 236.413L200.229 239.058C200.327 239.108 200.436 239.134 200.546 239.134C200.657 239.134 200.765 239.108 200.864 239.058L205.75 236.266C205.917 236.168 205.91 236.008 205.75 235.903L201.157 233.251ZM221.922 221.266C221.825 221.217 221.717 221.191 221.608 221.191C221.499 221.191 221.392 221.217 221.294 221.266L217.323 223.562C217.155 223.653 217.169 223.821 217.323 223.925L221.915 226.571C222.013 226.62 222.12 226.645 222.229 226.645C222.339 226.645 222.446 226.62 222.544 226.571L226.515 224.281C226.683 224.184 226.676 224.023 226.515 223.918L221.922 221.266ZM234.633 212.038L238.598 209.749C238.772 209.651 238.758 209.484 238.598 209.379L234.012 206.734C233.913 206.683 233.805 206.657 233.694 206.657C233.584 206.657 233.475 206.683 233.377 206.734L229.412 209.023C229.244 209.121 229.251 209.288 229.412 209.393L233.998 212.038C234.096 212.089 234.205 212.115 234.315 212.115C234.426 212.115 234.535 212.089 234.633 212.038ZM208.702 211.871L212.674 209.581C212.841 209.484 212.827 209.316 212.674 209.212L208.088 206.566C207.99 206.516 207.881 206.49 207.77 206.49C207.66 206.49 207.551 206.516 207.453 206.566L203.488 208.856C203.321 208.953 203.328 209.121 203.488 209.225L208.074 211.871C208.171 211.92 208.279 211.946 208.388 211.946C208.497 211.946 208.605 211.92 208.702 211.871ZM195.559 234.598L207.16 227.897C207.327 227.799 207.32 227.639 207.16 227.534L202.574 224.882C202.475 224.831 202.367 224.805 202.256 224.805C202.146 224.805 202.037 224.831 201.939 224.882L190.338 231.575C190.17 231.673 190.177 231.834 190.338 231.938L194.931 234.591C195.028 234.641 195.135 234.668 195.244 234.669C195.353 234.67 195.461 234.646 195.559 234.598ZM228.197 215.375C228.296 215.425 228.405 215.451 228.515 215.451C228.625 215.451 228.734 215.425 228.833 215.375L232.804 213.078C232.972 212.988 232.958 212.82 232.804 212.715L228.19 210.098C228.092 210.048 227.983 210.022 227.873 210.022C227.762 210.022 227.654 210.048 227.555 210.098L223.591 212.387C223.423 212.485 223.43 212.646 223.591 212.75L228.197 215.375ZM222.278 211.606L226.25 209.309C226.418 209.212 226.404 209.051 226.25 208.946L221.664 206.294C221.566 206.244 221.457 206.217 221.347 206.217C221.236 206.217 221.127 206.244 221.029 206.294L217.064 208.59C216.897 208.688 216.904 208.849 217.064 208.953L221.65 211.606C221.748 211.655 221.855 211.68 221.964 211.68C222.073 211.68 222.181 211.655 222.278 211.606ZM189.759 237.948L193.73 235.652C193.898 235.554 193.891 235.393 193.73 235.289L189.137 232.636C189.04 232.587 188.932 232.562 188.823 232.562C188.714 232.562 188.607 232.587 188.509 232.636L184.537 234.933C184.37 235.031 184.377 235.191 184.537 235.296L189.13 237.948C189.228 237.997 189.335 238.023 189.444 238.023C189.554 238.023 189.661 237.997 189.759 237.948ZM215.382 222.774C215.48 222.823 215.587 222.848 215.696 222.848C215.805 222.848 215.913 222.823 216.01 222.774L219.982 220.484C220.149 220.386 220.142 220.219 219.982 220.121L215.389 217.469C215.292 217.42 215.184 217.394 215.075 217.394C214.966 217.394 214.858 217.42 214.761 217.469L210.796 219.758C210.629 219.856 210.636 220.024 210.796 220.128L215.382 222.774ZM160.764 254.686L164.728 252.397C164.896 252.299 164.882 252.132 164.728 252.027L160.142 249.381C160.044 249.331 159.935 249.305 159.825 249.305C159.714 249.305 159.606 249.331 159.507 249.381L155.543 251.671C155.375 251.769 155.382 251.936 155.543 252.041L160.128 254.686C160.227 254.736 160.336 254.763 160.446 254.763C160.556 254.763 160.665 254.736 160.764 254.686ZM166.564 251.336L170.529 249.046C170.703 248.949 170.689 248.788 170.529 248.683L165.943 246.031C165.844 245.981 165.736 245.955 165.625 245.955C165.515 245.955 165.406 245.981 165.308 246.031L161.343 248.327C161.168 248.425 161.182 248.586 161.343 248.69L165.929 251.336C166.027 251.386 166.136 251.412 166.246 251.412C166.357 251.412 166.466 251.386 166.564 251.336ZM154.956 258.037L158.928 255.747C159.095 255.649 159.081 255.482 158.928 255.377L154.342 252.732C154.244 252.682 154.135 252.655 154.024 252.655C153.914 252.655 153.805 252.682 153.707 252.732L149.742 255.021C149.575 255.119 149.582 255.28 149.742 255.384L154.328 258.037C154.425 258.086 154.533 258.111 154.642 258.111C154.751 258.111 154.859 258.086 154.956 258.037ZM178.158 244.642L182.122 242.353C182.29 242.255 182.283 242.087 182.122 241.983L177.537 239.337C177.438 239.287 177.329 239.261 177.219 239.261C177.109 239.261 177 239.287 176.901 239.337L172.93 241.627C172.762 241.724 172.776 241.892 172.93 241.99L177.516 244.642C177.616 244.695 177.727 244.722 177.84 244.722C177.953 244.722 178.065 244.695 178.165 244.642H178.158ZM172.357 247.992L176.322 245.696C176.49 245.598 176.483 245.438 176.322 245.333L171.708 242.688C171.61 242.637 171.501 242.611 171.391 242.611C171.28 242.611 171.171 242.637 171.073 242.688L167.115 244.998C166.948 245.096 166.962 245.256 167.115 245.361L171.701 248.013C171.805 248.065 171.92 248.09 172.035 248.087C172.151 248.083 172.264 248.051 172.364 247.992H172.357ZM183.958 241.292L187.923 239.002C188.09 238.904 188.083 238.744 187.923 238.639L183.33 235.987C183.233 235.938 183.125 235.912 183.016 235.912C182.907 235.912 182.799 235.938 182.702 235.987L178.688 238.262C178.521 238.36 178.535 238.528 178.688 238.632L183.274 241.278C183.378 241.34 183.497 241.374 183.618 241.376C183.739 241.379 183.859 241.349 183.965 241.292H183.958ZM210.482 191.734C210.58 191.784 210.689 191.81 210.8 191.81C210.91 191.81 211.019 191.784 211.117 191.734L215.082 189.444C215.25 189.346 215.243 189.186 215.082 189.081L213.86 188.383C213.762 188.333 213.653 188.307 213.543 188.307C213.432 188.307 213.324 188.333 213.225 188.383L209.261 190.673C209.093 190.77 209.1 190.931 209.261 191.036L210.482 191.734ZM181.948 210.147C182.045 210.196 182.153 210.221 182.262 210.221C182.371 210.221 182.479 210.196 182.576 210.147L186.548 207.857C186.715 207.76 186.708 207.599 186.548 207.494L181.955 204.842C181.857 204.793 181.75 204.767 181.641 204.767C181.532 204.767 181.424 204.793 181.327 204.842L177.355 207.131C177.188 207.229 177.195 207.397 177.355 207.501L181.948 210.147ZM193.549 203.453C193.646 203.502 193.754 203.528 193.863 203.528C193.972 203.528 194.079 203.502 194.177 203.453L198.148 201.164C198.316 201.066 198.302 200.898 198.148 200.794L193.563 198.148C193.464 198.098 193.355 198.072 193.245 198.072C193.135 198.072 193.026 198.098 192.927 198.148L188.963 200.438C188.795 200.535 188.802 200.696 188.963 200.801L193.549 203.453ZM174.877 214.286C174.975 214.336 175.084 214.362 175.195 214.362C175.305 214.362 175.414 214.336 175.512 214.286L179.477 211.997C179.645 211.899 179.638 211.731 179.477 211.627L174.891 208.981C174.793 208.931 174.684 208.905 174.574 208.905C174.463 208.905 174.354 208.931 174.256 208.981L170.291 211.271C170.117 211.368 170.131 211.536 170.291 211.641L174.877 214.286ZM187.762 206.831C187.86 206.88 187.967 206.906 188.076 206.906C188.185 206.906 188.293 206.88 188.39 206.831L192.362 204.535C192.53 204.437 192.523 204.277 192.362 204.172L187.769 201.52C187.672 201.47 187.564 201.445 187.455 201.445C187.346 201.445 187.238 201.47 187.141 201.52L183.148 203.816C182.981 203.914 182.988 204.074 183.148 204.179L187.762 206.831ZM163.276 220.966C163.375 221.016 163.484 221.042 163.594 221.042C163.704 221.042 163.813 221.016 163.912 220.966L167.883 218.676C168.051 218.579 168.037 218.418 167.883 218.313L163.297 215.661C163.199 215.611 163.09 215.585 162.98 215.585C162.869 215.585 162.76 215.611 162.662 215.661L158.698 217.957C158.53 218.055 158.537 218.216 158.698 218.32L163.276 220.966ZM169.077 217.615C169.175 217.666 169.284 217.692 169.394 217.692C169.505 217.692 169.614 217.666 169.712 217.615L173.677 215.319C173.851 215.228 173.837 215.061 173.677 214.956L169.091 212.311C168.992 212.26 168.884 212.234 168.773 212.234C168.663 212.234 168.554 212.26 168.456 212.311L164.491 214.6C164.316 214.698 164.33 214.858 164.491 214.963L169.077 217.615ZM198.93 198.455C199.029 198.506 199.137 198.532 199.248 198.532C199.358 198.532 199.467 198.506 199.565 198.455L203.53 196.166C203.698 196.068 203.691 195.901 203.53 195.796L202.309 195.098C202.21 195.048 202.101 195.022 201.991 195.022C201.881 195.022 201.772 195.048 201.673 195.098L197.709 197.394C197.541 197.492 197.548 197.653 197.709 197.757L198.93 198.455ZM216.331 188.411C216.43 188.461 216.539 188.488 216.649 188.488C216.759 188.488 216.868 188.461 216.967 188.411L220.931 186.115C221.099 186.017 221.092 185.856 220.931 185.752L219.71 185.054C219.611 185.003 219.503 184.977 219.392 184.977C219.282 184.977 219.173 185.003 219.075 185.054L215.11 187.343C214.935 187.441 214.949 187.608 215.11 187.713L216.331 188.411ZM225.971 193.995C226.068 194.044 226.176 194.07 226.285 194.07C226.394 194.07 226.502 194.044 226.599 193.995L230.571 191.706C230.738 191.608 230.731 191.44 230.571 191.336L225.978 188.69C225.88 188.641 225.773 188.616 225.664 188.616C225.555 188.616 225.447 188.641 225.35 188.69L221.378 190.98C221.21 191.077 221.217 191.245 221.378 191.35L225.971 193.995ZM240.433 208.702L244.398 206.413C244.572 206.315 244.559 206.154 244.398 206.05L239.812 203.397C239.714 203.347 239.605 203.321 239.495 203.321C239.384 203.321 239.275 203.347 239.177 203.397L235.226 205.659C235.052 205.756 235.066 205.924 235.226 206.029L239.812 208.674C239.906 208.726 240.012 208.756 240.119 208.761C240.227 208.766 240.335 208.746 240.433 208.702ZM204.696 195.119C204.794 195.169 204.903 195.195 205.013 195.195C205.124 195.195 205.233 195.169 205.331 195.119L209.296 192.829C209.463 192.732 209.456 192.564 209.296 192.46L208.074 191.762C207.976 191.711 207.867 191.685 207.756 191.685C207.646 191.685 207.537 191.711 207.439 191.762L203.453 194.044C203.286 194.142 203.293 194.302 203.453 194.407L204.696 195.119ZM157.476 224.323C157.574 224.373 157.683 224.4 157.794 224.4C157.904 224.4 158.013 224.373 158.111 224.323L162.083 222.034C162.25 221.936 162.236 221.775 162.083 221.671L157.497 219.018C157.399 218.968 157.29 218.942 157.179 218.942C157.069 218.942 156.96 218.968 156.862 219.018L152.862 221.266C152.695 221.364 152.702 221.531 152.862 221.636L157.476 224.323Z" fill="#455A64"/>
<path d="M183.197 259.125L222.355 236.517C223.018 236.18 223.751 236.004 224.494 236.004C225.238 236.004 225.971 236.18 226.634 236.517L249.088 249.479C250.268 250.177 250.268 251.266 249.088 251.943L209.924 274.558C209.261 274.892 208.53 275.066 207.788 275.066C207.046 275.066 206.314 274.892 205.652 274.558L183.197 261.589C182.018 260.912 182.018 259.803 183.197 259.125Z" fill="#263238"/>
<path d="M161.378 139.035L167.52 128.341L144.563 115.009C140.717 112.811 135.412 113.139 129.556 116.524C117.732 123.281 108.19 139.781 108.19 153.358C108.19 160.156 110.578 164.93 114.472 167.143L137.618 180.58L143.9 169.593C152.897 162.634 159.989 150.286 161.378 139.035Z" fill="#455A64"/>
<path d="M152.591 129.912C140.836 136.696 131.309 153.197 131.309 166.773C131.309 180.349 140.836 185.842 152.591 179.058C164.345 172.273 173.873 155.766 173.873 142.196C173.873 128.627 164.345 123.12 152.591 129.912Z" fill="#263238"/>
<path d="M174.214 145.882L180.008 135.747L168.547 129.13C164.903 127.036 159.871 127.35 154.321 130.561C143.153 136.989 134.156 152.625 134.156 165.461C134.156 171.903 136.425 176.426 140.082 178.527L151.725 185.249L157.679 174.835C166.174 168.288 172.895 156.561 174.214 145.882Z" fill="#F5F5F5"/>
<path d="M134.756 159.263C134.34 161.312 134.125 163.398 134.114 165.489C134.114 171.931 136.383 176.454 140.04 178.555L151.683 185.277L157.637 174.863C158.216 174.423 158.782 173.949 159.347 173.467L134.756 159.263Z" fill="#EBEBEB"/>
<path d="M165.88 137.255C154.712 143.69 145.715 159.326 145.715 172.19C145.715 185.054 154.747 190.261 165.88 183.832C177.013 177.404 186.052 161.762 186.052 148.932C186.052 136.103 177.02 130.826 165.88 137.255Z" fill="#E0E0E0"/>
<path d="M264.962 217.49C262.512 219.298 257.06 217.86 256.718 217.776C256.983 217.888 261.227 219.87 262.302 224.114C262.693 225.712 261.444 227.604 260.306 228.379C256.544 230.954 250.988 228.295 247.979 226.662C249.189 227.838 250.121 229.268 250.708 230.85C251.253 232.65 250.932 234.633 249.508 235.561C246.444 237.557 242.235 237.718 228.603 229.544C229.121 230.27 229.445 231.115 229.545 232.001C229.552 232.073 229.552 232.146 229.545 232.218C229.549 232.646 229.45 233.07 229.259 233.453C229.149 233.669 229.011 233.868 228.847 234.046C228.326 234.586 227.678 234.987 226.962 235.212C222.342 236.894 209.98 228.93 201.597 223.688C193.214 218.446 181.355 209.979 175.499 204.556C166.914 196.62 168.24 192.864 159.947 186.254C157.458 184.304 154.839 182.524 152.109 180.929C151.865 180.817 148.849 178.946 146.295 177.341C145.905 175.657 145.715 173.932 145.729 172.204C145.727 171.215 145.783 170.226 145.897 169.244C147.111 157.036 155.599 143.216 165.894 137.276C167.585 136.278 169.402 135.512 171.297 135C173.998 136.71 177.774 139.098 178.026 139.265C180.336 140.897 182.811 142.282 185.411 143.397C186.667 143.921 187.888 144.353 189.152 144.751C192.9 145.938 205.324 148.807 212.402 151.424C219.48 154.042 225.999 157.008 228.721 158.746C231.444 160.484 238.842 169.614 243.882 173.425C248.922 177.236 249.466 180.266 245.097 181.103C240.727 181.941 234.375 181.724 229.043 177.753C223.71 173.781 222.014 172.399 220.185 172.525C218.356 172.65 222.377 176.175 224.792 178.423C226.378 179.991 227.848 181.673 229.189 183.455C230.39 184.991 231.709 186.431 233.133 187.762C235.967 190.407 240.762 194.637 245.285 197.422C252.307 201.75 260.453 206.287 263.433 209.051C266.413 211.815 267.495 215.626 264.962 217.49Z" fill="#FFA8A7"/>
<path d="M264.102 215.347C262.399 216.331 260.047 215.968 256.194 214.593C252.341 213.218 243.044 208.381 239.652 206.419C237.718 205.31 230.194 200.912 224.072 197.345C223.991 197.294 223.892 197.276 223.798 197.297C223.704 197.318 223.621 197.376 223.57 197.457C223.518 197.539 223.5 197.637 223.521 197.732C223.542 197.826 223.6 197.908 223.681 197.96C229.049 201.638 235.631 206.105 238.556 207.906C245.103 211.941 250.526 214.607 256.704 217.783C256.704 217.783 262.427 219.367 264.961 217.504C266.594 216.296 266.706 214.279 265.785 212.255C265.775 212.868 265.617 213.469 265.324 214.008C265.031 214.547 264.612 215.006 264.102 215.347Z" fill="#F28F8F"/>
<path d="M259.475 226.941C256.348 227.834 251.099 225.14 249.005 224.065C246.911 222.99 232.385 215.193 229.956 213.735L215.996 205.359C215.916 205.307 215.826 205.271 215.731 205.254C215.637 205.237 215.54 205.239 215.447 205.26C215.353 205.28 215.264 205.319 215.185 205.373C215.107 205.428 215.04 205.498 214.988 205.578C214.936 205.659 214.901 205.749 214.884 205.844C214.867 205.938 214.868 206.035 214.889 206.128C214.909 206.222 214.948 206.311 215.003 206.389C215.057 206.468 215.127 206.535 215.208 206.587C222.376 211.473 231.017 216.268 235.184 218.579C239.616 220.975 243.875 223.679 247.93 226.669C250.938 228.302 256.494 230.968 260.257 228.386C261.401 227.611 262.644 225.719 262.253 224.121C262.274 224.114 262.218 226.152 259.475 226.941Z" fill="#F28F8F"/>
<path d="M249.48 235.547C250.764 234.709 251.148 233.006 250.806 231.359C250.785 232.03 250.523 232.671 250.068 233.165C249.613 233.658 248.995 233.971 248.328 234.046C245.864 234.437 243.637 233.865 240.65 232.811C237.662 231.757 228.393 225.908 225.42 224.274C223.563 223.255 212.758 216.485 204.891 211.536C204.41 211.229 204.319 211.899 204.794 212.234C210.629 216.094 213.812 218.418 216.457 220.275C221.385 223.73 226.145 226.766 228.554 229.544C242.206 237.704 246.394 237.543 249.48 235.547Z" fill="#F28F8F"/>
<path d="M229.53 232.204C229.534 232.632 229.436 233.056 229.244 233.439C229.134 233.654 228.996 233.854 228.832 234.032C228.311 234.572 227.663 234.972 226.948 235.198C222.327 236.88 209.965 228.916 201.582 223.674C193.2 218.432 181.341 209.965 175.484 204.542C166.899 196.606 168.225 192.85 159.933 186.24C157.444 184.289 154.825 182.51 152.094 180.915C151.85 180.803 148.835 178.932 146.28 177.327C145.89 175.642 145.701 173.918 145.715 172.19C145.712 171.201 145.768 170.212 145.882 169.23C153.881 174.186 163.625 179.7 166.773 182.771C166.885 182.883 166.99 182.981 167.087 183.085C171.157 187.141 172.671 191.308 175.463 197.841C178.367 204.542 189.968 211.647 201.569 219.821C213.169 227.995 221.05 232.587 224.777 233.662C225.356 233.841 225.958 233.935 226.564 233.942C227.204 234.004 227.846 233.844 228.381 233.488C228.917 233.131 229.313 232.601 229.502 231.987C229.53 232.043 229.53 232.127 229.53 232.204Z" fill="#F28F8F"/>
<path d="M173.006 136.11L171.282 135.021C169.387 135.533 167.57 136.299 165.88 137.296C155.584 143.202 147.097 157.05 145.882 169.23C145.768 170.212 145.712 171.201 145.715 172.189C145.701 173.918 145.89 175.642 146.28 177.327C148.835 178.932 151.864 180.817 152.094 180.914C153.078 181.508 153.986 182.073 154.837 182.618C154.991 180.182 155.124 177.62 155.214 174.94C156.24 144.723 173.006 136.11 173.006 136.11Z" fill="#F28F8F"/>
<path opacity="0.5" d="M224.791 178.416C222.369 176.161 218.362 172.65 220.191 172.518C216.094 172.72 211.55 177.62 200.221 178.534C188.893 179.449 178.381 174.395 178.381 174.395C178.381 174.395 188.537 180.258 189.982 189.472C190.847 194.951 189.172 200.445 194.826 200.64C200.682 200.842 206.057 197.918 212.848 187.992C218.355 179.944 225.712 179.881 230.012 184.467C229.803 184.181 229.481 183.825 229.188 183.448C227.847 181.666 226.377 179.984 224.791 178.416Z" fill="#F28F8F"/>
<path d="M227.695 191.147C224.756 196.647 211.802 210.44 199.035 213.12C205.684 213.091 212.11 210.718 217.183 206.419C225.908 199.167 227.695 191.147 227.695 191.147Z" fill="#F28F8F"/>
<path d="M241.976 99.4581L244.454 94.2789L232.65 87.4665C231.369 86.7166 229.993 86.1393 228.56 85.7494C228.065 85.6168 227.555 85.5051 227.046 85.4143C224.51 84.9989 221.918 85.0699 219.409 85.6237C218.477 85.8174 217.556 86.0645 216.652 86.3636C215.684 86.6786 214.734 87.0444 213.804 87.4595C212.551 88.0094 211.332 88.6341 210.154 89.3301C208.841 90.0968 207.569 90.9308 206.343 91.829C205.412 92.5223 204.481 93.2552 203.551 94.0277C190.079 105.398 179.484 125.682 176.796 145.184C176.61 146.51 176.464 147.832 176.357 149.149C176.196 151.033 176.119 152.904 176.126 154.733C176.126 156.247 176.189 157.713 176.308 159.123C176.406 160.345 176.545 161.531 176.72 162.676C176.894 163.821 177.111 164.91 177.355 165.971C178.009 168.896 179.071 171.716 180.51 174.347C180.796 174.87 181.103 175.373 181.417 175.854C182.701 177.854 184.326 179.612 186.219 181.047C186.787 181.466 187.379 181.85 187.992 182.199L199.202 188.662L201.471 183.923C202.078 183.79 202.685 183.637 203.3 183.448C205.795 182.678 208.192 181.617 210.44 180.286C211.887 179.434 213.285 178.502 214.628 177.494C216.435 176.139 218.155 174.673 219.779 173.104C231.024 162.285 239.875 145.359 243.113 128.509C243.597 126.037 243.954 123.542 244.181 121.033C244.363 118.939 244.461 116.915 244.454 114.891C244.461 111.973 244.228 109.059 243.756 106.18C243.368 103.89 242.772 101.64 241.976 99.4581Z" fill="#BA68C8"/>
<path opacity="0.25" d="M179.268 133.646L202.232 146.908L205.135 138.532L182.143 125.27C181.054 128.006 180.084 130.812 179.268 133.646Z" fill="white"/>
<path opacity="0.25" d="M232.651 87.4665C231.369 86.7166 229.993 86.1393 228.56 85.7494C228.065 85.6168 227.555 85.5051 227.046 85.4143C224.51 84.9989 221.919 85.0699 219.41 85.6237C219.075 85.6935 218.712 85.7773 218.397 85.868L241.997 99.493C241.994 99.4745 241.994 99.4557 241.997 99.4372L244.475 94.258L232.651 87.4665Z" fill="white"/>
<path opacity="0.25" d="M231.241 120.168L234.144 116.678L200.18 97.1338C199.133 98.1761 198.107 99.2673 197.102 100.407L231.241 120.168Z" fill="white"/>
<path opacity="0.25" d="M190.093 109.747L219.639 126.806L222.787 118.576L195.209 102.648C193.376 104.92 191.668 107.289 190.093 109.747Z" fill="white"/>
<path opacity="0.4" d="M232.65 87.4665C231.368 86.7166 229.993 86.1393 228.56 85.7494C228.064 85.6168 227.554 85.5051 227.045 85.4143C224.509 84.9989 221.918 85.0699 219.409 85.6237C218.476 85.8174 217.556 86.0645 216.652 86.3636C215.684 86.6786 214.733 87.0444 213.804 87.4595C212.551 88.0094 211.332 88.6341 210.153 89.3301C208.841 90.0968 207.569 90.9308 206.342 91.829C205.412 92.5223 204.481 93.2552 203.55 94.0277C190.986 104.616 180.956 122.925 177.459 141.129L224.337 168.218C233.411 157.546 240.328 143.006 243.113 128.516C243.597 126.044 243.953 123.549 244.181 121.04C244.362 118.946 244.46 116.922 244.453 114.898C244.461 111.98 244.227 109.066 243.755 106.187C243.375 103.895 242.786 101.643 241.996 99.4581L244.474 94.2789L232.65 87.4665Z" fill="white"/>
<path opacity="0.1" d="M199.202 188.663L201.471 183.923C202.078 183.79 202.685 183.637 203.299 183.448C205.795 182.678 208.192 181.617 210.44 180.287C211.886 179.434 213.285 178.502 214.628 177.495C216.434 176.139 218.155 174.673 219.779 173.104C221.381 171.554 222.902 169.924 224.337 168.218L177.459 141.15C177.199 142.49 176.966 143.83 176.761 145.17C176.557 146.51 176.41 147.832 176.322 149.135C176.161 151.019 176.084 152.89 176.091 154.719C176.091 156.233 176.154 157.699 176.273 159.109C176.37 160.331 176.51 161.517 176.685 162.662C176.859 163.807 177.075 164.896 177.32 165.957C177.974 168.882 179.036 171.702 180.475 174.333C180.761 174.856 181.068 175.359 181.382 175.84C182.666 177.84 184.291 179.598 186.184 181.033C186.752 181.452 187.344 181.836 187.957 182.185L199.202 188.663Z" fill="black"/>
<path opacity="0.1" d="M180.51 174.332C180.796 174.856 181.103 175.359 181.417 175.84C182.701 177.84 184.327 179.598 186.22 181.033C186.787 181.452 187.379 181.836 187.993 182.185L199.202 188.648L201.471 183.909H201.562L201.729 181.969L177.99 168.218C178.606 170.342 179.45 172.392 180.51 174.332Z" fill="black"/>
<path d="M255.335 112.881C254.856 109.902 254.002 106.997 252.794 104.232C251.352 100.782 249.062 97.7521 246.136 95.4236C244.356 94.0523 242.323 93.0464 240.154 92.4641C239.658 92.3315 239.149 92.2268 238.639 92.136C236.104 91.7147 233.512 91.7834 231.003 92.3385C230.071 92.5354 229.15 92.7848 228.246 93.0853C227.28 93.3967 226.332 93.7602 225.405 94.1742C224.152 94.7296 222.931 95.3541 221.747 96.0448C220.434 96.813 219.162 97.6495 217.936 98.5507C217.001 99.2487 216.066 99.9467 215.144 100.742C201.673 112.113 191.077 132.376 188.39 151.864C188.199 153.199 188.053 154.521 187.95 155.829C187.792 157.69 187.715 159.551 187.72 161.413C187.72 162.92 187.79 164.386 187.901 165.796C187.999 167.024 188.139 168.204 188.313 169.349C188.488 170.494 188.704 171.589 188.955 172.65C189.609 175.575 190.669 178.395 192.103 181.026C192.397 181.543 192.697 182.045 193.011 182.527C194.293 184.53 195.921 186.288 197.82 187.72C200.566 189.787 203.872 190.977 207.306 191.133C209.873 191.249 212.441 190.914 214.893 190.142C217.39 189.375 219.787 188.313 222.034 186.98C223.481 186.129 224.879 185.197 226.222 184.188C228.03 182.835 229.75 181.369 231.373 179.798C242.618 168.979 251.468 152.052 254.714 135.21C255.179 132.701 255.533 130.207 255.775 127.727C255.963 125.633 256.054 123.609 256.047 121.585C256.053 118.669 255.815 115.757 255.335 112.881Z" fill="#BA68C8"/>
<path opacity="0.05" d="M189.067 147.823C188.809 149.17 188.579 150.517 188.369 151.864C188.16 153.211 188.034 154.516 187.93 155.829C187.772 157.69 187.695 159.551 187.699 161.413C187.699 162.92 187.769 164.386 187.881 165.796C187.979 167.024 188.118 168.204 188.293 169.349C188.467 170.494 188.684 171.589 188.935 172.65C189.589 175.575 190.648 178.395 192.083 181.026C192.376 181.543 192.676 182.045 192.99 182.527C194.272 184.53 195.901 186.288 197.799 187.72C200.551 189.791 203.866 190.981 207.306 191.133C209.874 191.249 212.442 190.914 214.893 190.142C217.39 189.375 219.787 188.313 222.034 186.98C223.297 186.24 224.533 185.417 225.761 184.523L189.067 147.823Z" fill="black"/>
<path opacity="0.05" d="M189.598 175.031C190.217 177.116 191.06 179.128 192.11 181.033C192.404 181.55 192.704 182.052 193.018 182.534C194.3 184.537 195.928 186.295 197.827 187.727C200.08 189.419 202.719 190.522 205.505 190.938L189.598 175.031Z" fill="black"/>
<path opacity="0.25" d="M193.737 131.964C192.641 134.714 191.685 137.548 190.868 140.34L230.836 180.307L231.38 179.798C233.104 178.122 234.735 176.353 236.266 174.5L193.737 131.964Z" fill="white"/>
<path opacity="0.25" d="M206.803 109.349C204.982 111.619 203.286 113.986 201.722 116.441L245.696 160.415C247.092 157.748 248.425 154.956 249.597 152.164L206.803 109.349Z" fill="white"/>
<path opacity="0.25" d="M211.794 103.821C210.74 104.868 209.7 105.97 208.695 107.115L250.757 149.177C251.343 147.606 251.895 146.022 252.397 144.416L211.794 103.821Z" fill="white"/>
<path opacity="0.25" d="M255.956 118.555C255.914 117.739 255.844 116.943 255.768 116.161C255.768 115.903 255.719 115.638 255.691 115.386C255.663 115.135 255.628 114.856 255.593 114.591C255.516 114.011 255.432 113.439 255.335 112.881C254.855 109.902 254.002 106.997 252.794 104.232C251.352 100.782 249.061 97.7521 246.135 95.4236C244.356 94.0523 242.323 93.0464 240.153 92.4641C239.658 92.3315 239.155 92.2268 238.639 92.136C236.104 91.7147 233.512 91.7834 231.002 92.3385C230.667 92.4083 230.304 92.499 229.983 92.5828L255.956 118.555Z" fill="white"/>
<path d="M247.35 126.82C247.35 144.8 236.88 165.566 223.618 174.395C223.06 174.765 222.487 175.128 221.908 175.456C207.85 183.574 196.459 174.961 196.459 156.212C196.459 137.464 207.85 115.687 221.908 107.569C222.487 107.241 223.06 106.941 223.618 106.661C236.866 100.177 247.35 108.839 247.35 126.82Z" fill="#BA68C8"/>
<path opacity="0.4" d="M247.35 126.82C247.35 144.8 236.88 165.566 223.618 174.395C223.06 174.765 222.487 175.128 221.908 175.456C207.85 183.574 196.459 174.961 196.459 156.212C196.459 137.464 207.85 115.687 221.908 107.569C222.487 107.241 223.06 106.941 223.618 106.661C236.866 100.177 247.35 108.839 247.35 126.82Z" fill="black"/>
<path d="M246.219 127.476C246.219 128.048 246.219 128.635 246.177 129.221C245.535 145.973 235.77 164.777 223.52 172.93L223.192 173.146C222.759 173.425 222.326 173.697 221.887 173.949C219.547 175.366 216.953 176.315 214.251 176.741C208.541 177.522 203.781 175.017 200.807 169.9C199.076 166.892 197.966 162.983 197.659 158.3C197.596 157.42 197.568 156.513 197.568 155.577C197.568 154.642 197.568 153.853 197.645 152.981C197.747 151.128 197.953 149.283 198.259 147.453C200.409 134.505 207.333 121.292 216.1 113.362C217.323 112.254 218.62 111.23 219.981 110.298C220.609 109.872 221.245 109.467 221.887 109.098C222.529 108.728 222.99 108.49 223.52 108.225L223.981 108.016C227.624 106.32 231.03 105.831 234.039 106.41C239.155 107.394 243.113 111.478 244.99 117.997C245.841 121.084 246.254 124.274 246.219 127.476Z" fill="#BA68C8"/>
<path opacity="0.7" d="M246.219 127.476C246.219 128.048 246.219 128.635 246.177 129.221C245.535 145.973 235.77 164.777 223.52 172.93L223.192 173.146C222.759 173.425 222.326 173.697 221.887 173.949C219.547 175.366 216.953 176.315 214.251 176.741C208.541 177.522 203.781 175.017 200.807 169.9C199.076 166.892 197.966 162.983 197.659 158.3C197.596 157.42 197.568 156.513 197.568 155.577C197.568 154.642 197.568 153.853 197.645 152.981C197.747 151.128 197.953 149.283 198.259 147.453C200.409 134.505 207.333 121.292 216.1 113.362C217.323 112.254 218.62 111.23 219.981 110.298C220.609 109.872 221.245 109.467 221.887 109.098C222.529 108.728 222.99 108.49 223.52 108.225L223.981 108.016C227.624 106.32 231.03 105.831 234.039 106.41C239.155 107.394 243.113 111.478 244.99 117.997C245.841 121.084 246.254 124.274 246.219 127.476Z" fill="black"/>
<path d="M242.143 126.876C242.143 126.289 242.143 125.703 242.143 125.124C242.182 121.92 241.771 118.727 240.922 115.638C239.819 111.834 238.011 108.867 235.687 106.85C235.137 106.66 234.575 106.508 234.005 106.396C230.996 105.817 227.59 106.306 223.946 108.002L223.486 108.211C222.955 108.476 222.404 108.77 221.852 109.084C221.301 109.398 220.575 109.858 219.947 110.284C218.585 111.216 217.289 112.24 216.066 113.348C207.306 121.278 200.41 134.491 198.232 147.439C197.925 149.269 197.72 151.114 197.618 152.967C197.562 153.839 197.541 154.698 197.541 155.563C197.541 156.429 197.541 157.406 197.632 158.286C197.939 162.969 199.028 166.878 200.78 169.886C201.621 171.368 202.704 172.699 203.984 173.823C205.976 174.496 208.101 174.688 210.182 174.382C212.886 173.952 215.481 173.004 217.825 171.59C218.265 171.338 218.697 171.066 219.123 170.787L219.458 170.57C231.736 162.425 241.508 143.635 242.143 126.876Z" fill="#BA68C8"/>
<path opacity="0.6" d="M242.143 126.876C242.143 126.289 242.143 125.703 242.143 125.124C242.182 121.92 241.771 118.727 240.922 115.638C239.819 111.834 238.011 108.867 235.687 106.85C235.137 106.66 234.575 106.508 234.005 106.396C230.996 105.817 227.59 106.306 223.946 108.002L223.486 108.211C222.955 108.476 222.404 108.77 221.852 109.084C221.301 109.398 220.575 109.858 219.947 110.284C218.585 111.216 217.289 112.24 216.066 113.348C207.306 121.278 200.41 134.491 198.232 147.439C197.925 149.269 197.72 151.114 197.618 152.967C197.562 153.839 197.541 154.698 197.541 155.563C197.541 156.429 197.541 157.406 197.632 158.286C197.939 162.969 199.028 166.878 200.78 169.886C201.621 171.368 202.704 172.699 203.984 173.823C205.976 174.496 208.101 174.688 210.182 174.382C212.886 173.952 215.481 173.004 217.825 171.59C218.265 171.338 218.697 171.066 219.123 170.787L219.458 170.57C231.736 162.425 241.508 143.635 242.143 126.876Z" fill="black"/>
<path d="M238.639 92.136C236.462 91.7973 234.244 91.8256 232.077 92.2198C231.003 92.4322 229.941 92.7001 228.895 93.0225C228.63 93.0903 228.369 93.1719 228.113 93.2668L227.352 93.5669L225.816 94.1742C223.81 95.0516 221.885 96.1051 220.065 97.3221C219.15 97.9434 218.257 98.5437 217.412 99.2486C216.568 99.9536 215.653 100.603 214.872 101.343C214.09 102.083 213.217 102.801 212.45 103.576C211.682 104.351 210.9 105.119 210.167 105.935L208.003 108.385L205.909 110.982L203.969 113.634C203.334 114.528 202.747 115.456 202.133 116.364C200.961 118.213 199.816 120.084 198.79 122.017L198.001 123.462L197.303 124.935C196.814 125.919 196.312 126.889 195.907 127.902C194.993 129.891 194.176 131.929 193.373 133.967L192.277 137.066C191.928 138.106 191.628 139.16 191.3 140.207C190.972 141.254 190.728 142.301 190.435 143.376C190.142 144.451 189.918 145.47 189.688 146.573L189.346 148.185L189.074 149.805C188.899 150.894 188.697 151.948 188.599 153.05C188.501 154.153 188.341 155.242 188.243 156.324C188.145 157.406 188.083 158.509 188.048 159.598C188.048 160.149 188.048 160.694 188.013 161.245C187.978 161.796 188.048 162.334 188.062 162.878C188.11 163.974 188.117 165.098 188.201 166.159L188.564 169.426L189.171 172.664C189.806 175.559 190.827 178.355 192.208 180.977C192.578 181.606 192.941 182.269 193.345 182.883C193.75 183.497 194.197 184.098 194.665 184.67C195.604 185.821 196.675 186.859 197.854 187.762C196.652 186.882 195.555 185.866 194.588 184.733C194.106 184.167 193.646 183.581 193.192 182.967C192.738 182.353 192.403 181.71 191.998 181.075C190.541 178.465 189.456 175.665 188.774 172.755V172.706V172.741L188.124 169.502L187.713 166.215C187.608 165.084 187.594 164.009 187.531 162.906C187.531 162.348 187.475 161.817 187.461 161.245C187.447 160.673 187.461 160.135 187.461 159.584C187.461 158.481 187.538 157.378 187.615 156.275C187.692 155.172 187.845 154.084 187.957 152.981C188.069 151.878 188.25 150.782 188.425 149.7L188.69 148.067L189.025 146.447C189.248 145.365 189.472 144.284 189.765 143.216C190.058 142.148 190.281 141.066 190.623 140.019C190.965 138.972 191.244 137.925 191.593 136.85L192.689 133.723L193.904 130.645C194.295 129.612 194.79 128.62 195.23 127.608C195.67 126.596 196.179 125.612 196.668 124.628L197.408 123.141L198.231 121.661C199.278 119.714 200.437 117.829 201.631 115.973C202.245 115.058 202.845 114.13 203.487 113.23L205.456 110.563L207.55 107.995C208.248 107.157 209.022 106.347 209.762 105.531C210.502 104.714 211.326 103.96 212.101 103.171C212.875 102.383 213.741 101.699 214.558 100.959C215.374 100.219 216.282 99.5627 217.147 98.8996C218.016 98.2129 218.92 97.5722 219.855 96.9801C221.707 95.7656 223.673 94.7347 225.726 93.9019L227.268 93.3226L228.043 93.0364C228.306 92.9476 228.574 92.8731 228.846 92.8131C229.906 92.5072 230.983 92.2602 232.07 92.0732C234.248 91.7256 236.468 91.7468 238.639 92.136Z" fill="#F5F5F5"/>
<g opacity="0.9">
<mask id="mask0_118_3481" style="mask-type:luminance" maskUnits="userSpaceOnUse" x="210" y="125" width="13" height="20">
<path d="M210.872 125.1H222.568V144.48H210.872V125.1Z" fill="white"/>
</mask>
<g mask="url(#mask0_118_3481)">
<path d="M222.499 125.12V138.926L210.964 144.345L210.925 144.322L212.119 142.34L222.499 125.12Z" fill="#BA68C8"/>
</g>
<mask id="mask1_118_3481" style="mask-type:luminance" maskUnits="userSpaceOnUse" x="210" y="146" width="13" height="18">
<path d="M210.801 146.384H222.568V163.146H210.801V146.384Z" fill="white"/>
</mask>
<g mask="url(#mask1_118_3481)">
<path d="M222.498 153.442V163.125L210.801 146.436L222.498 153.442Z" fill="#BA68C8"/>
</g>
<path d="M222.498 138.926V151.254L212.365 145.185L210.963 144.345L222.498 138.926Z" fill="#A85EB4"/>
<mask id="mask2_118_3481" style="mask-type:luminance" maskUnits="userSpaceOnUse" x="222" y="125" width="13" height="20">
<path d="M222.432 125.1H234.128V144.48H222.432V125.1Z" fill="white"/>
</mask>
<g mask="url(#mask2_118_3481)">
<path d="M234.073 144.322L234.035 144.345L222.498 138.926V125.12L232.879 142.34L234.073 144.322Z" fill="#A85EB4"/>
</g>
<path d="M234.035 144.345L232.631 145.185L222.498 151.254V138.926L234.035 144.345Z" fill="#B163BE"/>
<mask id="mask3_118_3481" style="mask-type:luminance" maskUnits="userSpaceOnUse" x="222" y="146" width="13" height="18">
<path d="M222.432 146.384H234.158V163.146H222.432V146.384Z" fill="white"/>
</mask>
<g mask="url(#mask3_118_3481)">
<path d="M234.198 146.436L222.5 163.127L222.498 163.125V153.442L234.198 146.436Z" fill="#A85EB4"/>
</g>
</g>
</svg>
