<svg width="407" height="407" viewBox="0 0 407 407" fill="none" xmlns="http://www.w3.org/2000/svg">
<path d="M287.235 125.138C295.385 124.741 301.614 116.676 301.149 107.125C300.683 97.5747 293.699 90.1542 285.55 90.5514C277.4 90.9485 271.17 99.013 271.636 108.564C272.101 118.115 279.085 125.535 287.235 125.138Z" fill="#EBEBEB"/>
<path d="M298.584 107.261C298.966 115.157 293.822 121.823 287.082 122.157C280.342 122.491 274.571 116.345 274.188 108.449C273.805 100.553 278.95 93.8868 285.69 93.5612C292.43 93.2356 298.201 99.365 298.584 107.261Z" fill="#E0E0E0"/>
<path d="M287.603 115.303L287.717 117.647L286.251 117.721L286.137 115.401C284.51 115.42 282.925 114.883 281.644 113.879L282.344 111.722C283.379 112.568 284.656 113.064 285.991 113.138L285.787 108.954C283.777 108.482 281.62 107.839 281.473 104.925C281.375 102.792 282.605 100.855 285.372 100.415L285.258 98.0463L286.723 97.9812L286.837 100.301C288.146 100.309 289.425 100.69 290.525 101.4L289.89 103.549C288.999 102.994 287.989 102.657 286.943 102.564L287.155 106.789C289.157 107.261 291.355 107.888 291.502 110.794C291.632 112.926 290.386 114.839 287.603 115.303ZM285.714 106.422L285.535 102.694C285.047 102.74 284.596 102.973 284.277 103.346C283.958 103.718 283.796 104.199 283.826 104.689C283.858 105.69 284.648 106.113 285.714 106.422ZM289.271 111.095C289.222 110.069 288.408 109.63 287.326 109.32L287.505 113.024C288.783 112.731 289.296 111.99 289.255 111.095H289.271Z" fill="#EBEBEB"/>
<path d="M101.472 282.345C109.622 281.948 115.852 273.884 115.386 264.333C114.921 254.782 107.937 247.361 99.7869 247.759C91.637 248.156 85.4076 256.22 85.873 265.771C86.3385 275.322 93.3225 282.742 101.472 282.345Z" fill="#EBEBEB"/>
<path d="M112.829 264.461C113.211 272.356 108.059 279.023 101.327 279.349C94.5951 279.674 88.8157 273.545 88.4331 265.649C88.0505 257.753 93.195 251.086 99.9268 250.753C106.659 250.419 112.438 256.565 112.829 264.461Z" fill="#E0E0E0"/>
<path d="M101.84 272.503L101.954 274.847L100.489 274.92L100.375 272.592C98.761 272.605 97.1909 272.068 95.9223 271.07L96.6224 268.921C97.658 269.766 98.9345 270.262 100.269 270.337L100.066 266.145C98.055 265.681 95.8898 265.03 95.7514 262.124C95.6456 259.983 96.8747 258.054 99.6505 257.606L99.5284 255.246L100.994 255.173L101.108 257.501C102.417 257.504 103.697 257.886 104.795 258.6L104.168 260.748C103.277 260.191 102.268 259.851 101.221 259.755L101.425 263.988C103.436 264.452 105.633 265.079 105.772 267.993C105.878 270.126 104.624 272.031 101.84 272.503ZM99.9435 263.614L99.7563 259.894C99.2705 259.941 98.8218 260.174 98.5034 260.544C98.185 260.914 98.0215 261.393 98.0469 261.88C98.0957 262.922 98.8853 263.313 99.9435 263.614ZM103.501 268.286C103.444 267.26 102.638 266.821 101.547 266.52L101.751 270.248C103.02 269.93 103.541 269.19 103.501 268.286Z" fill="#EBEBEB"/>
<path d="M320.299 191.294C324.023 184.035 320.146 174.611 311.638 170.246C303.13 165.881 293.214 168.228 289.489 175.488C285.765 182.748 289.642 192.171 298.15 196.536C306.658 200.901 316.574 198.554 320.299 191.294Z" fill="#EBEBEB"/>
<path d="M317.626 189.923C320.704 183.924 317.499 176.135 310.467 172.528C303.435 168.92 295.24 170.859 292.161 176.859C289.083 182.859 292.288 190.647 299.32 194.255C306.352 197.863 314.548 195.923 317.626 189.923Z" fill="#E0E0E0"/>
<path d="M311.974 186.08L314.058 187.147L313.391 188.457L311.323 187.391C310.526 188.793 309.274 189.882 307.774 190.476L306.26 188.848C307.508 188.373 308.575 187.519 309.313 186.406L305.584 184.493C304.168 185.999 302.532 187.554 299.935 186.219C298.039 185.242 296.98 183.215 297.973 180.594L295.865 179.511L296.541 178.209L298.608 179.267C299.27 178.139 300.238 177.221 301.4 176.622L302.947 178.25C302.021 178.745 301.224 179.45 300.619 180.309L304.388 182.238C305.796 180.732 307.432 179.145 310.029 180.472C311.925 181.392 312.959 183.427 311.974 186.08ZM303.33 183.288L300.008 181.587C299.815 182.028 299.797 182.527 299.959 182.981C300.121 183.435 300.45 183.81 300.879 184.029C301.775 184.517 302.532 184.045 303.33 183.288ZM309.15 182.539C308.238 182.067 307.448 182.539 306.643 183.353L309.939 185.046C310.33 183.769 309.947 182.955 309.15 182.539Z" fill="#EBEBEB"/>
<path d="M259.723 160.195C259.932 163.66 259.106 167.109 257.35 170.104C255.594 173.099 252.988 175.504 249.862 177.014C246.736 178.525 243.232 179.071 239.795 178.586C236.358 178.1 233.142 176.603 230.557 174.286C227.973 171.968 226.135 168.935 225.278 165.571C224.421 162.207 224.584 158.664 225.745 155.392C226.906 152.121 229.013 149.268 231.799 147.197C234.585 145.126 237.924 143.93 241.392 143.761C243.675 143.635 245.96 143.961 248.117 144.719C250.274 145.478 252.26 146.653 253.962 148.18C255.665 149.706 257.05 151.553 258.038 153.614C259.027 155.676 259.599 157.912 259.723 160.195Z" fill="#EBEBEB"/>
<path d="M256.695 160.358C256.868 163.222 256.185 166.073 254.734 168.548C253.282 171.023 251.128 173.011 248.544 174.259C245.961 175.508 243.065 175.96 240.224 175.558C237.382 175.157 234.725 173.92 232.588 172.005C230.452 170.09 228.932 167.583 228.224 164.802C227.515 162.022 227.649 159.094 228.608 156.389C229.567 153.685 231.309 151.327 233.611 149.615C235.913 147.902 238.673 146.913 241.538 146.772C243.426 146.669 245.315 146.938 247.098 147.565C248.881 148.192 250.523 149.164 251.931 150.426C253.338 151.687 254.483 153.214 255.301 154.918C256.118 156.622 256.592 158.471 256.695 160.358Z" fill="#E0E0E0"/>
<path d="M243.606 168.498L243.72 170.842L241.986 170.932L241.872 168.604C240.008 168.646 238.174 168.13 236.605 167.122L237.419 164.965C238.701 165.817 240.195 166.297 241.734 166.349L241.53 162.165C239.153 161.709 236.597 161.082 236.451 158.168C236.353 156.036 237.826 154.098 241.107 153.626L240.993 151.257L242.727 151.176L242.841 153.496C244.361 153.485 245.86 153.852 247.204 154.562L246.439 156.719C245.357 156.161 244.17 155.834 242.955 155.759L243.158 159.983C245.535 160.431 248.132 161.042 248.27 163.948C248.408 166.056 246.911 167.993 243.606 168.498ZM241.433 159.625L241.253 155.905C239.764 156.207 239.161 156.988 239.21 157.916C239.259 158.844 240.195 159.324 241.433 159.617V159.625ZM245.608 164.273C245.559 163.248 244.599 162.808 243.313 162.515L243.492 166.219C245.014 165.909 245.649 165.161 245.608 164.265V164.273Z" fill="#EBEBEB"/>
<path d="M161.601 254.86C171.255 254.389 178.704 246.265 178.239 236.715C177.773 227.164 169.57 219.803 159.916 220.273C150.262 220.744 142.813 228.867 143.278 238.418C143.744 247.969 151.947 255.33 161.601 254.86Z" fill="#EBEBEB"/>
<path d="M161.463 251.86C169.447 251.471 175.607 244.756 175.222 236.862C174.838 228.968 168.054 222.884 160.07 223.273C152.086 223.662 145.926 230.377 146.311 238.271C146.696 246.165 153.479 252.249 161.463 251.86Z" fill="#E0E0E0"/>
<path d="M162.133 245.014L162.247 247.358L160.513 247.44L160.399 245.12C158.535 245.162 156.701 244.646 155.133 243.638L155.947 241.473C157.225 242.333 158.721 242.813 160.261 242.857L160.058 238.673C157.681 238.225 155.125 237.59 154.978 234.684C154.881 232.552 156.354 230.614 159.634 230.134L159.52 227.773L161.254 227.684L161.368 230.012C162.889 229.998 164.389 230.364 165.731 231.078L164.966 233.227C163.883 232.672 162.697 232.345 161.482 232.267L161.686 236.491C164.062 236.947 166.659 237.558 166.797 240.464C166.936 242.572 165.438 244.517 162.133 245.014ZM159.96 236.141L159.781 232.413C158.291 232.722 157.697 233.504 157.738 234.424C157.778 235.344 158.731 235.848 159.96 236.141ZM164.136 240.781C164.087 239.755 163.126 239.324 161.84 239.031L162.027 242.735C163.558 242.425 164.176 241.685 164.136 240.781Z" fill="#EBEBEB"/>
<path d="M92.7831 204.983C101.28 200.375 104.472 189.826 99.9142 181.42C95.3559 173.015 84.7728 169.935 76.2762 174.543C67.7795 179.151 64.5868 189.7 69.1451 198.106C73.7033 206.511 84.2864 209.591 92.7831 204.983Z" fill="#EBEBEB"/>
<path d="M97.2566 182.849C98.6508 185.357 99.268 188.223 99.0296 191.082C98.7913 193.942 97.7084 196.666 95.9183 198.909C94.1282 201.152 91.7118 202.812 88.9762 203.678C86.2405 204.544 83.3091 204.578 80.5543 203.774C77.7995 202.971 75.3458 201.367 73.5048 199.166C71.6639 196.964 70.5188 194.266 70.2151 191.412C69.9114 188.559 70.4628 185.679 71.7992 183.14C73.1356 180.601 75.1967 178.516 77.7206 177.151C81.0674 175.318 85.0046 174.889 88.6675 175.958C92.3305 177.026 95.4196 179.504 97.2566 182.849Z" fill="#E0E0E0"/>
<path d="M88.9952 195.865L90.1185 197.932L88.5882 198.746L87.4812 196.703C85.8206 197.552 83.9428 197.881 82.0925 197.647L81.9215 195.335C83.4424 195.556 84.9945 195.341 86.3985 194.717L84.4042 191.029C82.0681 191.656 79.5202 192.193 78.1039 189.637C77.0864 187.757 77.5748 185.372 80.3261 183.516L79.2028 181.44L80.725 180.626L81.832 182.67C83.1978 182.001 84.7082 181.682 86.2276 181.742L86.4718 184.013C85.2546 183.982 84.0439 184.2 82.9146 184.656L84.9333 188.376C87.2695 187.757 89.8743 187.179 91.2581 189.735C92.2756 191.607 91.7628 193.984 88.9952 195.865ZM83.1914 188.848L81.4169 185.592C80.204 186.512 80.0086 187.48 80.4482 188.286C80.8878 189.092 81.946 189.084 83.1914 188.848ZM88.9626 191.217C88.4742 190.321 87.4242 190.337 86.1381 190.631L87.9126 193.887C89.158 192.918 89.3941 191.982 88.9626 191.184V191.217Z" fill="#EBEBEB"/>
<path d="M144.632 169.646C145.702 171.899 146.077 174.421 145.711 176.888C145.345 179.356 144.254 181.66 142.576 183.506C140.898 185.352 138.709 186.658 136.287 187.258C133.865 187.857 131.32 187.723 128.974 186.873C126.629 186.023 124.589 184.494 123.114 182.482C121.639 180.47 120.795 178.065 120.69 175.572C120.585 173.079 121.223 170.611 122.524 168.482C123.824 166.353 125.728 164.659 127.994 163.614C129.482 162.917 131.093 162.52 132.735 162.446C134.377 162.372 136.017 162.623 137.562 163.183C139.108 163.743 140.527 164.602 141.74 165.711C142.953 166.82 143.936 168.157 144.632 169.646Z" fill="#EBEBEB"/>
<path d="M137.485 184.259C142.705 181.859 145.013 175.728 142.639 170.565C140.265 165.402 134.11 163.162 128.889 165.562C123.669 167.962 121.362 174.093 123.735 179.256C126.109 184.419 132.265 186.659 137.485 184.259Z" fill="#E0E0E0"/>
<path d="M136.11 179.495L136.81 181.025L135.678 181.546L134.978 180.032C133.747 180.559 132.387 180.706 131.071 180.456V178.787C132.157 179.018 133.286 178.936 134.327 178.551L133.041 175.824C131.34 176.166 129.468 176.426 128.588 174.522C127.945 173.13 128.409 171.445 130.477 170.24L129.761 168.693L130.9 168.172L131.592 169.695C132.604 169.279 133.703 169.122 134.791 169.239L134.856 170.867C133.986 170.783 133.107 170.88 132.276 171.152L133.546 173.919C135.255 173.585 137.144 173.292 138.023 175.197C138.666 176.638 138.177 178.266 136.11 179.495ZM132.284 174.163L131.161 171.721C130.249 172.324 130.062 173.008 130.347 173.602C130.632 174.196 131.372 174.302 132.284 174.196V174.163ZM136.305 176.141C135.996 175.466 135.247 175.433 134.311 175.58L135.426 178.022C136.362 177.387 136.574 176.727 136.305 176.141Z" fill="#EBEBEB"/>
<path d="M306.471 277.843C307.537 280.096 307.909 282.616 307.539 285.081C307.17 287.546 306.076 289.846 304.397 291.689C302.719 293.531 300.53 294.833 298.109 295.429C295.689 296.025 293.146 295.889 290.803 295.037C288.461 294.185 286.424 292.656 284.952 290.644C283.48 288.632 282.639 286.229 282.536 283.738C282.433 281.247 283.072 278.782 284.373 276.656C285.674 274.529 287.577 272.837 289.841 271.795C291.33 271.098 292.942 270.703 294.584 270.63C296.226 270.557 297.866 270.809 299.41 271.371C300.955 271.932 302.374 272.793 303.585 273.904C304.797 275.014 305.778 276.353 306.471 277.843Z" fill="#EBEBEB"/>
<path d="M299.349 292.446C304.569 290.044 306.874 283.912 304.499 278.75C302.123 273.588 295.967 271.35 290.747 273.752C285.528 276.154 283.223 282.285 285.598 287.447C287.973 292.61 294.13 294.847 299.349 292.446Z" fill="#E0E0E0"/>
<path d="M297.924 287.692L298.632 289.222L297.501 289.751L296.801 288.229C295.567 288.756 294.204 288.903 292.885 288.652V286.984C293.971 287.216 295.101 287.135 296.141 286.748L294.888 284.013C293.178 284.355 291.306 284.615 290.435 282.71C289.792 281.318 290.256 279.633 292.316 278.429L291.607 276.89L292.739 276.361L293.439 277.883C294.448 277.466 295.545 277.31 296.63 277.427L296.703 279.055C295.832 278.97 294.952 279.07 294.123 279.348L295.393 282.108C297.094 281.774 298.99 281.481 299.861 283.386C300.504 284.794 300.024 286.479 297.924 287.692ZM294.098 282.36L292.975 279.918C292.063 280.521 291.876 281.204 292.161 281.807C292.446 282.409 293.211 282.499 294.123 282.36H294.098ZM298.128 284.338C297.818 283.663 297.061 283.63 296.125 283.777L297.24 286.219C298.209 285.584 298.421 284.9 298.152 284.338H298.128Z" fill="#EBEBEB"/>
<path d="M220.855 287.44C221.922 289.695 222.295 292.216 221.926 294.683C221.557 297.15 220.464 299.452 218.784 301.296C217.104 303.141 214.914 304.444 212.492 305.041C210.07 305.638 207.525 305.502 205.181 304.65C202.836 303.798 200.798 302.268 199.325 300.255C197.851 298.242 197.01 295.836 196.906 293.344C196.803 290.851 197.443 288.384 198.744 286.256C200.046 284.128 201.951 282.435 204.217 281.392C207.225 279.988 210.668 279.836 213.788 280.97C216.909 282.104 219.45 284.432 220.855 287.44Z" fill="#EBEBEB"/>
<path d="M213.708 302.066C218.928 299.666 221.235 293.535 218.862 288.372C216.488 283.209 210.332 280.969 205.112 283.369C199.892 285.769 197.584 291.9 199.958 297.063C202.332 302.226 208.487 304.466 213.708 302.066Z" fill="#E0E0E0"/>
<path d="M212.332 297.297L213.032 298.827L211.901 299.348L211.201 297.826C209.971 298.357 208.609 298.504 207.294 298.249V296.621C208.379 296.851 209.507 296.772 210.55 296.393L209.288 293.658C207.587 293.992 205.715 294.261 204.835 292.356C204.192 290.956 204.656 289.271 206.724 288.074L206.008 286.528L207.147 286.007L207.847 287.521C208.857 287.109 209.953 286.952 211.038 287.065L211.103 288.693C210.232 288.612 209.354 288.712 208.523 288.986L209.793 291.746C211.502 291.412 213.391 291.119 214.27 293.024C214.896 294.391 214.4 296.076 212.332 297.297ZM208.507 291.957L207.383 289.515C206.472 290.118 206.284 290.801 206.569 291.404C206.854 292.006 207.57 292.096 208.507 291.957ZM212.528 293.935C212.218 293.268 211.47 293.235 210.533 293.382L211.649 295.824C212.585 295.189 212.796 294.521 212.528 293.935Z" fill="#EBEBEB"/>
<path d="M222.166 78.5184C223.154 80.605 223.499 82.9382 223.158 85.2216C222.818 87.505 221.806 89.6357 220.252 91.3431C218.698 93.0505 216.672 94.2576 214.431 94.8112C212.189 95.3647 209.834 95.2398 207.664 94.4522C205.494 93.6646 203.606 92.2499 202.242 90.3876C200.877 88.5254 200.097 86.2997 200 83.9931C199.902 81.6864 200.493 79.4029 201.696 77.4325C202.899 75.4621 204.66 73.8936 206.757 72.9262C208.135 72.2794 209.628 71.9111 211.149 71.8422C212.67 71.7733 214.19 72.0052 215.622 72.5247C217.053 73.0442 218.368 73.841 219.491 74.8695C220.614 75.898 221.523 77.138 222.166 78.5184Z" fill="#EBEBEB"/>
<path d="M220.333 79.365C221.148 81.0894 221.431 83.0169 221.148 84.9027C220.865 86.7885 220.027 88.5477 218.742 89.9567C217.458 91.3658 215.783 92.3612 213.931 92.8166C212.079 93.2721 210.134 93.1669 208.342 92.5146C206.55 91.8623 204.992 90.6921 203.867 89.1528C202.741 87.6135 202.098 85.7743 202.02 83.869C201.941 81.9636 202.431 80.0779 203.427 78.4513C204.422 76.8248 205.878 75.5307 207.611 74.7334C208.75 74.2019 209.983 73.9001 211.239 73.8453C212.495 73.7904 213.75 73.9836 214.931 74.4137C216.113 74.8438 217.198 75.5024 218.125 76.352C219.052 77.2016 219.802 78.2254 220.333 79.365Z" fill="#E0E0E0"/>
<path d="M214.285 87.6351L214.937 89.0596L213.887 89.5399L213.235 88.1317C212.098 88.6249 210.838 88.7611 209.621 88.5224V86.9839C210.623 87.1949 211.664 87.1187 212.625 86.7641L211.461 84.2326C209.882 84.5501 208.148 84.7943 207.342 83.0279C206.748 81.7418 207.179 80.1789 209.084 79.0718L208.384 77.6392L209.434 77.1589L210.085 78.559C211.02 78.1776 212.035 78.0322 213.04 78.1357L213.097 79.6579C212.292 79.582 211.48 79.6734 210.712 79.9265L211.884 82.4825C213.463 82.1732 215.222 81.9046 216.027 83.6628C216.646 84.9571 216.198 86.5118 214.285 87.6351ZM210.745 82.7023L209.703 80.4475C208.889 81.0092 208.685 81.6359 208.937 82.1976C209.19 82.7593 209.898 82.8244 210.745 82.7023ZM214.464 84.5338C214.18 83.9151 213.488 83.8826 212.617 84.021L213.65 86.2595C214.521 85.6897 214.717 85.0792 214.464 84.5338Z" fill="#EBEBEB"/>
<path d="M186.031 131.155C190.748 128.689 192.23 122.21 189.341 116.684C186.452 111.158 180.286 108.678 175.569 111.144C170.852 113.61 169.37 120.089 172.259 125.615C175.148 131.14 181.314 133.621 186.031 131.155Z" fill="#EBEBEB"/>
<path d="M187.855 117.444C190.248 122.019 189.027 127.375 185.128 129.41C181.229 131.445 176.133 129.41 173.732 124.827C171.331 120.244 172.568 114.904 176.467 112.861C180.366 110.818 185.47 112.877 187.855 117.444Z" fill="#E0E0E0"/>
<path d="M183.557 125.218L184.265 126.569L183.451 127.017L182.751 125.673C181.796 126.121 180.717 126.232 179.69 125.991L179.52 124.526C180.365 124.742 181.257 124.685 182.067 124.363L180.797 121.921C179.479 122.198 178.022 122.401 177.143 120.716C176.79 120.078 176.706 119.326 176.907 118.626C177.108 117.925 177.58 117.333 178.217 116.98L177.501 115.612L178.315 115.173L179.015 116.516C179.792 116.165 180.653 116.04 181.498 116.158L181.717 117.599C181.036 117.516 180.344 117.594 179.699 117.826L180.977 120.268C182.295 120 183.769 119.764 184.648 121.449C184.824 121.768 184.936 122.118 184.977 122.481C185.018 122.843 184.987 123.21 184.886 123.56C184.784 123.91 184.615 124.237 184.387 124.521C184.159 124.806 183.877 125.042 183.557 125.218ZM180 120.472L178.868 118.315C178.6 118.478 178.403 118.736 178.317 119.038C178.231 119.34 178.262 119.663 178.404 119.943C178.706 120.545 179.292 120.586 180 120.472ZM183.386 122.271C183.077 121.677 182.474 121.636 181.758 121.75L182.881 123.899C183.16 123.745 183.368 123.49 183.462 123.187C183.556 122.883 183.529 122.555 183.386 122.271Z" fill="#EBEBEB"/>
<path d="M135.368 87.0979L137.989 88.2457C145.454 91.5017 148.392 101.27 144.55 110.028C140.708 118.787 131.526 123.231 124.07 119.951L121.457 118.844C113.984 115.588 111.046 105.82 114.888 97.0532C118.73 88.2864 127.904 83.8419 135.368 87.0979Z" fill="#E0E0E0"/>
<path d="M114.888 97.0125C111.046 105.763 113.984 115.523 121.457 118.803C128.93 122.084 138.095 117.639 141.937 108.881C145.779 100.122 142.841 90.354 135.368 87.098C127.896 83.842 118.73 88.2539 114.888 97.0125Z" fill="#EBEBEB"/>
<path d="M139.59 107.861C142.767 100.625 140.336 92.5607 134.162 89.8502C127.987 87.1397 120.406 90.809 117.229 98.0457C114.053 105.282 116.483 113.346 122.658 116.057C128.832 118.767 136.413 115.098 139.59 107.861Z" fill="#E0E0E0"/>
<path d="M126.171 110.159L125.235 112.332L123.892 111.738L124.828 109.613C123.375 108.903 122.207 107.72 121.515 106.26L123.102 104.632C123.65 105.849 124.571 106.861 125.731 107.521L127.416 103.687C125.829 102.369 124.16 100.822 125.357 98.1603C126.211 96.1985 128.173 95.0264 130.851 95.8566L131.804 93.6914L133.147 94.2775L132.211 96.4102C133.378 97.0009 134.353 97.9131 135.019 99.0394L133.497 100.667C132.951 99.7698 132.201 99.014 131.307 98.4614L129.606 102.344C131.193 103.655 132.862 105.201 131.706 107.863C130.851 109.833 128.881 110.981 126.171 110.159ZM128.426 101.359L129.931 97.9405C129.472 97.7607 128.96 97.7663 128.505 97.9561C128.049 98.1459 127.685 98.5051 127.489 98.958C127.115 99.8859 127.628 100.61 128.434 101.359H128.426ZM129.524 107.122C129.94 106.186 129.41 105.429 128.572 104.68L127.082 108.075C128.385 108.376 129.174 107.953 129.533 107.122H129.524Z" fill="#EBEBEB"/>
<path d="M341.775 216.972L343.59 217.786C348.775 220.057 350.818 226.829 348.157 232.91C345.495 238.99 339.121 242.067 333.936 239.796L332.121 238.982C326.936 236.703 324.893 229.93 327.563 223.858C330.232 217.786 336.59 214.692 341.775 216.972Z" fill="#E0E0E0"/>
<path d="M327.563 223.85C324.893 229.922 326.936 236.695 332.121 238.974C337.306 241.253 343.672 238.16 346.333 232.088C348.995 226.015 346.96 219.235 341.775 216.964C336.59 214.693 330.224 217.778 327.563 223.85Z" fill="#EBEBEB"/>
<path d="M329.182 224.566C326.976 229.597 328.669 235.189 332.951 237.077C337.232 238.966 342.507 236.41 344.713 231.379C346.919 226.349 345.226 220.757 340.944 218.876C336.663 216.996 331.388 219.544 329.182 224.566Z" fill="#E0E0E0"/>
<path d="M335.368 232.983L334.717 234.473L333.781 234.066L334.432 232.584C333.425 232.092 332.615 231.27 332.137 230.256L333.236 229.133C333.618 229.98 334.259 230.684 335.067 231.143L336.231 228.482C335.132 227.57 333.984 226.495 334.798 224.648C334.941 224.289 335.153 223.962 335.422 223.686C335.692 223.41 336.013 223.189 336.368 223.038C336.723 222.887 337.104 222.807 337.49 222.804C337.876 222.801 338.259 222.874 338.616 223.02L339.275 221.514L340.212 221.921L339.56 223.402C340.374 223.809 341.052 224.442 341.514 225.226L340.456 226.365C340.072 225.746 339.551 225.222 338.934 224.835L337.81 227.562C338.909 228.473 340.081 229.54 339.267 231.396C339.119 231.758 338.899 232.088 338.622 232.365C338.344 232.642 338.014 232.861 337.651 233.009C337.288 233.156 336.899 233.23 336.507 233.226C336.115 233.221 335.728 233.139 335.368 232.983ZM336.939 226.87L337.981 224.501C337.665 224.377 337.312 224.381 336.999 224.514C336.685 224.646 336.436 224.896 336.304 225.209C336.044 225.844 336.402 226.357 336.996 226.87H336.939ZM337.704 230.875C337.989 230.223 337.623 229.694 337.045 229.173L336.003 231.526C336.319 231.667 336.677 231.677 337 231.555C337.323 231.433 337.585 231.189 337.729 230.875H337.704Z" fill="#EBEBEB"/>
<path d="M240.57 217.338L243.183 218.486C250.656 221.742 253.594 231.51 249.752 240.276C245.91 249.043 236.728 253.471 229.264 250.191L226.651 249.084C219.186 245.828 216.24 236.06 220.082 227.293C223.924 218.526 233.098 214.082 240.57 217.338Z" fill="#E0E0E0"/>
<path d="M220.082 227.269C216.24 236.027 219.186 245.779 226.651 249.059C234.115 252.34 243.297 247.895 247.139 239.145C250.981 230.394 248.043 220.594 240.57 217.338C233.098 214.082 223.932 218.51 220.082 227.269Z" fill="#EBEBEB"/>
<path d="M222.426 228.294C219.251 235.539 221.685 243.598 227.855 246.308C234.025 249.019 241.612 245.348 244.794 238.111C247.977 230.875 245.543 222.808 239.365 220.097C233.187 217.387 225.608 221.058 222.426 228.294Z" fill="#E0E0E0"/>
<path d="M231.371 240.415L230.427 242.572L229.084 241.986L230.02 239.853C228.57 239.14 227.402 237.958 226.707 236.5L228.294 234.872C228.846 236.089 229.77 237.101 230.932 237.761L232.617 233.927C231.029 232.609 229.361 231.07 230.549 228.4C231.412 226.439 233.374 225.266 236.052 226.097L237.004 223.931L238.347 224.517L237.411 226.65C238.579 227.241 239.553 228.153 240.219 229.279L238.697 230.907C238.153 230.008 237.399 229.254 236.499 228.71L234.798 232.584C236.426 233.895 238.054 235.441 236.906 238.103C236.06 240.13 234.082 241.237 231.371 240.415ZM233.618 231.616L235.116 228.197C234.655 228.015 234.142 228.021 233.686 228.213C233.23 228.404 232.866 228.767 232.674 229.222C232.307 230.142 232.804 230.875 233.618 231.616ZM234.717 237.379C235.132 236.443 234.603 235.686 233.764 234.937L232.275 238.331C233.618 238.64 234.375 238.209 234.733 237.379H234.717Z" fill="#EBEBEB"/>
<path d="M285.543 90.5656L282.694 90.704C274.554 91.1029 268.311 99.1615 268.783 108.718C269.255 118.274 276.231 125.682 284.379 125.291L287.228 125.152C295.368 124.754 301.603 116.687 301.139 107.139C300.675 97.5905 293.691 90.1668 285.543 90.5656Z" fill="#E0E0E0"/>
<path d="M99.7888 247.757L96.9317 247.895C88.7917 248.294 82.5564 256.361 83.0204 265.909C83.4844 275.458 90.4685 282.881 98.6166 282.482L101.474 282.344C109.614 281.945 115.849 273.886 115.385 264.33C114.921 254.774 107.937 247.358 99.7888 247.757Z" fill="#E0E0E0"/>
<path d="M289.508 175.507L288.205 178.046C284.477 185.307 288.36 194.725 296.866 199.088C305.372 203.451 315.287 201.115 319.015 193.854C319.113 193.659 320.212 191.51 320.317 191.314C324.037 184.054 320.163 174.636 311.656 170.264C303.15 165.893 293.236 168.246 289.508 175.507Z" fill="#E0E0E0"/>
<path d="M175.564 111.127L173.936 111.99C169.215 114.432 167.741 120.944 170.631 126.463C173.521 131.982 179.683 134.473 184.396 132.006L186.024 131.144C190.737 128.702 192.218 122.19 189.329 116.671C186.439 111.152 180.285 108.661 175.564 111.127Z" fill="#E0E0E0"/>
<path d="M178.513 134.725L177.699 134.726L177.809 239.366L178.623 239.365L178.513 134.725Z" fill="#407BFF"/>
<path d="M331.372 147.114L254.213 140.602L178.079 135.124C177.992 135.116 177.909 135.08 177.844 135.022C177.778 134.963 177.733 134.885 177.716 134.799C177.699 134.713 177.71 134.624 177.747 134.544C177.785 134.465 177.847 134.4 177.925 134.359L250.981 97.0044C251.042 96.9701 251.111 96.9521 251.181 96.9521C251.25 96.9521 251.319 96.9701 251.38 97.0044L331.583 146.333C331.663 146.379 331.723 146.451 331.755 146.538C331.786 146.624 331.786 146.719 331.754 146.805C331.734 146.892 331.686 146.969 331.616 147.026C331.547 147.082 331.461 147.113 331.372 147.114ZM179.593 134.424L254.245 139.78L329.703 146.154L251.152 97.8428L179.593 134.424Z" fill="#407BFF"/>
<path d="M320.618 268.522L319.918 268.156L200.895 204.77L200.838 204.623L177.721 134.855L178.494 134.603L201.563 204.208L319.601 267.057L308.807 187.147L253.822 140.391L253.805 140.22L250.761 97.4113L251.575 97.3462L254.603 139.984L309.572 186.723L309.589 186.878L320.618 268.522Z" fill="#407BFF"/>
<path d="M320.033 268.189L178.137 239.764C178.072 239.75 178.011 239.722 177.96 239.68C177.909 239.638 177.869 239.584 177.843 239.523C177.818 239.462 177.807 239.396 177.813 239.33C177.819 239.264 177.84 239.201 177.876 239.145L200.888 204.265C200.955 204.174 201.054 204.11 201.165 204.086L308.922 186.561L331.014 146.52L331.73 146.919L309.541 187.147C309.511 187.202 309.47 187.249 309.419 187.284C309.368 187.319 309.309 187.342 309.248 187.35L201.466 204.868L178.885 239.056L320.188 267.358L320.033 268.189Z" fill="#407BFF"/>
<path d="M253.941 139.702L200.701 204.218L201.329 204.736L254.569 140.22L253.941 139.702Z" fill="#407BFF"/>
<g opacity="0.4">
<path d="M178.513 134.725L177.699 134.726L177.809 239.366L178.623 239.365L178.513 134.725Z" fill="white"/>
<path d="M331.372 147.114L254.213 140.602L178.079 135.124C177.992 135.116 177.909 135.08 177.844 135.022C177.778 134.963 177.733 134.885 177.716 134.799C177.699 134.713 177.71 134.624 177.747 134.544C177.785 134.465 177.847 134.4 177.925 134.359L250.981 97.0044C251.042 96.9701 251.111 96.9521 251.181 96.9521C251.25 96.9521 251.319 96.9701 251.38 97.0044L331.583 146.333C331.663 146.379 331.723 146.451 331.755 146.538C331.786 146.624 331.786 146.719 331.754 146.805C331.734 146.892 331.686 146.969 331.616 147.026C331.547 147.082 331.461 147.113 331.372 147.114ZM179.593 134.424L254.245 139.78L329.703 146.154L251.152 97.8428L179.593 134.424Z" fill="white"/>
<path d="M320.618 268.522L319.918 268.156L200.895 204.77L200.838 204.623L177.721 134.855L178.494 134.603L201.563 204.208L319.601 267.057L308.807 187.147L253.822 140.391L253.805 140.22L250.761 97.4113L251.575 97.3462L254.603 139.984L309.572 186.723L309.589 186.878L320.618 268.522Z" fill="white"/>
<path d="M320.033 268.189L178.137 239.764C178.072 239.75 178.011 239.722 177.96 239.68C177.909 239.638 177.869 239.584 177.843 239.523C177.818 239.462 177.807 239.396 177.813 239.33C177.819 239.264 177.84 239.201 177.876 239.145L200.888 204.265C200.955 204.174 201.054 204.11 201.165 204.086L308.922 186.561L331.014 146.52L331.73 146.919L309.541 187.147C309.511 187.202 309.47 187.249 309.419 187.284C309.368 187.319 309.309 187.342 309.248 187.35L201.466 204.868L178.885 239.056L320.188 267.358L320.033 268.189Z" fill="white"/>
<path d="M253.941 139.702L200.701 204.218L201.329 204.736L254.569 140.22L253.941 139.702Z" fill="white"/>
</g>
<path d="M202.605 204.493C202.605 204.815 202.509 205.13 202.33 205.397C202.151 205.665 201.897 205.874 201.6 205.997C201.302 206.12 200.975 206.153 200.659 206.09C200.343 206.027 200.053 205.872 199.825 205.644C199.598 205.416 199.443 205.126 199.38 204.811C199.317 204.495 199.349 204.167 199.473 203.87C199.596 203.573 199.804 203.318 200.072 203.139C200.34 202.96 200.655 202.865 200.977 202.865C201.408 202.865 201.822 203.037 202.128 203.342C202.433 203.647 202.605 204.061 202.605 204.493Z" fill="#407BFF"/>
<path d="M254.254 141.571C255.135 141.571 255.849 140.856 255.849 139.975C255.849 139.094 255.135 138.38 254.254 138.38C253.372 138.38 252.658 139.094 252.658 139.975C252.658 140.856 253.372 141.571 254.254 141.571Z" fill="#407BFF"/>
<path d="M308.954 188.701C309.835 188.701 310.549 187.987 310.549 187.106C310.549 186.225 309.835 185.51 308.954 185.51C308.073 185.51 307.358 186.225 307.358 187.106C307.358 187.987 308.073 188.701 308.954 188.701Z" fill="#407BFF"/>
<path d="M330.028 259.495V283.98H306.935V254.049H324.59L330.028 259.495Z" fill="#C847FF"/>
<path d="M333.284 257.053V281.538H310.19V251.607H327.846L333.284 257.053Z" fill="#C847FF"/>
<path opacity="0.7" d="M333.284 257.053V281.538H310.19V251.607H327.846L333.284 257.053Z" fill="white"/>
<path d="M333.284 257.053H327.847V251.607L333.284 257.053Z" fill="#C847FF"/>
<path opacity="0.4" d="M333.284 257.053H327.847V251.607L333.284 257.053Z" fill="white"/>
<g opacity="0.2">
<path d="M328.554 258.893H314.92V259.707H328.554V258.893Z" fill="black"/>
<path d="M328.554 262.531H314.92V263.345H328.554V262.531Z" fill="black"/>
<path d="M328.554 266.162H314.92V266.976H328.554V266.162Z" fill="black"/>
<path d="M328.554 269.8H314.92V270.614H328.554V269.8Z" fill="black"/>
<path d="M325.298 273.439H314.92V274.253H325.298V273.439Z" fill="black"/>
</g>
<path d="M342.165 134.635H320.578C318.051 134.635 316.003 136.684 316.003 139.21V154.204C316.003 156.731 318.051 158.779 320.578 158.779H342.165C344.691 158.779 346.74 156.731 346.74 154.204V139.21C346.74 136.684 344.691 134.635 342.165 134.635Z" fill="#C847FF"/>
<path d="M324.68 141.571V151.835L338.062 146.699L324.68 141.571Z" fill="white"/>
<path d="M264.59 83.9478H237.736V110.802H264.59V83.9478Z" fill="#C847FF"/>
<path opacity="0.7" d="M264.59 83.9478H237.736V110.802H264.59V83.9478Z" fill="white"/>
<path d="M255.595 91.8273L252.421 90.1993L251.191 89.5481V101.587C250.701 101.355 250.163 101.238 249.62 101.245C248.074 101.245 246.82 102.141 246.82 103.248C246.82 104.355 248.074 105.25 249.62 105.25C251.167 105.25 252.421 104.355 252.429 103.248V93.5286L255.603 95.01L255.595 91.8273Z" fill="#C847FF"/>
<path d="M196.458 120.309H159.747V149.141H196.458V120.309Z" fill="#C847FF"/>
<path opacity="0.7" d="M196.458 120.309H159.747V149.141H196.458V120.309Z" fill="white"/>
<path d="M194.024 146.699V122.751H162.197V146.699H194.024Z" fill="#C847FF"/>
<path opacity="0.4" d="M162.189 141.978L171.664 135.45L176.605 139.951L187.977 131.689L194.017 136.833V146.699H162.189V141.978Z" fill="white"/>
<path d="M173.487 129.703C173.487 130.308 173.308 130.9 172.972 131.403C172.635 131.906 172.157 132.299 171.598 132.53C171.039 132.762 170.423 132.823 169.83 132.705C169.236 132.586 168.691 132.295 168.263 131.867C167.835 131.439 167.543 130.894 167.425 130.3C167.307 129.706 167.368 129.091 167.599 128.531C167.831 127.972 168.223 127.494 168.726 127.158C169.23 126.822 169.822 126.642 170.427 126.642C171.239 126.642 172.017 126.965 172.591 127.539C173.165 128.113 173.487 128.891 173.487 129.703Z" fill="white"/>
<path d="M192.917 223.532H162.881V253.569H192.917V223.532Z" fill="#C847FF"/>
<path opacity="0.7" d="M192.917 223.532H162.881V253.569H192.917V223.532Z" fill="white"/>
<path d="M190.134 241.009V226.235H165.657V241.009H190.134Z" fill="#C847FF"/>
<path opacity="0.4" d="M165.656 239.194L172.942 234.171L176.743 237.639L185.485 231.282L190.133 235.238V241.009H165.656V239.194Z" fill="white"/>
<path d="M174.342 229.751C174.342 230.217 174.204 230.671 173.945 231.058C173.687 231.445 173.319 231.747 172.889 231.925C172.46 232.103 171.987 232.149 171.53 232.059C171.074 231.968 170.655 231.744 170.326 231.415C169.997 231.086 169.773 230.667 169.682 230.21C169.591 229.754 169.638 229.281 169.816 228.851C169.994 228.421 170.295 228.054 170.682 227.795C171.069 227.537 171.524 227.399 171.989 227.399C172.613 227.399 173.211 227.647 173.653 228.088C174.094 228.529 174.342 229.127 174.342 229.751Z" fill="white"/>
<path d="M175.074 247.546H176.287V250.297C175.508 250.88 174.558 251.19 173.585 251.176C173.104 251.199 172.623 251.124 172.172 250.956C171.721 250.788 171.309 250.53 170.96 250.198C170.612 249.865 170.334 249.466 170.145 249.023C169.955 248.581 169.857 248.104 169.857 247.623C169.857 247.141 169.955 246.665 170.145 246.222C170.334 245.78 170.612 245.38 170.96 245.048C171.309 244.716 171.721 244.458 172.172 244.29C172.623 244.122 173.104 244.047 173.585 244.07C174.101 244.047 174.616 244.135 175.095 244.329C175.574 244.523 176.006 244.817 176.36 245.193L175.546 246.007C175.303 245.747 175.008 245.54 174.68 245.4C174.352 245.26 173.998 245.189 173.642 245.193C172.994 245.193 172.373 245.45 171.915 245.908C171.457 246.366 171.2 246.987 171.2 247.635C171.2 248.283 171.457 248.904 171.915 249.362C172.373 249.82 172.994 250.077 173.642 250.077C174.14 250.084 174.631 249.961 175.066 249.719L175.074 247.546Z" fill="#C847FF"/>
<path d="M177.973 244.2H179.251V251.111H177.973V244.2Z" fill="#C847FF"/>
<path d="M182.392 245.25V247.35H185.73V248.433H182.392V251.078H181.114V244.2H186.153V245.283L182.392 245.25Z" fill="#C847FF"/>
<path d="M229.857 183.15C229.546 183.15 229.248 183.026 229.028 182.807C228.808 182.587 228.685 182.289 228.685 181.978V126.553C228.687 126.242 228.811 125.945 229.03 125.726C229.25 125.507 229.547 125.383 229.857 125.38C230.168 125.38 230.466 125.504 230.686 125.724C230.905 125.944 231.029 126.242 231.029 126.553V181.962C231.032 182.117 231.004 182.272 230.947 182.416C230.889 182.561 230.803 182.693 230.694 182.803C230.585 182.914 230.454 183.002 230.31 183.061C230.167 183.121 230.012 183.151 229.857 183.15Z" fill="#407BFF"/>
<path d="M229.857 268.392C229.547 268.39 229.25 268.266 229.03 268.046C228.811 267.827 228.687 267.53 228.685 267.22V211.811C228.685 211.5 228.808 211.202 229.028 210.982C229.248 210.762 229.546 210.639 229.857 210.639C230.011 210.638 230.164 210.667 230.307 210.726C230.449 210.784 230.579 210.871 230.688 210.98C230.797 211.089 230.883 211.218 230.942 211.361C231 211.504 231.03 211.657 231.029 211.811V267.22C231.029 267.374 230.999 267.526 230.94 267.668C230.881 267.811 230.794 267.94 230.686 268.049C230.577 268.158 230.448 268.244 230.305 268.303C230.163 268.362 230.011 268.392 229.857 268.392Z" fill="#407BFF"/>
<path d="M248.888 167.774C248.578 167.771 248.281 167.647 248.061 167.428C247.842 167.209 247.718 166.912 247.716 166.601V111.192C247.716 110.882 247.839 110.583 248.059 110.364C248.279 110.144 248.577 110.02 248.888 110.02C249.042 110.019 249.195 110.049 249.338 110.107C249.481 110.166 249.61 110.252 249.719 110.361C249.828 110.47 249.915 110.6 249.973 110.743C250.032 110.885 250.061 111.038 250.06 111.192V166.601C250.06 166.755 250.03 166.908 249.971 167.05C249.912 167.192 249.826 167.321 249.717 167.43C249.608 167.539 249.479 167.625 249.337 167.684C249.194 167.743 249.042 167.774 248.888 167.774Z" fill="#407BFF"/>
<path d="M268.522 198.559C268.368 198.56 268.215 198.53 268.072 198.472C267.929 198.413 267.8 198.327 267.691 198.218C267.581 198.109 267.495 197.979 267.437 197.837C267.378 197.694 267.349 197.541 267.35 197.387V141.978C267.35 141.667 267.473 141.369 267.693 141.149C267.913 140.929 268.211 140.806 268.522 140.806C268.832 140.808 269.129 140.932 269.348 141.151C269.568 141.371 269.692 141.668 269.694 141.978V197.387C269.694 197.698 269.57 197.996 269.351 198.216C269.131 198.435 268.833 198.559 268.522 198.559Z" fill="#407BFF"/>
<path d="M282.295 311.941C281.984 311.941 281.686 311.818 281.466 311.598C281.247 311.378 281.123 311.08 281.123 310.769V255.36C281.125 255.05 281.249 254.753 281.469 254.533C281.688 254.314 281.985 254.19 282.295 254.188C282.606 254.188 282.904 254.311 283.124 254.531C283.344 254.751 283.467 255.049 283.467 255.36V310.769C283.468 310.923 283.439 311.076 283.38 311.219C283.322 311.361 283.236 311.491 283.126 311.6C283.017 311.709 282.888 311.796 282.745 311.854C282.602 311.913 282.449 311.942 282.295 311.941Z" fill="#407BFF"/>
<path d="M282.295 235.572C281.985 235.57 281.688 235.445 281.469 235.226C281.249 235.007 281.125 234.71 281.123 234.399V227.887C281.125 227.577 281.249 227.28 281.469 227.061C281.688 226.842 281.985 226.717 282.295 226.715C282.606 226.715 282.904 226.839 283.124 227.059C283.344 227.278 283.467 227.577 283.467 227.887V234.399C283.467 234.71 283.344 235.009 283.124 235.228C282.904 235.448 282.606 235.572 282.295 235.572Z" fill="#407BFF"/>
<path d="M265.722 258.632C265.412 258.63 265.115 258.506 264.895 258.287C264.676 258.067 264.552 257.77 264.55 257.46V250.948C264.552 250.638 264.676 250.341 264.895 250.122C265.115 249.902 265.412 249.778 265.722 249.776C266.033 249.776 266.331 249.899 266.551 250.119C266.771 250.339 266.894 250.637 266.894 250.948V257.46C266.894 257.771 266.771 258.069 266.551 258.289C266.331 258.509 266.033 258.632 265.722 258.632Z" fill="#407BFF"/>
<path d="M248.888 212.56C248.578 212.558 248.281 212.434 248.061 212.214C247.842 211.995 247.718 211.698 247.716 211.388V204.876C247.718 204.566 247.842 204.269 248.061 204.049C248.281 203.83 248.578 203.706 248.888 203.704C249.199 203.704 249.497 203.827 249.717 204.047C249.937 204.267 250.06 204.565 250.06 204.876V211.388C250.06 211.699 249.937 211.997 249.717 212.217C249.497 212.436 249.199 212.56 248.888 212.56Z" fill="#407BFF"/>
<path d="M218.42 156.532C218.266 156.533 218.113 156.504 217.97 156.445C217.828 156.387 217.698 156.3 217.589 156.191C217.48 156.082 217.394 155.953 217.335 155.81C217.277 155.667 217.247 155.514 217.248 155.36V148.848C217.247 148.694 217.277 148.541 217.335 148.398C217.394 148.255 217.48 148.126 217.589 148.017C217.698 147.908 217.828 147.821 217.97 147.763C218.113 147.704 218.266 147.675 218.42 147.676C218.574 147.675 218.727 147.704 218.87 147.763C219.013 147.821 219.142 147.908 219.251 148.017C219.361 148.126 219.447 148.255 219.505 148.398C219.564 148.541 219.593 148.694 219.592 148.848V155.36C219.593 155.514 219.564 155.667 219.505 155.81C219.447 155.953 219.361 156.082 219.251 156.191C219.142 156.3 219.013 156.387 218.87 156.445C218.727 156.504 218.574 156.533 218.42 156.532Z" fill="#407BFF"/>
<path d="M248.888 240.48C248.577 240.48 248.279 240.357 248.059 240.137C247.839 239.917 247.716 239.619 247.716 239.308V232.796C247.716 232.485 247.839 232.187 248.059 231.967C248.279 231.747 248.577 231.624 248.888 231.624C249.043 231.623 249.196 231.653 249.34 231.712C249.483 231.771 249.613 231.858 249.722 231.968C249.831 232.078 249.917 232.208 249.975 232.352C250.034 232.495 250.062 232.649 250.06 232.804V239.316C250.06 239.47 250.03 239.622 249.971 239.763C249.912 239.905 249.825 240.034 249.716 240.142C249.607 240.25 249.478 240.336 249.336 240.394C249.194 240.452 249.042 240.481 248.888 240.48Z" fill="#407BFF"/>
<path d="M264.55 303.297C264.24 303.294 263.943 303.17 263.724 302.951C263.504 302.731 263.38 302.435 263.378 302.124V295.612C263.38 295.302 263.504 295.005 263.724 294.786C263.943 294.566 264.24 294.442 264.55 294.44C264.861 294.44 265.159 294.564 265.379 294.783C265.599 295.003 265.722 295.301 265.722 295.612V302.124C265.722 302.435 265.599 302.733 265.379 302.953C265.159 303.173 264.861 303.297 264.55 303.297Z" fill="#407BFF"/>
<path d="M282.295 181.074C281.984 181.074 281.686 180.951 281.466 180.731C281.247 180.511 281.123 180.213 281.123 179.902V124.493C281.125 124.183 281.249 123.886 281.469 123.667C281.688 123.447 281.985 123.323 282.295 123.321C282.606 123.321 282.904 123.445 283.124 123.664C283.344 123.884 283.467 124.182 283.467 124.493V179.894C283.47 180.049 283.441 180.203 283.383 180.346C283.325 180.49 283.239 180.621 283.129 180.731C283.02 180.841 282.89 180.928 282.747 180.987C282.604 181.046 282.45 181.075 282.295 181.074Z" fill="#407BFF"/>
<path d="M218.42 316.288C218.266 316.289 218.113 316.259 217.97 316.201C217.828 316.142 217.698 316.056 217.589 315.947C217.48 315.838 217.394 315.708 217.335 315.566C217.277 315.423 217.247 315.27 217.248 315.116V259.715C217.247 259.561 217.277 259.408 217.335 259.265C217.394 259.122 217.48 258.993 217.589 258.884C217.698 258.775 217.828 258.688 217.97 258.63C218.113 258.571 218.266 258.542 218.42 258.543C218.574 258.542 218.727 258.571 218.87 258.63C219.013 258.688 219.142 258.775 219.251 258.884C219.361 258.993 219.447 259.122 219.505 259.265C219.564 259.408 219.593 259.561 219.592 259.715V315.116C219.593 315.27 219.564 315.423 219.505 315.566C219.447 315.708 219.361 315.838 219.251 315.947C219.142 316.056 219.013 316.142 218.87 316.201C218.727 316.259 218.574 316.289 218.42 316.288Z" fill="#407BFF"/>
<path d="M248.888 327.724C248.577 327.724 248.279 327.601 248.059 327.381C247.839 327.161 247.716 326.863 247.716 326.552V271.143C247.718 270.833 247.842 270.536 248.061 270.317C248.281 270.097 248.578 269.973 248.888 269.971C249.199 269.971 249.497 270.095 249.717 270.314C249.937 270.534 250.06 270.832 250.06 271.143V326.552C250.061 326.707 250.032 326.859 249.973 327.002C249.915 327.145 249.828 327.275 249.719 327.384C249.61 327.493 249.481 327.579 249.338 327.637C249.195 327.696 249.042 327.726 248.888 327.724Z" fill="#407BFF"/>
<g opacity="0.7">
<path d="M229.857 183.15C229.546 183.15 229.248 183.026 229.028 182.807C228.808 182.587 228.685 182.289 228.685 181.978V126.553C228.687 126.242 228.811 125.945 229.03 125.726C229.25 125.507 229.547 125.383 229.857 125.38C230.168 125.38 230.466 125.504 230.686 125.724C230.905 125.944 231.029 126.242 231.029 126.553V181.962C231.032 182.117 231.004 182.272 230.947 182.416C230.889 182.561 230.803 182.693 230.694 182.803C230.585 182.914 230.454 183.002 230.31 183.061C230.167 183.121 230.012 183.151 229.857 183.15Z" fill="white"/>
<path d="M229.857 268.392C229.547 268.39 229.25 268.266 229.03 268.046C228.811 267.827 228.687 267.53 228.685 267.22V211.811C228.685 211.5 228.808 211.202 229.028 210.982C229.248 210.762 229.546 210.639 229.857 210.639C230.011 210.638 230.164 210.667 230.307 210.726C230.449 210.784 230.579 210.871 230.688 210.98C230.797 211.089 230.883 211.218 230.942 211.361C231 211.504 231.03 211.657 231.029 211.811V267.22C231.029 267.374 230.999 267.526 230.94 267.668C230.881 267.811 230.794 267.94 230.686 268.049C230.577 268.158 230.448 268.244 230.305 268.303C230.163 268.362 230.011 268.392 229.857 268.392Z" fill="white"/>
<path d="M248.888 167.774C248.578 167.771 248.281 167.647 248.061 167.428C247.842 167.209 247.718 166.912 247.716 166.601V111.192C247.716 110.882 247.839 110.583 248.059 110.364C248.279 110.144 248.577 110.02 248.888 110.02C249.042 110.019 249.195 110.049 249.338 110.107C249.481 110.166 249.61 110.252 249.719 110.361C249.828 110.47 249.915 110.6 249.973 110.743C250.032 110.885 250.061 111.038 250.06 111.192V166.601C250.06 166.755 250.03 166.908 249.971 167.05C249.912 167.192 249.826 167.321 249.717 167.43C249.608 167.539 249.479 167.625 249.337 167.684C249.194 167.743 249.042 167.774 248.888 167.774Z" fill="white"/>
<path d="M268.522 198.559C268.368 198.56 268.215 198.53 268.072 198.472C267.929 198.413 267.8 198.327 267.691 198.218C267.581 198.109 267.495 197.979 267.437 197.837C267.378 197.694 267.349 197.541 267.35 197.387V141.978C267.35 141.667 267.473 141.369 267.693 141.149C267.913 140.929 268.211 140.806 268.522 140.806C268.832 140.808 269.129 140.932 269.348 141.151C269.568 141.371 269.692 141.668 269.694 141.978V197.387C269.694 197.698 269.57 197.996 269.351 198.216C269.131 198.435 268.833 198.559 268.522 198.559Z" fill="white"/>
<path d="M282.295 311.941C281.984 311.941 281.686 311.818 281.466 311.598C281.247 311.378 281.123 311.08 281.123 310.769V255.36C281.125 255.05 281.249 254.753 281.469 254.533C281.688 254.314 281.985 254.19 282.295 254.188C282.606 254.188 282.904 254.311 283.124 254.531C283.344 254.751 283.467 255.049 283.467 255.36V310.769C283.468 310.923 283.439 311.076 283.38 311.219C283.322 311.361 283.236 311.491 283.126 311.6C283.017 311.709 282.888 311.796 282.745 311.854C282.602 311.913 282.449 311.942 282.295 311.941Z" fill="white"/>
<path d="M282.295 235.572C281.985 235.57 281.688 235.445 281.469 235.226C281.249 235.007 281.125 234.71 281.123 234.399V227.887C281.125 227.577 281.249 227.28 281.469 227.061C281.688 226.842 281.985 226.717 282.295 226.715C282.606 226.715 282.904 226.839 283.124 227.059C283.344 227.278 283.467 227.577 283.467 227.887V234.399C283.467 234.71 283.344 235.009 283.124 235.228C282.904 235.448 282.606 235.572 282.295 235.572Z" fill="white"/>
<path d="M265.722 258.632C265.412 258.63 265.115 258.506 264.895 258.287C264.676 258.067 264.552 257.77 264.55 257.46V250.948C264.552 250.638 264.676 250.341 264.895 250.122C265.115 249.902 265.412 249.778 265.722 249.776C266.033 249.776 266.331 249.899 266.551 250.119C266.771 250.339 266.894 250.637 266.894 250.948V257.46C266.894 257.771 266.771 258.069 266.551 258.289C266.331 258.509 266.033 258.632 265.722 258.632Z" fill="white"/>
<path d="M248.888 212.56C248.578 212.558 248.281 212.434 248.061 212.214C247.842 211.995 247.718 211.698 247.716 211.388V204.876C247.718 204.566 247.842 204.269 248.061 204.049C248.281 203.83 248.578 203.706 248.888 203.704C249.199 203.704 249.497 203.827 249.717 204.047C249.937 204.267 250.06 204.565 250.06 204.876V211.388C250.06 211.699 249.937 211.997 249.717 212.217C249.497 212.436 249.199 212.56 248.888 212.56Z" fill="white"/>
<path d="M218.42 156.532C218.266 156.533 218.113 156.504 217.97 156.445C217.828 156.387 217.698 156.3 217.589 156.191C217.48 156.082 217.394 155.953 217.335 155.81C217.277 155.667 217.247 155.514 217.248 155.36V148.848C217.247 148.694 217.277 148.541 217.335 148.398C217.394 148.255 217.48 148.126 217.589 148.017C217.698 147.908 217.828 147.821 217.97 147.763C218.113 147.704 218.266 147.675 218.42 147.676C218.574 147.675 218.727 147.704 218.87 147.763C219.013 147.821 219.142 147.908 219.251 148.017C219.361 148.126 219.447 148.255 219.505 148.398C219.564 148.541 219.593 148.694 219.592 148.848V155.36C219.593 155.514 219.564 155.667 219.505 155.81C219.447 155.953 219.361 156.082 219.251 156.191C219.142 156.3 219.013 156.387 218.87 156.445C218.727 156.504 218.574 156.533 218.42 156.532Z" fill="white"/>
<path d="M248.888 240.48C248.577 240.48 248.279 240.357 248.059 240.137C247.839 239.917 247.716 239.619 247.716 239.308V232.796C247.716 232.485 247.839 232.187 248.059 231.967C248.279 231.747 248.577 231.624 248.888 231.624C249.043 231.623 249.196 231.653 249.34 231.712C249.483 231.771 249.613 231.858 249.722 231.968C249.831 232.078 249.917 232.208 249.975 232.352C250.034 232.495 250.062 232.649 250.06 232.804V239.316C250.06 239.47 250.03 239.622 249.971 239.763C249.912 239.905 249.825 240.034 249.716 240.142C249.607 240.25 249.478 240.336 249.336 240.394C249.194 240.452 249.042 240.481 248.888 240.48Z" fill="white"/>
<path d="M264.549 303.297C264.239 303.294 263.942 303.17 263.723 302.951C263.503 302.731 263.379 302.435 263.377 302.124V295.612C263.379 295.302 263.503 295.005 263.723 294.786C263.942 294.566 264.239 294.442 264.549 294.44C264.86 294.44 265.158 294.564 265.378 294.783C265.598 295.003 265.721 295.301 265.721 295.612V302.124C265.721 302.435 265.598 302.733 265.378 302.953C265.158 303.173 264.86 303.297 264.549 303.297Z" fill="white"/>
<path d="M282.295 181.074C281.984 181.074 281.686 180.951 281.466 180.731C281.247 180.511 281.123 180.213 281.123 179.902V124.493C281.125 124.183 281.249 123.886 281.469 123.667C281.688 123.447 281.985 123.323 282.295 123.321C282.606 123.321 282.904 123.445 283.124 123.664C283.344 123.884 283.467 124.182 283.467 124.493V179.894C283.47 180.049 283.441 180.203 283.383 180.346C283.325 180.49 283.239 180.621 283.129 180.731C283.02 180.841 282.89 180.928 282.747 180.987C282.604 181.046 282.45 181.075 282.295 181.074Z" fill="white"/>
<path d="M218.42 316.288C218.266 316.289 218.113 316.259 217.97 316.201C217.828 316.142 217.698 316.056 217.589 315.947C217.48 315.838 217.394 315.708 217.335 315.566C217.277 315.423 217.247 315.27 217.248 315.116V259.715C217.247 259.561 217.277 259.408 217.335 259.265C217.394 259.122 217.48 258.993 217.589 258.884C217.698 258.775 217.828 258.688 217.97 258.63C218.113 258.571 218.266 258.542 218.42 258.543C218.574 258.542 218.727 258.571 218.87 258.63C219.013 258.688 219.142 258.775 219.251 258.884C219.361 258.993 219.447 259.122 219.505 259.265C219.564 259.408 219.593 259.561 219.592 259.715V315.116C219.593 315.27 219.564 315.423 219.505 315.566C219.447 315.708 219.361 315.838 219.251 315.947C219.142 316.056 219.013 316.142 218.87 316.201C218.727 316.259 218.574 316.289 218.42 316.288Z" fill="white"/>
<path d="M248.888 327.724C248.577 327.724 248.279 327.601 248.059 327.381C247.839 327.161 247.716 326.863 247.716 326.552V271.143C247.718 270.833 247.842 270.536 248.061 270.317C248.281 270.097 248.578 269.973 248.888 269.971C249.199 269.971 249.497 270.095 249.717 270.314C249.937 270.534 250.06 270.832 250.06 271.143V326.552C250.061 326.707 250.032 326.859 249.973 327.002C249.915 327.145 249.828 327.275 249.719 327.384C249.61 327.493 249.481 327.579 249.338 327.637C249.195 327.696 249.042 327.726 248.888 327.724Z" fill="white"/>
</g>
<path d="M296.679 325.803H204.046C203.788 325.799 203.533 325.852 203.298 325.958C203.063 326.063 202.854 326.219 202.686 326.414L200.073 329.369C199.808 329.668 199.653 330.049 199.632 330.448C199.612 330.847 199.727 331.241 199.959 331.567H300.733C300.961 331.24 301.074 330.846 301.053 330.448C301.032 330.05 300.88 329.67 300.619 329.369L297.998 326.414C297.834 326.224 297.632 326.071 297.405 325.965C297.177 325.86 296.93 325.805 296.679 325.803Z" fill="#263238"/>
<path opacity="0.4" d="M296.679 325.803H204.046C203.788 325.799 203.533 325.852 203.298 325.958C203.063 326.063 202.854 326.219 202.686 326.414L200.073 329.369C199.808 329.668 199.653 330.049 199.632 330.448C199.612 330.847 199.727 331.241 199.959 331.567H300.733C300.961 331.24 301.074 330.846 301.053 330.448C301.032 330.05 300.88 329.67 300.619 329.369L297.998 326.414C297.834 326.224 297.632 326.071 297.405 325.965C297.177 325.86 296.93 325.805 296.679 325.803Z" fill="white"/>
<path d="M294.35 322.271H206.365L204.672 323.752V329.344H296.043V323.752L294.35 322.271Z" fill="#263238"/>
<path opacity="0.1" d="M294.35 322.271H206.365L204.672 323.752V329.344H296.043V323.752L294.35 322.271Z" fill="white"/>
<path d="M296.076 329.344H204.648L193.65 334.473V337.371H307.065V334.473L296.076 329.344Z" fill="#263238"/>
<path opacity="0.2" d="M296.076 329.344H204.648L193.65 334.473H307.065L296.076 329.344Z" fill="white"/>
<path opacity="0.2" d="M294.35 322.271H206.365L204.672 323.752H296.043L294.35 322.271Z" fill="white"/>
<path d="M250.362 331.558C249.999 331.558 249.65 331.415 249.392 331.158C249.134 330.902 248.988 330.554 248.986 330.191V327.171C248.988 326.808 249.134 326.46 249.392 326.204C249.65 325.947 249.999 325.803 250.362 325.803C250.724 325.806 251.071 325.95 251.327 326.206C251.583 326.462 251.727 326.809 251.73 327.171V330.191C251.73 330.371 251.694 330.548 251.625 330.714C251.557 330.88 251.456 331.031 251.329 331.158C251.202 331.285 251.051 331.386 250.885 331.454C250.719 331.523 250.542 331.558 250.362 331.558Z" fill="#263238"/>
<path opacity="0.4" d="M250.362 331.558C249.999 331.558 249.65 331.415 249.392 331.158C249.134 330.902 248.988 330.554 248.986 330.191V327.171C248.988 326.808 249.134 326.46 249.392 326.204C249.65 325.947 249.999 325.803 250.362 325.803C250.724 325.806 251.071 325.95 251.327 326.206C251.583 326.462 251.727 326.809 251.73 327.171V330.191C251.73 330.371 251.694 330.548 251.625 330.714C251.557 330.88 251.456 331.031 251.329 331.158C251.202 331.285 251.051 331.386 250.885 331.454C250.719 331.523 250.542 331.558 250.362 331.558Z" fill="white"/>
<path d="M253.602 232.869C273.976 232.869 290.493 214.811 290.493 192.535C290.493 170.26 273.976 152.202 253.602 152.202C233.228 152.202 216.712 170.26 216.712 192.535C216.712 214.811 233.228 232.869 253.602 232.869Z" fill="#C847FF"/>
<g opacity="0.2">
<path d="M290.484 192.185V192.535C290.484 192.731 290.484 192.91 290.484 193.105C290.484 193.854 290.484 194.603 290.403 195.344C290.403 195.653 290.403 195.962 290.329 196.272C290.27 197.031 290.188 197.78 290.085 198.518C290.085 198.836 290.004 199.137 289.963 199.446C289.841 200.195 289.703 200.944 289.54 201.685C289.475 201.986 289.41 202.295 289.336 202.605C289.157 203.37 288.962 204.119 288.75 204.859L288.457 205.779C288.221 206.536 287.961 207.285 287.684 208.018C287.562 208.335 287.44 208.636 287.309 208.946C287 209.711 286.675 210.46 286.325 211.192C286.178 211.51 286.015 211.811 285.861 212.12C285.47 212.885 285.047 213.626 284.64 214.359C284.452 214.668 284.273 214.977 284.078 215.279C283.598 216.052 283.085 216.801 282.556 217.533C282.336 217.843 282.108 218.152 281.864 218.453C281.267 219.235 280.648 219.984 280.008 220.7C279.731 221.017 279.438 221.318 279.153 221.628C278.412 222.442 277.639 223.158 276.833 223.866C276.483 224.184 276.117 224.493 275.751 224.794C274.781 225.599 273.767 226.349 272.714 227.041C272.234 227.366 271.746 227.668 271.249 227.961C269.827 228.813 268.344 229.561 266.813 230.199C265.999 230.549 265.185 230.85 264.371 231.127C257.393 233.45 249.851 233.45 242.873 231.127C242.059 230.85 241.245 230.549 240.431 230.199C226.593 224.395 216.752 209.719 216.752 192.535C216.752 175.352 226.52 160.789 240.317 154.912C240.96 154.644 241.62 154.383 242.287 154.155C249.636 151.55 257.657 151.55 265.006 154.155C265.82 154.432 266.585 154.741 267.358 155.075C268.833 155.727 270.263 156.475 271.64 157.314C272.128 157.615 272.6 157.916 273.073 158.242C274.106 158.936 275.1 159.686 276.052 160.488C276.41 160.789 276.76 161.099 277.11 161.416C277.924 162.124 278.665 162.865 279.397 163.655C279.68 163.953 279.951 164.262 280.211 164.583C280.859 165.3 281.471 166.05 282.043 166.829C282.287 167.13 282.515 167.44 282.743 167.749C283.256 168.482 283.76 169.231 284.233 169.996C284.428 170.305 284.607 170.606 284.786 170.924C285.209 171.656 285.6 172.397 285.999 173.162C286.145 173.472 286.3 173.773 286.447 174.09C286.789 174.823 287.114 175.572 287.423 176.337C287.554 176.638 287.668 176.947 287.782 177.265C288.058 177.989 288.319 178.738 288.547 179.503C288.653 179.804 288.742 180.122 288.824 180.423C289.043 181.164 289.231 181.913 289.41 182.67C289.483 182.979 289.548 183.297 289.613 183.598C289.76 184.338 289.898 185.087 290.012 185.836C290.061 186.146 290.101 186.447 290.142 186.764C290.24 187.505 290.329 188.254 290.37 189.011C290.409 189.319 290.43 189.628 290.435 189.939C290.46 190.671 290.476 191.42 290.484 192.185Z" fill="white"/>
</g>
<g opacity="0.1">
<path d="M290.484 192.185V192.535C290.484 192.731 290.484 192.91 290.484 193.105C290.484 193.854 290.484 194.603 290.403 195.344C290.403 195.653 290.403 195.962 290.329 196.272C290.27 197.031 290.188 197.78 290.085 198.518C290.085 198.836 290.004 199.137 289.963 199.446C289.841 200.195 289.703 200.944 289.54 201.685C289.475 201.986 289.41 202.295 289.336 202.605C289.157 203.37 288.962 204.119 288.75 204.859L288.457 205.779C288.221 206.536 287.961 207.285 287.684 208.018C287.562 208.335 287.44 208.636 287.309 208.946C287 209.711 286.675 210.46 286.325 211.192C286.178 211.51 286.015 211.811 285.861 212.12C285.47 212.885 285.047 213.626 284.64 214.359C284.452 214.668 284.273 214.977 284.078 215.279C283.598 216.052 283.085 216.801 282.556 217.533C282.336 217.843 282.108 218.152 281.864 218.453C281.267 219.235 280.648 219.984 280.008 220.7C279.731 221.017 279.438 221.318 279.153 221.628C278.412 222.442 277.639 223.158 276.833 223.866C276.483 224.184 276.117 224.493 275.751 224.794C274.781 225.599 273.767 226.349 272.714 227.041C272.234 227.366 271.746 227.668 271.249 227.961C269.827 228.813 268.344 229.561 266.813 230.199C265.999 230.549 265.185 230.85 264.371 231.127C257.393 233.45 249.851 233.45 242.873 231.127C242.059 230.85 241.245 230.549 240.431 230.199C226.593 224.395 216.752 209.719 216.752 192.535C216.752 175.352 226.52 160.789 240.317 154.912C240.96 154.644 241.62 154.383 242.287 154.155C249.636 151.55 257.657 151.55 265.006 154.155C265.82 154.432 266.585 154.741 267.358 155.075C268.833 155.727 270.263 156.475 271.64 157.314C272.128 157.615 272.6 157.916 273.073 158.242C274.106 158.936 275.1 159.686 276.052 160.488C276.41 160.789 276.76 161.099 277.11 161.416C277.924 162.124 278.665 162.865 279.397 163.655C279.68 163.953 279.951 164.262 280.211 164.583C280.859 165.3 281.471 166.05 282.043 166.829C282.287 167.13 282.515 167.44 282.743 167.749C283.256 168.482 283.76 169.231 284.233 169.996C284.428 170.305 284.607 170.606 284.786 170.924C285.209 171.656 285.6 172.397 285.999 173.162C286.145 173.472 286.3 173.773 286.447 174.09C286.789 174.823 287.114 175.572 287.423 176.337C287.554 176.638 287.668 176.947 287.782 177.265C288.058 177.989 288.319 178.738 288.547 179.503C288.653 179.804 288.742 180.122 288.824 180.423C289.043 181.164 289.231 181.913 289.41 182.67C289.483 182.979 289.548 183.297 289.613 183.598C289.76 184.338 289.898 185.087 290.012 185.836C290.061 186.146 290.101 186.447 290.142 186.764C290.24 187.505 290.329 188.254 290.37 189.011C290.409 189.319 290.43 189.628 290.435 189.939C290.46 190.671 290.476 191.42 290.484 192.185Z" fill="black"/>
</g>
<g opacity="0.2">
<path d="M266.805 230.199C265.991 230.549 265.177 230.85 264.363 231.127H240.269V230.199H266.805Z" fill="black"/>
<path d="M272.69 227.041C272.21 227.366 271.722 227.668 271.225 227.961H240.269V227.041H272.69Z" fill="black"/>
<path d="M276.825 223.85C276.475 224.167 276.109 224.477 275.743 224.778H240.269V223.85H276.825Z" fill="black"/>
<path d="M280.016 220.7C279.739 221.017 279.446 221.318 279.161 221.628H240.269V220.7H280.016Z" fill="black"/>
<path d="M282.548 217.533C282.328 217.843 282.1 218.152 281.856 218.453H240.269V217.533H282.548Z" fill="black"/>
<path d="M284.632 214.359C284.444 214.668 284.265 214.977 284.07 215.278H240.269V214.359H284.632Z" fill="black"/>
<path d="M286.317 211.192C286.17 211.51 286.007 211.811 285.853 212.12H240.269V211.192H286.317Z" fill="black"/>
<path d="M287.676 208.018C287.554 208.335 287.432 208.636 287.301 208.946H240.269V208.018H287.676Z" fill="black"/>
<path d="M288.742 204.859L288.449 205.779H240.269V204.859H288.742Z" fill="black"/>
<path d="M289.532 201.685C289.467 201.986 289.402 202.295 289.328 202.605H240.269V201.685H289.532Z" fill="black"/>
<path d="M290.077 198.518C290.077 198.836 289.995 199.137 289.955 199.446H240.301V198.518H290.077Z" fill="black"/>
<path d="M290.395 195.36C290.395 195.669 290.395 195.979 290.321 196.288H240.269V195.36H290.395Z" fill="black"/>
<path d="M290.484 192.185V192.535C290.484 192.731 290.484 192.91 290.484 193.105H240.269V192.185H290.484Z" fill="black"/>
<path d="M290.403 189.939H240.269V189.011H290.338C290.376 189.319 290.398 189.628 290.403 189.939Z" fill="black"/>
<path d="M290.11 186.764H240.269V185.836H289.98C290.028 186.146 290.069 186.447 290.11 186.764Z" fill="black"/>
<path d="M289.581 183.598H240.269V182.67H289.377C289.45 182.979 289.516 183.296 289.581 183.598Z" fill="black"/>
<path d="M288.791 180.423H240.269V179.503H288.514C288.62 179.804 288.71 180.122 288.791 180.423Z" fill="black"/>
<path d="M287.749 177.265H240.269V176.337H287.391C287.521 176.638 287.635 176.947 287.749 177.265Z" fill="black"/>
<path d="M286.414 174.09H240.269V173.162H285.967C286.113 173.471 286.268 173.773 286.414 174.09Z" fill="black"/>
<path d="M284.754 170.94H240.269V170.012H284.225C284.395 170.305 284.575 170.606 284.754 170.94Z" fill="black"/>
<path d="M282.711 167.749H240.269V166.87H282.01C282.255 167.13 282.458 167.44 282.711 167.749Z" fill="black"/>
<path d="M280.179 164.583H240.293V163.655H279.365C279.636 163.953 279.908 164.262 280.179 164.583Z" fill="black"/>
<path d="M277.061 161.416H240.269V160.488H276.003C276.361 160.789 276.711 161.099 277.061 161.416Z" fill="black"/>
<path d="M273.024 158.241H240.269V157.313H271.591C272.08 157.615 272.552 157.916 273.024 158.241Z" fill="black"/>
<path d="M267.31 155.075H240.269V154.155H264.957C265.755 154.432 266.536 154.741 267.31 155.075Z" fill="black"/>
</g>
<path d="M247.123 232.869C267.497 232.869 284.013 214.811 284.013 192.535C284.013 170.26 267.497 152.202 247.123 152.202C226.749 152.202 210.232 170.26 210.232 192.535C210.232 214.811 226.749 232.869 247.123 232.869Z" fill="#C847FF"/>
<g opacity="0.3">
<path d="M247.123 232.869C267.497 232.869 284.013 214.811 284.013 192.535C284.013 170.26 267.497 152.202 247.123 152.202C226.749 152.202 210.232 170.26 210.232 192.535C210.232 214.811 226.749 232.869 247.123 232.869Z" fill="white"/>
</g>
<path d="M247.123 228.482C265.28 228.482 280 212.388 280 192.535C280 172.683 265.28 156.589 247.123 156.589C228.965 156.589 214.245 172.683 214.245 192.535C214.245 212.388 228.965 228.482 247.123 228.482Z" fill="#C847FF"/>
<g opacity="0.2">
<path d="M247.587 228.474H247.123C228.962 228.474 214.245 212.381 214.245 192.527C214.245 172.674 228.962 156.581 247.123 156.581H247.587C229.638 156.85 215.165 172.861 215.165 192.519C215.165 212.177 229.638 228.205 247.587 228.474Z" fill="black"/>
</g>
<g opacity="0.2">
<path d="M239.666 181.799V200.244H236.467L228.075 189.068V200.244H224.225V181.799H227.481L235.857 192.975V181.799H239.666Z" fill="black"/>
<path d="M247.554 185.217V190.101H255.344V193.52H247.554V200.244H243.655V181.799H256.411V185.217H247.554Z" fill="black"/>
<path d="M262.63 185.274H257.225V181.799H271.877V185.274H266.488V200.244H262.589L262.63 185.274Z" fill="black"/>
</g>
<path d="M238.747 181.799V200.244H235.548L227.147 189.068V200.244H223.297V181.799H226.553L234.929 192.975V181.799H238.747Z" fill="#C847FF"/>
<path d="M246.643 185.217V190.101H254.441V193.52H246.643V200.244H242.735V181.799H255.458V185.217H246.643Z" fill="#C847FF"/>
<path d="M261.702 185.274H256.321V181.799H270.973V185.274H265.585V200.244H261.702V185.274Z" fill="#C847FF"/>
<g opacity="0.3">
<path d="M238.747 181.799V200.244H235.548L227.147 189.068V200.244H223.297V181.799H226.553L234.929 192.975V181.799H238.747Z" fill="white"/>
<path d="M246.643 185.217V190.101H254.441V193.52H246.643V200.244H242.735V181.799H255.458V185.217H246.643Z" fill="white"/>
<path d="M261.702 185.274H256.321V181.799H270.973V185.274H265.585V200.244H261.702V185.274Z" fill="white"/>
</g>
<path opacity="0.1" d="M251.079 152.43L217.631 216.736C212.764 209.596 210.183 201.144 210.232 192.503C210.232 170.224 226.748 152.169 247.123 152.169C248.445 152.178 249.766 152.265 251.079 152.43Z" fill="white"/>
<path opacity="0.1" d="M261.034 155.173L224.876 224.705C222.902 223.083 221.102 221.261 219.504 219.267L254.009 152.902C256.426 153.404 258.781 154.166 261.034 155.173Z" fill="white"/>
<path opacity="0.1" d="M267.538 158.942L231.177 228.905C230.55 228.571 229.931 228.229 229.337 227.863L265.796 157.737C266.382 158.111 266.993 158.518 267.538 158.942Z" fill="white"/>
<path d="M229.646 155.954L228.287 150.907L226.928 155.954L221.881 157.314L226.928 158.673L228.287 163.728L229.646 158.673L234.701 157.314L229.646 155.954Z" fill="white"/>
<path d="M274.937 208.889L273.838 204.811L272.739 208.889L268.661 209.988L272.739 211.086L273.838 215.165L274.937 211.086L279.015 209.988L274.937 208.889Z" fill="white"/>
<path d="M240.424 149.963L239.805 152.283L237.485 152.902L239.805 153.528L240.424 155.848L241.051 153.528L243.371 152.902L241.051 152.283L240.424 149.963Z" fill="white"/>
<path d="M237.64 170.224L237.013 172.544L234.701 173.162L237.013 173.789L237.64 176.101L238.266 173.789L240.578 173.162L238.266 172.544L237.64 170.224Z" fill="white"/>
<path d="M268.661 224.102L268.034 226.414L265.723 227.041L268.034 227.659L268.661 229.979L269.28 227.659L271.6 227.041L269.28 226.414L268.661 224.102Z" fill="white"/>
<path d="M115.368 93.3902H92.5761C90.4971 93.3902 88.5033 94.2161 87.0332 95.6862C85.5632 97.1562 84.7373 99.1501 84.7373 101.229V123.394C84.7373 125.473 85.5632 127.467 87.0332 128.937C88.5033 130.407 90.4971 131.233 92.5761 131.233H108.164L113.463 138.063V131.233H115.409C117.487 131.231 119.48 130.404 120.949 128.935C122.419 127.465 123.245 125.473 123.248 123.394V101.229C123.248 100.196 123.044 99.1736 122.647 98.2198C122.251 97.2661 121.67 96.4002 120.937 95.6717C120.205 94.9433 119.336 94.3667 118.38 93.9752C117.425 93.5837 116.401 93.3849 115.368 93.3902Z" fill="#407BFF"/>
<path d="M103.964 99.8372L91.249 104.957C91.249 104.957 91.4281 121.384 103.964 125.087C116.499 121.384 116.678 104.957 116.678 104.957L103.964 99.8372Z" fill="white"/>
<path d="M103.964 101.62L93.04 106.015C93.04 106.015 93.1866 120.13 103.964 123.313C114.733 120.13 114.888 106.015 114.888 106.015L103.964 101.62Z" fill="#407BFF"/>
<path opacity="0.6" d="M103.964 101.62L93.04 106.015C93.04 106.015 93.1866 120.13 103.964 123.313C114.733 120.13 114.888 106.015 114.888 106.015L103.964 101.62Z" fill="white"/>
<path d="M102.962 117.11C102.639 117.11 102.328 116.981 102.099 116.752L97.6795 112.332C97.4506 112.102 97.3225 111.791 97.3232 111.466C97.324 111.142 97.4536 110.831 97.6835 110.602C97.9134 110.373 98.2248 110.245 98.5492 110.246C98.8736 110.247 99.1844 110.376 99.4133 110.606L102.946 114.139L108.506 108.205C108.603 108.059 108.732 107.935 108.881 107.843C109.031 107.751 109.199 107.692 109.374 107.671C109.548 107.65 109.725 107.667 109.893 107.72C110.06 107.774 110.214 107.863 110.344 107.982C110.474 108.1 110.577 108.246 110.645 108.408C110.714 108.57 110.747 108.744 110.741 108.92C110.736 109.096 110.693 109.269 110.615 109.426C110.536 109.584 110.425 109.723 110.288 109.833L103.866 116.687C103.753 116.805 103.618 116.9 103.469 116.966C103.319 117.032 103.158 117.067 102.995 117.07L102.962 117.11Z" fill="white"/>
<path d="M115.767 230.671C115.767 230.671 131.86 223.451 153.309 226.667C153.309 226.667 149.605 183.427 148.254 177.623C146.903 171.819 116.109 178.624 116.109 178.624C116.109 178.624 118.103 195.848 117.786 206.487C117.468 217.126 114.416 228.856 115.767 230.671Z" fill="#263238"/>
<path opacity="0.2" d="M115.767 230.671C115.767 230.671 131.86 223.451 153.309 226.667C153.309 226.667 149.605 183.427 148.254 177.623C146.903 171.819 116.109 178.624 116.109 178.624C116.109 178.624 118.103 195.848 117.786 206.487C117.468 217.126 114.416 228.856 115.767 230.671Z" fill="black"/>
<path d="M161.937 333.683L156.378 335.254L155.051 326.601L154.343 321.978L159.902 320.407L160.847 326.601L161.937 333.683Z" fill="#B55B52"/>
<path d="M129.972 334.139L124.241 334.896L124.184 326.601L124.144 321.449L129.89 320.7L129.923 326.601L129.972 334.139Z" fill="#B55B52"/>
<path opacity="0.2" d="M129.89 320.7L129.923 326.601H124.184L124.144 321.449L129.89 320.7Z" fill="black"/>
<path opacity="0.2" d="M160.847 326.601H155.051L154.343 321.978L159.902 320.407L160.847 326.601Z" fill="black"/>
<path d="M161.864 332.812L155.556 332.641C155.441 332.639 155.329 332.676 155.237 332.745C155.146 332.815 155.08 332.913 155.051 333.024L153.724 338.111C153.688 338.235 153.682 338.366 153.706 338.493C153.73 338.62 153.784 338.739 153.864 338.841C153.943 338.943 154.046 339.024 154.163 339.078C154.281 339.133 154.409 339.158 154.538 339.153C156.817 339.153 160.114 339.153 162.979 339.21C166.325 339.3 168.449 339.137 172.381 339.21C174.75 339.275 175.499 336.907 174.514 336.662C170.02 335.555 167.09 335.775 163.272 333.268C162.853 332.991 162.366 332.833 161.864 332.812Z" fill="#263238"/>
<path d="M162.32 333.512C162.317 333.483 162.323 333.454 162.337 333.429C162.352 333.404 162.375 333.384 162.402 333.374C162.67 333.243 165.031 332.128 165.723 332.56C165.787 332.599 165.84 332.654 165.877 332.72C165.914 332.785 165.934 332.859 165.935 332.934C165.944 333.058 165.923 333.182 165.873 333.295C165.824 333.409 165.747 333.508 165.65 333.585C164.999 334.131 163.354 333.854 162.394 333.65C162.37 333.637 162.35 333.616 162.337 333.592C162.324 333.567 162.318 333.54 162.32 333.512ZM162.89 333.447C164.16 333.691 165.112 333.667 165.479 333.357C165.542 333.306 165.592 333.24 165.623 333.164C165.655 333.089 165.666 333.007 165.658 332.926C165.661 332.896 165.655 332.866 165.64 332.84C165.626 332.814 165.603 332.793 165.576 332.779H165.528C165.096 332.592 163.826 333.04 162.89 333.447Z" fill="#FFC727"/>
<path d="M162.377 333.61C162.357 333.595 162.341 333.576 162.331 333.553C162.321 333.53 162.317 333.504 162.32 333.48C162.408 332.665 162.75 331.899 163.297 331.29C163.404 331.203 163.528 331.139 163.662 331.103C163.795 331.066 163.934 331.058 164.071 331.078C164.445 331.127 164.543 331.314 164.567 331.469C164.648 332.12 163.216 333.333 162.508 333.626H162.41L162.377 333.61ZM164.005 331.347C163.906 331.334 163.805 331.341 163.709 331.367C163.612 331.394 163.522 331.44 163.444 331.502C163 331.991 162.716 332.605 162.63 333.26C163.354 332.853 164.331 331.9 164.258 331.51C164.258 331.51 164.258 331.42 164.136 331.379C164.102 331.365 164.066 331.354 164.03 331.347H164.005Z" fill="#FFC727"/>
<path d="M129.743 332.812L123.427 332.641C123.312 332.641 123.201 332.678 123.11 332.747C123.018 332.816 122.952 332.913 122.922 333.024L121.595 338.111C121.559 338.235 121.553 338.366 121.577 338.493C121.601 338.62 121.656 338.739 121.735 338.841C121.815 338.943 121.917 339.024 122.034 339.078C122.152 339.133 122.28 339.158 122.409 339.153C124.688 339.153 127.985 339.153 130.842 339.21C134.196 339.3 136.321 339.137 140.244 339.21C142.621 339.275 143.362 336.906 142.377 336.662C137.892 335.555 134.961 335.775 131.135 333.268C130.722 332.992 130.24 332.834 129.743 332.812Z" fill="#263238"/>
<path d="M130.24 333.512C130.237 333.484 130.242 333.456 130.255 333.431C130.268 333.407 130.289 333.387 130.313 333.374C130.582 333.243 132.951 332.128 133.635 332.56C133.7 332.598 133.755 332.652 133.794 332.718C133.832 332.783 133.853 332.858 133.854 332.934C133.859 333.057 133.836 333.18 133.787 333.292C133.737 333.405 133.663 333.505 133.569 333.585C132.918 334.131 131.266 333.854 130.313 333.65C130.289 333.637 130.268 333.617 130.255 333.593C130.242 333.568 130.237 333.54 130.24 333.512ZM130.81 333.447C132.072 333.691 133.032 333.667 133.398 333.357C133.462 333.306 133.512 333.24 133.543 333.164C133.574 333.089 133.586 333.007 133.578 332.926C133.581 332.896 133.574 332.866 133.56 332.84C133.545 332.814 133.523 332.793 133.496 332.779H133.447C132.975 332.592 131.697 333.04 130.769 333.447H130.81Z" fill="#FFC727"/>
<path d="M130.24 333.61C130.221 333.594 130.207 333.574 130.198 333.551C130.19 333.528 130.187 333.504 130.191 333.479C130.279 332.665 130.621 331.899 131.168 331.29C131.274 331.203 131.396 331.139 131.528 331.103C131.66 331.066 131.798 331.058 131.933 331.078C132.308 331.127 132.414 331.314 132.43 331.469C132.511 332.12 131.087 333.333 130.379 333.626H130.273L130.24 333.61ZM131.868 331.347C131.768 331.334 131.666 331.34 131.568 331.367C131.47 331.393 131.378 331.439 131.298 331.501C130.855 331.991 130.571 332.605 130.484 333.26C131.209 332.853 132.186 331.9 132.112 331.51C132.106 331.479 132.091 331.45 132.07 331.427C132.048 331.404 132.021 331.388 131.99 331.379L131.868 331.347Z" fill="#FFC727"/>
<path d="M118.153 208.115C115.116 221.286 120.326 324.835 120.326 324.835H130.395L134.701 238.551L150.558 324.835L161.319 324.021C154.286 257.224 148.067 217.289 148.067 217.289V212.242L118.153 208.115Z" fill="#FFC727"/>
<path opacity="0.6" d="M118.153 208.115C115.116 221.286 120.326 324.835 120.326 324.835H130.395L134.701 238.551L150.558 324.835L161.319 324.021C154.286 257.224 148.067 217.289 148.067 217.289V212.242L118.153 208.115Z" fill="white"/>
<path opacity="0.2" d="M138.079 256.898L134.701 238.543L135.352 228.823C135.352 228.823 140.008 245.673 138.079 256.898Z" fill="black"/>
<path d="M117.526 212.731H126.496V214.929L117.2 214.904L117.526 212.731Z" fill="#263238"/>
<path d="M127.318 212.731H143.077V214.969L127.318 214.929V212.731Z" fill="#263238"/>
<path d="M148.442 212.731V214.985L143.892 214.977V212.731H148.442Z" fill="#263238"/>
<path d="M136.834 215.165H134.498C134.299 215.165 134.109 215.086 133.968 214.945C133.828 214.805 133.749 214.614 133.749 214.416V213.268C133.749 213.17 133.768 213.072 133.806 212.981C133.844 212.89 133.899 212.808 133.968 212.738C134.038 212.669 134.12 212.614 134.211 212.576C134.302 212.538 134.4 212.519 134.498 212.519H136.834C137.031 212.521 137.22 212.601 137.358 212.741C137.497 212.881 137.575 213.071 137.575 213.268V214.408C137.576 214.506 137.558 214.603 137.521 214.695C137.484 214.786 137.43 214.869 137.361 214.939C137.292 215.01 137.211 215.066 137.12 215.104C137.03 215.143 136.932 215.163 136.834 215.165ZM134.498 212.934C134.407 212.934 134.32 212.97 134.256 213.034C134.192 213.098 134.156 213.185 134.156 213.276V214.416C134.156 214.506 134.192 214.593 134.256 214.657C134.32 214.722 134.407 214.758 134.498 214.758H136.834C136.879 214.758 136.923 214.749 136.964 214.731C137.005 214.714 137.042 214.689 137.073 214.657C137.104 214.625 137.129 214.587 137.145 214.546C137.161 214.504 137.169 214.46 137.168 214.416V213.268C137.169 213.223 137.161 213.179 137.145 213.138C137.129 213.096 137.104 213.059 137.073 213.027C137.042 212.995 137.005 212.97 136.964 212.952C136.923 212.935 136.879 212.926 136.834 212.926L134.498 212.934Z" fill="white"/>
<path d="M136.85 214.082H135.938C135.884 214.082 135.832 214.061 135.794 214.022C135.756 213.984 135.734 213.933 135.734 213.879C135.734 213.825 135.756 213.773 135.794 213.735C135.832 213.696 135.884 213.675 135.938 213.675H136.866C136.92 213.675 136.972 213.696 137.01 213.735C137.048 213.773 137.069 213.825 137.069 213.879C137.069 213.933 137.048 213.984 137.01 214.022C136.972 214.061 136.92 214.082 136.866 214.082H136.85Z" fill="white"/>
<path d="M147.399 167.765C153.097 168.018 162.524 189.1 162.524 189.1L158.454 195.189L147.058 180.537L147.399 167.765Z" fill="#263238"/>
<path opacity="0.2" d="M147.099 180.545L147.335 180.855L156.858 193.065L158.486 195.165L162.556 189.068C162.556 189.068 153.114 167.993 147.432 167.733L147.099 180.545Z" fill="white"/>
<path opacity="0.1" d="M147.334 180.855L156.858 193.065C156.858 192.845 156.776 192.601 156.719 192.34C154.391 182.23 147.806 177.77 147.806 177.77C147.492 178.768 147.333 179.808 147.334 180.855Z" fill="black"/>
<path d="M115.011 167.684C116.4 173.174 117.334 178.769 117.803 184.412C118.145 188.335 118.291 192.071 118.324 195.45C118.413 203.378 118.202 212.356 118.202 212.356C118.202 212.356 138.999 212.356 148.084 212.267C153.546 183.874 146.879 168.978 146.879 168.978L139.455 166.439C139.455 166.439 138.421 166.333 137.9 166.3C133.625 166.121 129.343 166.167 125.072 166.439C124.258 166.479 123.444 166.544 122.63 166.618C118.6 166.968 115.011 167.684 115.011 167.684Z" fill="#FFC727"/>
<path d="M126.072 167.106C127.35 168.361 128.864 169.351 130.527 170.017C132.19 170.684 133.968 171.014 135.759 170.989C136.159 171.014 136.56 170.958 136.938 170.822C137.315 170.686 137.661 170.474 137.953 170.2C138.245 169.925 138.478 169.593 138.637 169.225C138.796 168.856 138.877 168.459 138.876 168.058C137.933 167.793 137.068 167.304 136.353 166.634C134.619 164.924 135.051 162.442 135.848 160.122L128.522 152.796C128.748 154.825 128.822 156.869 128.742 158.909C128.612 162.255 127.936 165.584 126.072 167.106Z" fill="#B55B52"/>
<path opacity="0.2" d="M128.775 158.917C129.98 162.426 132.242 166.333 136.353 166.626C134.619 164.916 135.051 162.434 135.848 160.114L128.522 152.788C128.76 154.822 128.845 156.871 128.775 158.917Z" fill="black"/>
<path d="M144.966 146.748C145.576 148.938 145.047 153.39 142.06 151.836C139.072 150.281 143.924 142.971 144.966 146.748Z" fill="#263238"/>
<path d="M129.215 149.125C128.686 154.693 128.092 157.932 130.444 161.18C133.977 166.064 141.205 164.542 143.395 159.227C145.373 154.44 145.91 146.138 140.831 143.142C139.707 142.478 138.433 142.109 137.128 142.071C135.824 142.033 134.531 142.327 133.37 142.924C132.21 143.522 131.22 144.404 130.493 145.489C129.766 146.573 129.327 147.824 129.215 149.125Z" fill="#B55B52"/>
<path d="M133.236 146.227L133.496 140.008C133.496 140.008 126.878 139.284 127.058 142.686C123.313 144.379 124.436 152.584 129.28 155.564C132.056 153.496 132.349 145.844 132.349 145.844C132.593 145.966 132.91 146.105 133.236 146.227Z" fill="#263238"/>
<path d="M126.366 153.39C126.47 154.077 126.711 154.735 127.073 155.328C127.435 155.921 127.911 156.435 128.474 156.841C129.996 157.916 131.396 156.711 131.519 154.945C131.624 153.358 130.957 150.875 129.174 150.509C128.784 150.442 128.383 150.471 128.007 150.593C127.63 150.715 127.289 150.927 127.012 151.211C126.736 151.495 126.533 151.841 126.42 152.221C126.308 152.6 126.289 153.002 126.366 153.39Z" fill="#B55B52"/>
<path d="M137.371 151.909C137.298 152.356 137.485 152.723 137.778 152.804C138.071 152.885 138.364 152.519 138.438 152.063C138.511 151.607 138.332 151.249 138.031 151.176C137.73 151.103 137.445 151.461 137.371 151.909Z" fill="#263238"/>
<path d="M142.45 152.666C142.377 153.113 142.564 153.48 142.857 153.553C143.151 153.626 143.444 153.268 143.517 152.82C143.59 152.373 143.411 152.006 143.11 151.925C142.809 151.844 142.54 152.218 142.45 152.666Z" fill="#263238"/>
<path d="M140.823 152.649C141.174 154.062 141.722 155.419 142.451 156.679C142.108 156.84 141.735 156.927 141.356 156.934C140.977 156.941 140.601 156.868 140.253 156.719L140.823 152.649Z" fill="#A02724"/>
<path d="M137.566 158.087C137.759 158.138 137.955 158.179 138.152 158.209C138.187 158.212 138.222 158.202 138.251 158.181C138.279 158.16 138.299 158.13 138.307 158.095C138.309 158.078 138.308 158.061 138.304 158.044C138.299 158.027 138.291 158.012 138.281 157.998C138.27 157.984 138.257 157.973 138.242 157.965C138.227 157.956 138.21 157.951 138.193 157.949C137.632 157.88 137.095 157.678 136.626 157.361C136.158 157.044 135.771 156.621 135.499 156.125C135.492 156.109 135.481 156.094 135.468 156.082C135.455 156.069 135.44 156.06 135.423 156.054C135.406 156.048 135.389 156.045 135.371 156.046C135.353 156.047 135.336 156.052 135.32 156.06C135.303 156.067 135.288 156.077 135.276 156.09C135.264 156.103 135.254 156.119 135.248 156.136C135.242 156.152 135.239 156.17 135.24 156.188C135.242 156.206 135.246 156.223 135.254 156.239C135.494 156.688 135.823 157.083 136.22 157.401C136.618 157.718 137.076 157.952 137.566 158.087Z" fill="#263238"/>
<path d="M136.061 150.037C136.106 150.05 136.154 150.052 136.2 150.04C136.246 150.029 136.288 150.005 136.321 149.971C136.558 149.731 136.847 149.548 137.166 149.438C137.486 149.328 137.826 149.293 138.161 149.336C138.226 149.343 138.291 149.325 138.344 149.286C138.397 149.247 138.434 149.191 138.448 149.126C138.462 149.062 138.452 148.995 138.42 148.938C138.388 148.881 138.337 148.837 138.275 148.816C137.85 148.757 137.417 148.8 137.012 148.941C136.607 149.083 136.242 149.319 135.947 149.63C135.921 149.654 135.901 149.683 135.888 149.715C135.874 149.747 135.867 149.782 135.867 149.817C135.867 149.852 135.874 149.886 135.888 149.918C135.901 149.951 135.921 149.98 135.947 150.004C135.98 150.026 136.02 150.038 136.061 150.037Z" fill="#263238"/>
<path d="M144.941 151.241C144.992 151.253 145.045 151.253 145.096 151.241C145.129 151.231 145.16 151.214 145.187 151.192C145.214 151.169 145.236 151.142 145.252 151.111C145.268 151.079 145.278 151.045 145.28 151.011C145.283 150.976 145.278 150.941 145.267 150.907C145.154 150.505 144.948 150.136 144.665 149.829C144.382 149.522 144.03 149.286 143.639 149.141C143.57 149.123 143.496 149.133 143.434 149.168C143.372 149.203 143.326 149.26 143.305 149.328C143.295 149.361 143.292 149.396 143.295 149.431C143.299 149.465 143.31 149.498 143.326 149.529C143.343 149.559 143.365 149.586 143.392 149.607C143.42 149.629 143.451 149.645 143.484 149.654C143.8 149.767 144.083 149.955 144.31 150.201C144.537 150.448 144.7 150.746 144.786 151.07C144.798 151.108 144.818 151.143 144.845 151.173C144.872 151.202 144.905 151.225 144.941 151.241Z" fill="#263238"/>
<path d="M132.308 145.828C132.308 145.828 143.15 149.743 147.082 146.43C151.013 143.117 146.268 141.612 146.268 141.612C146.268 141.612 147.896 142.914 146.724 143.891C146.724 143.891 145.739 139.658 141.791 138.893C142.135 139.208 142.405 139.595 142.581 140.028C142.757 140.46 142.835 140.926 142.808 141.392C140.541 140.168 138.048 139.418 135.482 139.186C130.989 138.706 119.658 141.392 132.308 145.828Z" fill="#263238"/>
<path d="M124.436 166.398C125.313 173.796 125.542 181.256 125.12 188.693C124.534 198.787 117.127 232.454 117.127 232.454C117.127 232.454 114.961 231.949 114.359 230.867C113.757 229.784 117.354 214.652 117.029 203.671C116.703 192.69 113.521 168.148 113.521 168.148C115.904 167.4 118.36 166.901 120.847 166.658C121.929 166.569 123.126 166.455 124.436 166.398Z" fill="#263238"/>
<path opacity="0.2" d="M114.351 230.891C114.953 231.982 117.118 232.519 117.118 232.519C117.118 232.519 122.816 205.73 123.915 199.471C124.517 195.928 124.919 192.354 125.12 188.766C125.12 188.376 125.12 187.993 125.185 187.602C125.511 180.635 125.272 173.652 124.469 166.723C124.469 166.552 124.469 166.463 124.469 166.463C123.166 166.528 121.962 166.634 120.871 166.756C118.383 166.998 115.928 167.5 113.545 168.254C113.545 168.254 114.278 173.952 115.092 181.082C115.092 181.188 115.092 181.294 115.092 181.4C115.319 183.451 115.547 185.6 115.775 187.773C116.199 191.843 116.589 195.913 116.801 199.405C116.907 201.033 116.988 202.474 117.029 203.76C117.346 214.676 113.757 229.817 114.351 230.891Z" fill="white"/>
<path d="M124.436 166.398C125.313 173.796 125.542 181.256 125.12 188.693L118.673 173.757L122.743 172.69L118.201 170.94L120.839 166.667C121.929 166.569 123.126 166.455 124.436 166.398Z" fill="#263238"/>
<path d="M153.757 228.14L152.821 229.084C151.744 216.23 149.964 203.445 147.489 190.785C147.294 189.743 147.082 188.734 146.887 187.773C143.086 169.467 139.675 166.609 139.455 166.414L142.28 166.886L147.4 167.765C151.405 183.264 153.757 228.14 153.757 228.14Z" fill="#263238"/>
<path opacity="0.2" d="M153.757 228.14L152.821 229.084C151.744 216.23 149.964 203.445 147.489 190.785C147.294 189.743 147.082 188.734 146.887 187.773C143.086 169.467 139.675 166.609 139.455 166.414L142.28 166.886L147.4 167.765C151.405 183.264 153.757 228.14 153.757 228.14Z" fill="white"/>
<path d="M143.387 172.405L146.765 173.821C146.765 173.821 147.44 182.963 146.887 187.773C143.086 169.467 139.675 166.609 139.455 166.414L142.28 166.886C143.973 168.006 145.465 169.404 146.692 171.021L143.387 172.405Z" fill="#263238"/>
<path opacity="0.2" d="M116.557 181.359C116.711 183.506 116.434 185.662 115.743 187.7C115.515 185.535 115.279 183.378 115.06 181.335C115.555 181.233 116.066 181.241 116.557 181.359Z" fill="black"/>
<path opacity="0.1" d="M116.793 199.34C117.159 199.422 117.533 199.479 117.908 199.528C119.906 199.762 121.926 199.729 123.915 199.43C125.277 199.241 126.622 198.945 127.936 198.543C141.978 193.984 141.929 190.964 141.929 190.964C141.929 190.964 132.804 191.835 128.091 189.955C126.934 189.392 125.933 188.554 125.177 187.513C121.701 183.288 118.942 175.515 118.942 175.515C118.942 175.515 117.989 176.679 116.728 178.486C116.199 179.226 115.629 180.114 115.051 180.993C115.051 181.099 115.051 181.205 115.051 181.31C115.279 183.362 115.507 185.511 115.735 187.684C116.19 191.754 116.565 195.848 116.793 199.34Z" fill="black"/>
<path d="M142.019 186.097L142.458 189.776C144.257 193.235 148.294 190.15 148.294 190.15L150.834 189.45C151.275 189.299 151.647 188.995 151.884 188.594C152.121 188.192 152.208 187.72 152.128 187.261L151.844 184.688C151.816 184.16 151.586 183.663 151.201 183.3C150.815 182.938 150.305 182.738 149.776 182.743L147.489 182.979C146.823 183.051 146.186 183.286 145.633 183.663L142.019 186.097Z" fill="#B55B52"/>
<path d="M113.513 168.18C105.283 172.006 116.769 197.33 120.025 197.696C126.276 198.388 143.631 192.185 143.631 192.185L142.532 185.193C142.532 185.193 125.576 189.703 124.013 189.263C122.003 188.726 119.455 178.876 118.275 174.22C117.987 172.92 117.409 171.701 116.585 170.655C115.76 169.609 114.71 168.763 113.513 168.18Z" fill="#263238"/>
<path opacity="0.2" d="M113.513 168.18C105.283 172.006 116.769 197.33 120.025 197.696C126.276 198.388 143.631 192.185 143.631 192.185L142.532 185.193C142.532 185.193 125.576 189.703 124.013 189.263C122.003 188.726 119.455 178.876 118.275 174.22C117.987 172.92 117.409 171.701 116.585 170.655C115.76 169.609 114.71 168.763 113.513 168.18Z" fill="white"/>
<path d="M152.951 199.43L167.18 198.429C167.46 198.395 167.722 198.275 167.93 198.085C168.139 197.896 168.283 197.646 168.344 197.371L172.569 175.824C172.597 175.695 172.593 175.56 172.558 175.433C172.522 175.305 172.456 175.188 172.365 175.092C172.289 175.018 172.198 174.962 172.098 174.928C171.998 174.895 171.892 174.884 171.787 174.896L157.534 175.906C157.254 175.941 156.991 176.063 156.783 176.254C156.574 176.445 156.43 176.696 156.37 176.972L152.219 198.478C152.179 198.59 152.168 198.711 152.187 198.829C152.206 198.947 152.253 199.058 152.326 199.153C152.399 199.247 152.494 199.322 152.603 199.371C152.713 199.419 152.832 199.44 152.951 199.43Z" fill="#263238"/>
<path opacity="0.6" d="M152.951 199.43L167.18 198.429C167.46 198.395 167.722 198.275 167.93 198.085C168.139 197.896 168.283 197.646 168.344 197.371L172.569 175.824C172.597 175.695 172.593 175.56 172.558 175.433C172.522 175.305 172.456 175.188 172.365 175.092C172.289 175.018 172.198 174.962 172.098 174.928C171.998 174.895 171.892 174.884 171.787 174.896L157.534 175.906C157.254 175.941 156.991 176.063 156.783 176.254C156.574 176.445 156.43 176.696 156.37 176.972L152.219 198.478C152.179 198.59 152.168 198.711 152.187 198.829C152.206 198.947 152.253 199.058 152.326 199.153C152.399 199.247 152.494 199.322 152.603 199.371C152.713 199.419 152.832 199.44 152.951 199.43Z" fill="white"/>
<path opacity="0.2" d="M152.983 199.43L167.212 198.429C167.492 198.395 167.754 198.275 167.963 198.085C168.171 197.895 168.316 197.646 168.376 197.37L172.568 175.824C172.596 175.694 172.593 175.56 172.557 175.432C172.522 175.305 172.456 175.188 172.365 175.091L158.144 176.101C157.864 176.135 157.602 176.255 157.393 176.444C157.185 176.634 157.04 176.884 156.98 177.159L152.788 198.657C152.743 198.791 152.738 198.935 152.773 199.072C152.807 199.209 152.88 199.333 152.983 199.43Z" fill="white"/>
<path opacity="0.2" d="M162.263 186.821C162.268 187.108 162.356 187.388 162.514 187.628C162.673 187.867 162.897 188.057 163.159 188.174C163.421 188.291 163.712 188.331 163.996 188.29C164.28 188.248 164.547 188.126 164.765 187.939C164.983 187.751 165.142 187.505 165.226 187.23C165.309 186.955 165.312 186.662 165.235 186.385C165.158 186.108 165.003 185.859 164.79 185.667C164.576 185.474 164.312 185.347 164.029 185.299C163.813 185.28 163.594 185.305 163.388 185.371C163.181 185.438 162.99 185.546 162.825 185.687C162.66 185.829 162.526 186.003 162.429 186.197C162.333 186.392 162.276 186.604 162.263 186.821Z" fill="black"/>
<path d="M172.178 187.326L171.209 190.85C169.117 194.448 166.179 192.478 166.179 192.478L164.128 192.364C163.428 192.364 163.118 191.55 163.379 190.606L164.038 188.164C164.16 187.637 164.418 187.152 164.786 186.756C165.155 186.36 165.621 186.068 166.138 185.909L168.043 185.641C168.547 185.551 169.066 185.634 169.516 185.877L172.178 187.326Z" fill="#B55B52"/>
</svg>
