<svg width="30" height="30" viewBox="0 0 30 30" fill="none" xmlns="http://www.w3.org/2000/svg">
<path d="M28.175 8.025C28.0189 7.44035 27.7122 6.90683 27.2856 6.47762C26.859 6.04841 26.3274 5.73849 25.7437 5.57875C23.6 5 15 5 15 5C15 5 6.4 5 4.25625 5.57875C3.67257 5.73849 3.14095 6.04841 2.71437 6.47762C2.28779 6.90683 1.98115 7.44035 1.825 8.025C1.25 10.185 1.25 14.6875 1.25 14.6875C1.25 14.6875 1.25 19.19 1.825 21.35C1.98096 21.9349 2.28751 22.4687 2.71411 22.8981C3.1407 23.3275 3.67242 23.6377 4.25625 23.7975C6.40125 24.375 15 24.375 15 24.375C15 24.375 23.6 24.375 25.7437 23.7975C26.3276 23.6377 26.8593 23.3275 27.2859 22.8981C27.7125 22.4687 28.019 21.9349 28.175 21.35C28.75 19.1925 28.75 14.6875 28.75 14.6875C28.75 14.6875 28.75 10.185 28.175 8.025ZM12.1875 18.7762V10.6L19.375 14.6888L12.1875 18.7762Z" stroke="#D9D9D9" stroke-width="1.5" stroke-miterlimit="10" stroke-linejoin="round"/>
</svg>
